<svg xmlns="http://www.w3.org/2000/svg" xmlns:xlink="http://www.w3.org/1999/xlink" width="500" zoomAndPan="magnify" viewBox="0 0 375 374.999991" height="500" preserveAspectRatio="xMidYMid meet" version="1.0"><defs><clipPath id="0aae4c7571"><path d="M 2 151.875 L 374 151.875 L 374 223.125 L 2 223.125 Z M 2 151.875 " clip-rule="nonzero"/></clipPath></defs><g clip-path="url(#0aae4c7571)"><path fill="#000000" d="M 10.15625 196.238281 C 10.214844 195.996094 10.214844 195.703125 10.191406 195.390625 L 9.378906 195.402344 C 9.269531 195.402344 9.160156 195.402344 9.066406 195.402344 C 8.570312 195.402344 8.0625 195.402344 7.566406 195.414062 C 7.226562 195.414062 6.839844 195.4375 6.667969 195.582031 C 6.488281 195.742188 6.414062 196.238281 6.546875 196.585938 C 6.609375 196.757812 6.695312 196.757812 6.71875 196.757812 L 9.175781 196.722656 C 9.441406 196.722656 9.804688 196.722656 9.949219 196.625 C 10.035156 196.5625 10.117188 196.40625 10.15625 196.238281 Z M 20.234375 186.398438 C 20.003906 186.179688 19.628906 186.023438 19.21875 185.988281 C 18.589844 185.949219 17.921875 186.132812 17.257812 186.328125 C 15.839844 186.726562 14.632812 187.101562 13.894531 187.960938 C 13.675781 188.203125 13.496094 188.503906 13.289062 188.820312 C 13.167969 189.035156 13.035156 189.242188 12.902344 189.449219 C 12.320312 190.269531 11.691406 190.765625 10.964844 190.984375 C 10.6875 191.046875 10.421875 191.082031 10.167969 191.082031 C 9.523438 191.082031 8.945312 190.886719 8.398438 190.71875 C 8.011719 190.585938 7.648438 190.488281 7.324219 190.453125 C 7.03125 191.503906 6.777344 192.570312 6.597656 193.636719 C 6.960938 193.574219 7.285156 193.5625 7.527344 193.5625 C 8.144531 193.539062 8.75 193.550781 9.378906 193.550781 L 10.324219 193.539062 C 10.578125 193.539062 11.0625 193.539062 11.484375 193.878906 C 12.03125 194.3125 12.03125 194.976562 12.054688 195.269531 C 12.066406 195.691406 12.078125 196.152344 11.957031 196.648438 C 11.8125 197.289062 11.460938 197.820312 10.988281 198.148438 C 10.371094 198.558594 9.671875 198.574219 9.199219 198.574219 L 6.730469 198.621094 C 6.730469 198.621094 6.71875 198.621094 6.707031 198.621094 C 6.488281 198.621094 6.28125 198.574219 6.101562 198.511719 C 5.941406 202.542969 6.511719 206.59375 7.78125 210.394531 C 7.941406 210.503906 8.097656 210.589844 8.21875 210.613281 C 9.683594 210.976562 11.28125 210.964844 12.949219 210.84375 C 12.792969 205.664062 13.398438 200.519531 14.800781 195.535156 C 15.503906 193.03125 16.59375 189.871094 18.890625 187.574219 C 19.289062 187.160156 19.738281 186.773438 20.234375 186.398438 Z M 49.601562 207.332031 C 49.808594 206.378906 49.882812 205.761719 49.773438 205.058594 C 49.75 204.78125 49.722656 204.515625 49.722656 204.234375 C 49.710938 203.847656 49.734375 203.449219 49.761719 203.050781 C 49.785156 202.527344 49.820312 202.09375 49.75 201.742188 C 49.480469 200.386719 49.082031 199.105469 48.550781 197.941406 C 47.449219 195.460938 45.71875 193.34375 43.539062 191.820312 C 38.871094 189.207031 37.539062 189.183594 35.324219 189.132812 C 34.839844 189.121094 34.332031 189.097656 33.761719 189.074219 C 33.652344 189.0625 33.558594 189.0625 33.449219 189.074219 C 31.320312 189.21875 29.226562 189.847656 27.375 190.863281 C 24.808594 192.28125 22.605469 194.53125 21.226562 197.191406 C 20.523438 198.523438 20.027344 199.953125 19.75 201.414062 C 19.582031 202.300781 19.449219 203.039062 19.558594 203.605469 C 19.59375 203.789062 19.628906 203.957031 19.675781 204.113281 C 19.859375 204.925781 20.101562 205.894531 19.785156 207.1875 C 20.476562 210.832031 22.605469 214.183594 25.667969 216.445312 C 26.417969 217.015625 27.203125 217.472656 27.96875 217.824219 C 28.4375 218.042969 28.933594 218.175781 29.527344 218.332031 C 29.953125 218.453125 30.375 218.5625 30.808594 218.707031 C 31.816406 219.046875 32.964844 219.09375 34.125 219.144531 C 34.925781 219.15625 35.820312 219.023438 36.738281 218.878906 C 37.054688 218.816406 37.371094 218.78125 37.683594 218.730469 C 38.046875 218.671875 38.410156 218.648438 38.738281 218.625 C 39.378906 218.574219 39.835938 218.527344 40.359375 218.320312 C 42.464844 217.472656 44.363281 216.167969 45.886719 214.519531 C 47.75 212.5 49.035156 210.019531 49.601562 207.332031 Z M 59.199219 186.21875 C 59.234375 185.964844 59.101562 185.804688 58.800781 185.722656 C 58.726562 185.710938 58.667969 185.695312 58.59375 185.695312 C 58.328125 185.695312 58.132812 185.890625 58.0625 186.058594 C 57.941406 186.3125 58.011719 186.53125 58.304688 186.726562 C 58.304688 186.738281 58.363281 186.75 58.496094 186.761719 C 58.507812 186.761719 58.507812 186.761719 58.523438 186.761719 C 58.992188 186.761719 59.164062 186.410156 59.199219 186.21875 Z M 63.953125 183.808594 C 62.296875 183.832031 60.640625 183.859375 58.980469 183.894531 C 59.078125 183.90625 59.1875 183.917969 59.273438 183.941406 C 60.492188 184.269531 61.195312 185.285156 61.039062 186.484375 C 60.882812 187.535156 59.960938 188.613281 58.523438 188.613281 C 58.496094 188.613281 58.484375 188.613281 58.472656 188.613281 C 57.976562 188.601562 57.566406 188.480469 57.238281 188.238281 C 56.222656 187.535156 55.871094 186.351562 56.378906 185.273438 C 56.71875 184.535156 57.382812 184.050781 58.132812 183.90625 C 56.476562 183.929688 54.820312 183.953125 53.171875 183.980469 L 47.886719 184.0625 C 47.789062 184.378906 47.765625 184.714844 47.835938 185.054688 C 47.847656 185.078125 47.835938 185.117188 47.835938 185.152344 C 49.058594 185.902344 50.195312 186.835938 51.199219 187.949219 C 52.992188 189.921875 54.445312 192.496094 55.53125 195.609375 C 56.296875 197.808594 56.828125 200.085938 57.25 202.019531 C 57.3125 202.261719 57.359375 202.492188 57.410156 202.734375 C 57.566406 203.339844 57.710938 203.980469 57.769531 204.742188 L 57.917969 207.222656 C 59.839844 207.210938 61.679688 207.199219 63.472656 207.1875 C 63.253906 199.515625 63.070312 191.601562 63.953125 183.808594 Z M 71.542969 175.363281 L 76.804688 175.277344 C 76.5625 174.890625 76.382812 174.46875 76.308594 173.996094 C 76.199219 173.34375 76.273438 172.652344 76.480469 171.949219 C 75.839844 172.386719 75.207031 172.808594 74.605469 173.234375 C 73.585938 173.933594 72.558594 174.648438 71.542969 175.363281 Z M 80.570312 171.140625 C 80.605469 170.777344 80.667969 170.339844 80.558594 170.085938 C 80.519531 170.003906 80.472656 169.976562 80.472656 169.976562 C 80.085938 169.988281 78.753906 171.355469 78.425781 172.082031 C 78.234375 172.484375 78.039062 173.074219 78.125 173.679688 C 78.210938 174.164062 78.5 174.601562 78.863281 174.78125 C 79.179688 174.9375 79.613281 174.902344 79.84375 174.695312 C 80.085938 174.429688 80.183594 173.921875 80.265625 173.34375 Z M 110.664062 181.402344 C 110.617188 181.316406 110.578125 181.242188 110.554688 181.148438 C 110.457031 180.84375 110.457031 180.578125 110.46875 180.382812 L 110.46875 180.371094 C 110.167969 180.179688 109.660156 180.167969 109.117188 180.167969 L 105.847656 180.167969 C 105.496094 180.167969 105.097656 180.167969 104.855469 180.300781 C 104.808594 180.324219 104.757812 180.410156 104.757812 180.433594 C 104.929688 180.808594 104.820312 181.195312 104.527344 181.449219 C 106.621094 181.425781 108.679688 181.414062 110.664062 181.402344 Z M 114.1875 183.589844 C 114.210938 183.484375 114.222656 183.363281 114.234375 183.242188 C 110.363281 183.253906 106.355469 183.289062 102.15625 183.324219 C 90.09375 183.433594 77.871094 183.617188 65.832031 183.785156 C 64.921875 191.542969 65.117188 199.480469 65.320312 207.175781 C 69.570312 207.140625 73.476562 207.066406 77.21875 207.007812 C 80.59375 206.945312 83.96875 206.863281 87.347656 206.765625 C 89.015625 206.726562 90.699219 206.679688 92.378906 206.605469 C 93.128906 206.582031 93.722656 206.65625 94.375 206.765625 C 94.824219 206.847656 95.367188 206.824219 95.902344 206.800781 C 96.167969 206.789062 96.433594 206.777344 96.675781 206.777344 L 113.980469 206.742188 C 114.039062 201.996094 114.027344 197.203125 113.917969 192.425781 C 113.90625 191.90625 113.882812 191.382812 113.847656 190.851562 C 113.761719 189.691406 113.691406 188.480469 113.835938 187.320312 C 113.871094 187.0625 113.917969 186.808594 113.992188 186.566406 C 114.039062 186.363281 114.101562 186.167969 114.113281 185.949219 C 114.136719 185.601562 114.136719 185.238281 114.148438 184.886719 C 114.148438 184.449219 114.160156 184.027344 114.1875 183.589844 Z M 115.699219 176.476562 L 69.703125 177.25 L 69.691406 177.25 C 69.496094 177.25 69.304688 177.179688 69.132812 177.058594 C 68.929688 177.214844 68.699219 177.359375 68.480469 177.527344 L 67.441406 178.292969 C 67.367188 178.339844 67.246094 178.425781 67.113281 178.496094 C 67.015625 178.558594 66.871094 178.640625 66.796875 178.703125 C 66.386719 179.695312 66.195312 180.855469 66.046875 181.933594 C 78.015625 181.738281 90.140625 181.582031 102.144531 181.460938 C 102.542969 181.460938 102.933594 181.460938 103.320312 181.460938 C 103.222656 181.375 103.125 181.269531 103.066406 181.121094 C 102.617188 180.179688 103.1875 179.125 103.960938 178.691406 C 104.613281 178.328125 105.328125 178.316406 105.835938 178.316406 L 109.101562 178.316406 C 109.792969 178.316406 111.113281 178.304688 111.945312 179.1875 C 112.359375 179.648438 112.335938 180.167969 112.320312 180.457031 C 112.320312 180.519531 112.308594 180.566406 112.320312 180.613281 C 112.40625 180.894531 112.359375 181.171875 112.199219 181.390625 C 112.964844 181.390625 113.714844 181.375 114.453125 181.375 C 114.71875 179.707031 115.128906 178.0625 115.699219 176.476562 Z M 117.742188 161.472656 L 117.066406 161.472656 C 117.042969 161.472656 117.03125 161.472656 117.015625 161.472656 C 111.875 161.472656 106.621094 161.714844 101.539062 161.929688 C 99.96875 162.015625 98.382812 162.074219 96.808594 162.148438 C 95.417969 162.195312 93.976562 162.269531 92.632812 162.558594 C 92.417969 162.609375 92.160156 162.644531 91.90625 162.707031 C 91.207031 162.839844 90.492188 162.984375 89.921875 163.203125 C 89.136719 163.539062 88.351562 164.097656 87.5625 164.628906 C 87.226562 164.882812 86.863281 165.136719 86.523438 165.367188 C 85.289062 166.152344 84.078125 166.953125 82.84375 167.738281 C 82.433594 168.03125 82.035156 168.273438 81.632812 168.539062 C 81.839844 168.695312 82.035156 168.925781 82.203125 169.25 C 82.578125 170.003906 82.46875 170.835938 82.398438 171.382812 L 82.105469 173.597656 C 82.035156 174.03125 81.949219 174.625 81.683594 175.195312 L 110.351562 174.710938 C 112.988281 170.414062 115.46875 165.972656 117.742188 161.472656 Z M 121.398438 161.472656 L 119.824219 161.472656 C 117.585938 165.960938 115.128906 170.390625 112.539062 174.671875 L 116.292969 174.613281 C 116.351562 174.613281 116.398438 174.613281 116.449219 174.613281 C 116.519531 174.457031 116.570312 174.296875 116.640625 174.152344 C 116.714844 173.996094 116.824219 173.886719 116.957031 173.789062 C 118.578125 169.761719 120.078125 165.609375 121.398438 161.472656 Z M 124.582031 161.472656 L 123.320312 161.472656 C 123.320312 161.507812 123.320312 161.542969 123.308594 161.578125 C 121.929688 165.960938 120.355469 170.328125 118.640625 174.578125 C 119.511719 174.5625 120.371094 174.550781 121.242188 174.539062 C 122.148438 170.136719 123.25 165.753906 124.582031 161.472656 Z M 127.449219 161.472656 L 126.503906 161.472656 C 125.171875 165.730469 124.046875 170.109375 123.152344 174.492188 C 123.453125 174.492188 123.757812 174.492188 124.058594 174.480469 C 125.050781 170.125 126.191406 165.753906 127.449219 161.472656 Z M 125.984375 206.703125 L 130.097656 206.691406 C 130.085938 206.425781 130.050781 206.136719 130.039062 205.855469 C 130.027344 205.773438 130.027344 205.710938 130.011719 205.628906 C 128.742188 205.410156 127.398438 205.335938 125.984375 205.457031 Z M 130.703125 161.484375 L 129.371094 161.472656 C 129.359375 161.496094 129.371094 161.519531 129.359375 161.554688 C 128.101562 165.789062 126.976562 170.125 125.960938 174.457031 C 126.613281 174.441406 127.265625 174.429688 127.90625 174.417969 C 127.75 174.199219 127.691406 173.910156 127.761719 173.632812 C 128.898438 169.640625 129.878906 165.550781 130.703125 161.484375 Z M 262.46875 206.570312 C 262.761719 206.570312 263.050781 206.570312 263.339844 206.570312 C 263.207031 206.0625 263.074219 205.492188 263.003906 204.9375 C 262.386719 204.925781 261.742188 204.914062 261.101562 204.914062 C 260.425781 204.902344 259.734375 204.890625 259.046875 204.890625 C 258.960938 205.46875 258.949219 206.050781 259.007812 206.644531 Z M 266.246094 161.496094 C 264.164062 161.519531 262.082031 161.566406 260 161.59375 C 253.164062 161.652344 246.21875 161.640625 239.355469 161.542969 C 235.921875 161.484375 232.496094 161.421875 229.070312 161.324219 C 227.351562 161.277344 225.648438 161.21875 223.929688 161.167969 C 223.238281 161.144531 222.550781 161.082031 221.871094 161.035156 C 221.0625 160.988281 220.25 160.914062 219.425781 160.914062 C 218.300781 160.902344 217.164062 160.902344 216.039062 160.914062 C 213.800781 160.914062 211.476562 160.925781 209.203125 160.816406 C 206.9375 160.707031 204.578125 160.792969 202.304688 160.890625 C 201.289062 160.925781 200.285156 160.976562 199.277344 161 L 178.660156 161.484375 C 175.332031 161.566406 172.027344 161.605469 168.699219 161.628906 C 165.820312 161.640625 162.929688 161.652344 160.023438 161.675781 L 155.015625 161.6875 C 154.226562 161.652344 153.488281 161.628906 152.75 161.578125 C 152.050781 161.542969 151.359375 161.484375 150.644531 161.484375 L 132.578125 161.484375 C 132.578125 161.519531 132.578125 161.554688 132.578125 161.605469 C 131.730469 165.804688 130.714844 170.027344 129.542969 174.152344 C 129.515625 174.238281 129.46875 174.320312 129.421875 174.40625 C 133.148438 174.335938 136.863281 174.285156 140.503906 174.226562 C 148.417969 174.117188 156.332031 174.152344 163.980469 174.1875 C 168.265625 174.199219 172.546875 174.214844 176.867188 174.199219 C 184.324219 174.199219 191.546875 174.1875 198.78125 174.1875 L 218.082031 174.175781 C 218.917969 174.175781 219.742188 174.164062 220.5625 174.152344 L 238.136719 174.066406 L 258.777344 173.996094 C 259.457031 173.996094 260.121094 173.945312 260.789062 173.910156 C 261.574219 173.863281 262.347656 173.8125 263.148438 173.8125 L 263.714844 173.839844 C 263.691406 173.703125 263.691406 173.582031 263.714844 173.449219 C 264.671875 169.519531 265.519531 165.511719 266.246094 161.496094 Z M 267.78125 169.894531 L 269.851562 161.433594 C 269.28125 161.445312 268.703125 161.457031 268.132812 161.457031 C 267.625 164.277344 267.054688 167.085938 266.425781 169.855469 Z M 272.707031 183.578125 C 272.753906 183.105469 272.78125 182.597656 272.792969 182.089844 C 263.644531 182.234375 254.3125 182.371094 244.984375 182.417969 L 155.800781 182.902344 C 153.875 182.914062 151.929688 182.988281 150.050781 183.058594 C 147.851562 183.144531 145.585938 183.226562 143.3125 183.226562 C 138.738281 183.203125 134.164062 183.191406 129.601562 183.191406 C 125.257812 183.191406 120.78125 183.203125 116.097656 183.226562 C 116.085938 183.398438 116.050781 183.554688 116.035156 183.722656 C 116 184.125 116 184.511719 115.988281 184.910156 C 115.988281 185.285156 115.988281 185.683594 115.964844 186.070312 C 115.941406 186.398438 115.855469 186.703125 115.796875 187.027344 C 115.734375 187.199219 115.699219 187.367188 115.675781 187.535156 C 115.554688 188.527344 115.636719 189.640625 115.699219 190.730469 C 115.734375 191.289062 115.769531 191.855469 115.78125 192.390625 C 115.878906 197.167969 115.890625 201.984375 115.832031 206.726562 L 124.132812 206.714844 L 124.132812 204.609375 C 124.132812 204.152344 124.472656 203.75 124.941406 203.691406 C 127.109375 203.4375 129.179688 203.507812 131.101562 203.957031 C 131.515625 204.054688 131.804688 204.417969 131.816406 204.816406 C 131.828125 205.105469 131.851562 205.410156 131.890625 205.699219 C 131.914062 206.015625 131.9375 206.328125 131.949219 206.644531 C 131.949219 206.65625 131.949219 206.679688 131.949219 206.691406 L 133.402344 206.691406 C 144.351562 206.65625 158.8125 206.65625 173.539062 206.921875 C 181.769531 207.089844 190.058594 206.945312 198.09375 206.824219 C 202.847656 206.753906 207.617188 206.679688 212.433594 206.65625 C 217.515625 206.632812 222.597656 206.644531 227.703125 206.679688 L 232.691406 206.691406 C 236.066406 206.703125 239.429688 206.703125 242.804688 206.691406 C 243.058594 206.691406 243.328125 206.679688 243.582031 206.65625 C 244.160156 206.644531 244.777344 206.621094 245.382812 206.691406 C 245.613281 206.714844 245.820312 206.753906 246.023438 206.789062 C 246.363281 206.847656 246.667969 206.910156 246.980469 206.886719 L 257.144531 206.691406 C 257.074219 205.675781 257.15625 204.683594 257.386719 203.726562 C 257.484375 203.304688 257.894531 202.964844 258.308594 203.011719 C 259.226562 203.039062 260.183594 203.050781 261.140625 203.0625 C 262.058594 203.074219 262.988281 203.074219 263.886719 203.097656 C 264.394531 203.109375 264.792969 203.523438 264.792969 204.03125 C 264.792969 204.683594 264.976562 205.578125 265.277344 206.546875 C 265.496094 206.546875 265.710938 206.546875 265.917969 206.546875 C 268.011719 206.535156 270.164062 206.5 272.285156 206.378906 C 272.246094 205.289062 272.199219 204.1875 272.175781 203.097656 C 272.089844 199.648438 272.078125 196.164062 272.136719 192.738281 C 272.136719 192.449219 272.152344 192.148438 272.175781 191.84375 C 272.199219 191.3125 272.222656 190.78125 272.199219 190.269531 C 272.199219 190.078125 272.152344 189.921875 272.125 189.761719 C 272.078125 189.4375 272.015625 189.050781 272.054688 188.613281 C 272.125 187.730469 272.257812 186.835938 272.390625 185.964844 C 272.511719 185.175781 272.632812 184.378906 272.707031 183.578125 Z M 272.9375 161.386719 C 272.550781 161.398438 272.152344 161.398438 271.761719 161.410156 L 269.683594 169.941406 L 271.085938 169.964844 C 271.957031 167.183594 272.585938 164.289062 272.9375 161.386719 Z M 273.058594 175.761719 L 263.136719 175.664062 C 262.386719 175.652344 261.636719 175.714844 260.898438 175.75 C 260.195312 175.785156 259.503906 175.847656 258.792969 175.847656 L 220.578125 176.003906 C 219.753906 176.015625 218.917969 176.027344 218.082031 176.027344 L 198.796875 176.039062 C 191.558594 176.039062 184.335938 176.050781 176.867188 176.066406 C 172.546875 176.050781 168.265625 176.050781 163.980469 176.027344 C 156.332031 176.003906 148.429688 175.980469 140.542969 176.078125 C 133.039062 176.1875 125.28125 176.320312 117.695312 176.441406 C 117.089844 178.023438 116.617188 179.683594 116.339844 181.363281 C 121.167969 181.339844 125.789062 181.316406 130.28125 181.339844 C 134.625 181.339844 138.96875 181.351562 143.3125 181.375 C 145.5625 181.390625 147.800781 181.292969 149.96875 181.207031 C 151.878906 181.136719 153.828125 181.050781 155.800781 181.039062 L 244.984375 180.566406 C 254.3125 180.519531 263.65625 180.382812 272.816406 180.238281 C 272.816406 180.226562 272.828125 180.203125 272.828125 180.167969 C 272.828125 178.714844 272.851562 177.203125 273.058594 175.761719 Z M 273.398438 173.910156 L 273.832031 171.890625 L 268.507812 171.769531 L 268.496094 171.769531 L 266.003906 171.707031 C 265.847656 172.421875 265.699219 173.148438 265.53125 173.851562 Z M 274.21875 170.050781 L 276.070312 161.351562 C 275.648438 161.351562 275.234375 161.351562 274.8125 161.363281 C 274.460938 164.289062 273.84375 167.195312 272.996094 170.027344 Z M 280.632812 161.335938 C 280.5625 161.335938 280.476562 161.335938 280.402344 161.335938 C 279.59375 161.324219 278.769531 161.335938 277.957031 161.335938 L 275.296875 173.933594 L 278.117188 173.960938 C 278.128906 173.898438 278.140625 173.851562 278.164062 173.789062 C 278.226562 173.621094 278.285156 173.464844 278.320312 173.292969 C 279.3125 169.371094 280.078125 165.355469 280.632812 161.335938 Z M 292.988281 174.296875 L 316.972656 174.238281 C 316.101562 172.773438 314.914062 171.492188 313.703125 170.328125 C 310.886719 167.570312 307.75 165.066406 304.726562 162.609375 C 303.804688 161.882812 302.101562 161.820312 300.960938 161.761719 C 294.839844 161.519531 288.644531 161.398438 282.507812 161.351562 C 281.953125 165.523438 281.152344 169.6875 280.125 173.753906 C 280.101562 173.839844 280.066406 173.898438 280.039062 173.984375 C 280.695312 173.996094 281.347656 173.996094 281.988281 173.996094 L 286.1875 174.042969 C 286.40625 174.042969 286.625 174.03125 286.828125 174.03125 C 287.421875 174.019531 288.097656 173.996094 288.742188 174.140625 C 289.757812 174.359375 290.835938 174.335938 291.984375 174.308594 C 292.3125 174.308594 292.648438 174.296875 292.988281 174.296875 Z M 314.09375 179.671875 C 315.628906 179.660156 317.152344 179.660156 318.703125 179.648438 C 318.53125 178.472656 318.277344 177.300781 317.890625 176.199219 C 317.769531 176.1875 317.648438 176.160156 317.554688 176.136719 C 317.445312 176.113281 317.371094 176.101562 317.285156 176.101562 L 293 176.148438 C 292.660156 176.148438 292.335938 176.160156 292.019531 176.160156 C 290.820312 176.1875 289.585938 176.210938 288.355469 175.957031 C 287.929688 175.859375 287.421875 175.871094 286.890625 175.882812 C 286.648438 175.882812 286.417969 175.894531 286.199219 175.894531 L 281.964844 175.847656 C 280.851562 175.835938 279.738281 175.808594 278.625 175.808594 L 274.921875 175.785156 C 274.691406 177.179688 274.679688 178.703125 274.679688 180.179688 C 274.679688 180.179688 274.679688 180.203125 274.679688 180.214844 C 277.074219 180.167969 279.484375 180.128906 281.855469 180.09375 C 292.3125 179.914062 302.960938 179.753906 313.703125 179.671875 C 313.292969 179.574219 313.015625 179.234375 312.992188 178.835938 C 312.871094 178.8125 312.699219 178.8125 312.554688 178.800781 L 308.015625 178.679688 C 307.679688 178.667969 307.339844 178.652344 307.085938 178.726562 C 306.964844 178.773438 306.890625 178.847656 306.878906 178.882812 C 306.785156 179.390625 306.324219 179.71875 305.804688 179.648438 C 305.308594 179.550781 304.96875 179.066406 305.054688 178.570312 C 305.171875 177.855469 305.730469 177.25 306.492188 176.984375 C 307.050781 176.777344 307.605469 176.804688 308.066406 176.804688 L 312.605469 176.960938 C 312.953125 176.960938 313.425781 176.972656 313.886719 177.203125 C 314.578125 177.539062 314.964844 178.265625 314.816406 178.957031 C 314.757812 179.332031 314.441406 179.597656 314.09375 179.671875 Z M 319.03125 182.707031 C 318.992188 182.308594 318.957031 181.910156 318.921875 181.496094 C 306.421875 181.558594 294.015625 181.738281 281.878906 181.945312 C 279.484375 181.980469 277.074219 182.019531 274.65625 182.066406 C 274.632812 182.648438 274.605469 183.214844 274.558594 183.773438 C 274.472656 184.582031 274.351562 185.40625 274.230469 186.230469 C 274.097656 187.078125 273.988281 187.921875 273.90625 188.78125 C 273.882812 188.976562 273.917969 189.207031 273.953125 189.460938 C 274 189.691406 274.039062 189.921875 274.050781 190.175781 C 274.074219 190.753906 274.050781 191.335938 274.027344 191.929688 C 274.015625 192.207031 274 192.496094 274 192.777344 C 273.929688 196.175781 273.941406 199.636719 274.027344 203.050781 C 274.050781 204.140625 274.085938 205.226562 274.148438 206.316406 C 276.167969 206.230469 278.226562 206.21875 280.222656 206.257812 C 281.058594 206.269531 281.929688 206.269531 282.761719 206.269531 L 305.429688 206.304688 C 305.765625 201.632812 306.636719 197.699219 308.078125 194.277344 C 309.976562 189.800781 312.882812 186.242188 316.488281 184.003906 C 317.273438 183.519531 318.132812 183.082031 319.03125 182.707031 Z M 322.925781 181.472656 C 322.199219 181.472656 321.496094 181.472656 320.785156 181.496094 C 320.796875 181.667969 320.808594 181.847656 320.832031 182.03125 C 321.496094 181.8125 322.199219 181.644531 322.925781 181.472656 Z M 336.226562 179.671875 L 335.898438 176.777344 C 335.875 176.5625 335.800781 176.027344 335.644531 175.90625 C 335.523438 175.808594 335.148438 175.796875 334.917969 175.796875 L 327.910156 175.59375 C 327.707031 176.921875 327.609375 178.265625 327.632812 179.609375 C 330.488281 179.609375 333.355469 179.648438 336.226562 179.671875 Z M 343.316406 207.261719 C 343.523438 206.292969 343.605469 205.675781 343.507812 204.972656 C 343.460938 204.707031 343.449219 204.441406 343.4375 204.164062 C 343.4375 203.761719 343.449219 203.363281 343.472656 202.953125 C 343.523438 202.457031 343.546875 202.019531 343.472656 201.65625 C 343.21875 200.300781 342.820312 199.019531 342.289062 197.859375 C 341.160156 195.390625 339.429688 193.273438 337.277344 191.734375 C 332.605469 189.132812 331.25 189.097656 329.0625 189.050781 C 328.566406 189.035156 328.070312 189.023438 327.476562 188.976562 C 327.390625 188.976562 327.269531 188.976562 327.171875 188.976562 C 325.042969 189.144531 322.9375 189.761719 321.109375 190.765625 C 318.519531 192.195312 316.34375 194.433594 314.953125 197.097656 C 314.25 198.4375 313.753906 199.867188 313.488281 201.34375 C 313.304688 202.214844 313.183594 202.953125 313.28125 203.523438 C 313.328125 203.714844 313.367188 203.871094 313.402344 204.042969 C 313.582031 204.839844 313.8125 205.808594 313.523438 207.117188 C 314.214844 210.746094 316.34375 214.097656 319.390625 216.359375 C 320.15625 216.929688 320.929688 217.390625 321.703125 217.753906 C 322.164062 217.957031 322.660156 218.089844 323.253906 218.25 C 323.6875 218.355469 324.113281 218.476562 324.535156 218.625 C 325.550781 218.960938 326.6875 219.023438 327.851562 219.058594 C 328.671875 219.070312 329.546875 218.9375 330.488281 218.792969 C 330.792969 218.746094 331.09375 218.695312 331.410156 218.648438 C 331.785156 218.597656 332.132812 218.574219 332.472656 218.527344 C 333.101562 218.476562 333.574219 218.441406 334.082031 218.234375 C 336.1875 217.390625 338.101562 216.082031 339.613281 214.449219 C 341.488281 212.414062 342.769531 209.933594 343.316406 207.261719 Z M 350.78125 208.324219 C 350.78125 208.277344 350.78125 208.230469 350.78125 208.179688 C 350.757812 206.691406 350.734375 205.15625 350.550781 203.777344 C 350.128906 200.074219 349.65625 196.238281 347.890625 192.945312 C 346.765625 190.851562 345.070312 188.914062 342.832031 187.183594 C 342.273438 186.75 341.765625 186.3125 341.296875 185.890625 C 339.941406 184.679688 338.863281 183.738281 337.132812 183.433594 C 333.03125 182.730469 329.882812 182.527344 326.957031 182.730469 C 323.277344 182.988281 320.082031 183.953125 317.46875 185.589844 C 313.328125 188.164062 311.007812 192.132812 309.785156 195.003906 C 308.332031 198.425781 307.496094 202.457031 307.21875 207.285156 C 307.195312 207.769531 306.785156 208.15625 306.300781 208.15625 L 282.761719 208.121094 C 281.914062 208.121094 281.042969 208.121094 280.183594 208.109375 C 277.933594 208.082031 275.636719 208.058594 273.386719 208.191406 C 273.347656 208.191406 273.324219 208.230469 273.277344 208.230469 C 273.265625 208.230469 273.25 208.230469 273.238281 208.230469 C 273.203125 208.230469 273.179688 208.203125 273.144531 208.203125 C 273.058594 208.203125 272.960938 208.203125 272.886719 208.203125 C 270.566406 208.363281 268.21875 208.386719 265.941406 208.398438 C 264.78125 208.398438 263.644531 208.410156 262.519531 208.421875 L 247.015625 208.738281 C 246.507812 208.738281 246.121094 208.6875 245.722656 208.617188 C 245.554688 208.578125 245.359375 208.554688 245.175781 208.53125 C 244.707031 208.472656 244.183594 208.496094 243.640625 208.519531 C 243.363281 208.53125 243.085938 208.542969 242.816406 208.542969 C 239.429688 208.554688 236.066406 208.554688 232.664062 208.542969 L 227.679688 208.53125 C 222.597656 208.496094 217.515625 208.484375 212.445312 208.519531 C 207.640625 208.53125 202.871094 208.605469 198.128906 208.675781 C 190.070312 208.808594 181.769531 208.929688 173.515625 208.773438 C 158.800781 208.519531 144.351562 208.519531 133.414062 208.542969 L 96.6875 208.628906 C 96.457031 208.628906 96.226562 208.652344 95.984375 208.664062 C 95.355469 208.675781 94.714844 208.699219 94.074219 208.59375 C 93.480469 208.496094 93.035156 208.445312 92.441406 208.457031 C 90.757812 208.519531 89.078125 208.566406 87.394531 208.617188 C 84.019531 208.726562 80.628906 208.785156 77.242188 208.859375 C 74.214844 208.90625 71.105469 208.96875 67.765625 209.003906 C 64.449219 209.039062 60.90625 209.074219 57.03125 209.101562 C 56.550781 209.101562 56.136719 208.710938 56.113281 208.230469 L 55.90625 204.851562 C 55.871094 204.246094 55.761719 203.75 55.617188 203.171875 C 55.558594 202.917969 55.484375 202.664062 55.4375 202.394531 C 55.023438 200.519531 54.515625 198.332031 53.777344 196.238281 C 52.773438 193.34375 51.441406 190.984375 49.820312 189.195312 C 48.113281 187.304688 45.972656 185.976562 43.636719 185.371094 C 41.132812 184.703125 38.105469 184.050781 34.886719 184.101562 C 31.828125 184.136719 28.824219 184.644531 25.96875 185.601562 C 23.417969 186.445312 21.542969 187.511719 20.199219 188.867188 C 18.214844 190.875 17.222656 193.742188 16.578125 196.03125 C 15.238281 200.8125 14.65625 205.75 14.800781 210.699219 C 15.394531 210.660156 16 210.601562 16.617188 210.578125 C 16.265625 209.546875 15.960938 208.484375 15.792969 207.40625 C 15.746094 207.101562 15.769531 206.777344 15.878906 206.472656 C 16.023438 206.003906 15.976562 205.75 15.804688 205.035156 C 15.757812 204.816406 15.707031 204.597656 15.660156 204.367188 C 15.394531 203.050781 15.625 201.828125 15.839844 200.761719 C 16.203125 198.828125 16.835938 197.023438 17.71875 195.339844 C 19.449219 192 22.207031 189.167969 25.460938 187.378906 C 27.796875 186.097656 30.460938 185.308594 33.15625 185.105469 C 33.425781 185.09375 33.714844 185.09375 33.992188 185.105469 C 34.527344 185.140625 34.984375 185.140625 35.421875 185.152344 C 38.242188 185.226562 40.238281 185.417969 45.5625 188.394531 C 45.621094 188.433594 45.683594 188.46875 45.742188 188.503906 C 48.515625 190.453125 50.753906 193.152344 52.167969 196.296875 C 52.835938 197.75 53.332031 199.335938 53.65625 200.992188 C 53.8125 201.851562 53.753906 202.613281 53.71875 203.304688 C 53.707031 203.535156 53.691406 203.761719 53.691406 203.992188 C 53.691406 204.054688 53.691406 204.101562 53.691406 204.164062 C 53.691406 204.285156 53.691406 204.378906 53.707031 204.488281 C 53.910156 205.90625 53.707031 207.066406 53.488281 208.15625 C 53.4375 208.335938 53.390625 208.53125 53.34375 208.699219 C 53.828125 209.535156 54.261719 210.382812 54.625 211.265625 C 61.4375 211.316406 68.261719 211.375 75.074219 211.410156 C 82.359375 211.460938 89.644531 211.519531 96.90625 211.582031 C 105.472656 211.652344 114.355469 211.59375 122.957031 211.542969 C 128.1875 211.519531 133.390625 211.496094 138.519531 211.496094 C 145.492188 211.496094 152.59375 211.351562 159.453125 211.21875 L 165.613281 211.109375 C 173.6875 210.964844 181.890625 210.878906 189.816406 210.820312 L 192.851562 210.792969 C 197.453125 210.734375 202.039062 210.722656 206.636719 210.722656 C 208.921875 210.734375 211.222656 210.734375 213.507812 210.769531 C 213.738281 210.746094 213.980469 210.746094 214.199219 210.746094 C 215.046875 210.722656 216.003906 210.710938 216.957031 210.953125 C 217.636719 211.109375 218.132812 211.207031 218.75 211.207031 L 255.402344 211.207031 C 263.546875 211.207031 271.496094 211.195312 279.472656 211.167969 C 285.449219 211.15625 291.4375 211.144531 297.527344 211.144531 C 300.480469 211.144531 303.417969 211.035156 306.285156 210.9375 C 307.667969 210.878906 309.046875 210.84375 310.449219 210.804688 C 310.027344 209.679688 309.710938 208.519531 309.519531 207.320312 C 309.46875 207.007812 309.492188 206.691406 309.601562 206.402344 C 309.746094 205.917969 309.710938 205.664062 309.542969 204.949219 C 309.480469 204.742188 309.433594 204.515625 309.398438 204.296875 C 309.128906 202.964844 309.359375 201.753906 309.566406 200.679688 C 309.917969 198.753906 310.558594 196.949219 311.429688 195.257812 C 313.183594 191.917969 315.945312 189.085938 319.199219 187.304688 C 321.523438 186.011719 324.183594 185.226562 326.882812 185.03125 C 327.160156 185.019531 327.4375 185.019531 327.730469 185.03125 C 328.238281 185.054688 328.699219 185.066406 329.144531 185.078125 C 331.964844 185.140625 333.960938 185.332031 339.296875 188.324219 C 339.347656 188.347656 339.417969 188.382812 339.46875 188.433594 C 342.25 190.367188 344.488281 193.066406 345.90625 196.226562 C 346.558594 197.664062 347.054688 199.25 347.371094 200.90625 C 347.539062 201.765625 347.492188 202.527344 347.441406 203.21875 C 347.429688 203.496094 347.40625 203.789062 347.40625 204.078125 C 347.429688 204.199219 347.429688 204.308594 347.441406 204.417969 C 347.636719 205.832031 347.441406 206.996094 347.210938 208.082031 C 347.199219 208.15625 347.175781 208.242188 347.152344 208.324219 Z M 358.683594 174.710938 C 358.175781 174.347656 357.65625 174.03125 357.136719 173.777344 C 356.382812 173.4375 355.1875 173.4375 354.039062 173.464844 C 353.625 173.464844 353.203125 173.476562 352.828125 173.464844 C 350.613281 173.414062 348.398438 173.367188 346.207031 173.328125 L 341.101562 173.28125 L 340.90625 173.292969 C 340.011719 173.367188 339.070312 173.4375 338.304688 172.773438 C 333.597656 168.648438 327.695312 165.390625 320.277344 162.8125 C 316.804688 161.617188 312.964844 160.550781 308.175781 159.4375 C 307.265625 159.21875 306.335938 159.039062 305.402344 158.84375 C 304.253906 158.601562 303.09375 158.347656 301.941406 158.070312 C 301.191406 157.902344 300.515625 157.609375 299.933594 157.34375 C 299.402344 157.113281 298.917969 156.910156 298.46875 156.8125 C 297.234375 156.582031 295.746094 156.628906 294.320312 156.667969 C 293.664062 156.691406 293.0625 156.703125 292.417969 156.703125 C 290.121094 156.703125 287.832031 156.691406 285.558594 156.691406 L 284.128906 156.691406 C 280.027344 156.691406 275.925781 156.679688 271.824219 156.65625 L 271.449219 156.65625 C 262.710938 156.59375 253.707031 156.523438 244.816406 156.535156 C 230.972656 156.570312 217.007812 156.328125 203.476562 156.097656 C 199.183594 156.027344 194.863281 155.953125 190.542969 155.890625 C 181.769531 155.757812 172.875 156.121094 164.257812 156.496094 C 157.242188 156.800781 149.96875 157.101562 142.769531 157.152344 L 100.367188 157.332031 C 97.824219 157.34375 95.1875 157.355469 92.683594 157.890625 C 91.628906 158.105469 90.371094 158.359375 89.695312 158.84375 C 88.554688 159.621094 87.40625 160.320312 86.4375 160.890625 C 82.6875 163.117188 78.996094 165.441406 75.460938 167.789062 C 73.683594 168.972656 71.894531 170.207031 70.125 171.453125 C 69.242188 172.070312 68.371094 172.699219 67.488281 173.34375 L 66.011719 174.46875 C 65.480469 174.9375 64.8125 175.542969 63.917969 175.59375 L 45.042969 176.707031 C 38.953125 177.070312 32.660156 177.445312 26.613281 178.519531 C 21.203125 179.476562 14.8125 181.847656 9.417969 184.898438 C 8.824219 186.109375 8.316406 187.367188 7.878906 188.648438 C 8.265625 188.722656 8.640625 188.832031 8.980469 188.953125 C 9.550781 189.144531 10.070312 189.316406 10.445312 189.195312 C 10.746094 189.121094 11.0625 188.832031 11.375 188.382812 C 11.496094 188.214844 11.605469 188.03125 11.714844 187.839844 C 11.945312 187.488281 12.1875 187.101562 12.488281 186.75 C 13.652344 185.40625 15.453125 184.910156 16.761719 184.535156 C 17.546875 184.328125 18.394531 184.074219 19.351562 184.136719 C 20.367188 184.21875 21.25 184.691406 21.769531 185.40625 C 22.824219 184.8125 24.023438 184.292969 25.390625 183.832031 C 28.414062 182.816406 31.609375 182.285156 34.875 182.25 C 38.3125 182.222656 41.484375 182.902344 44.097656 183.566406 C 44.75 183.738281 45.367188 183.953125 45.972656 184.207031 C 46.046875 183.664062 46.203125 183.132812 46.480469 182.671875 C 46.652344 182.394531 46.941406 182.222656 47.269531 182.222656 L 53.148438 182.128906 C 56.792969 182.066406 60.480469 182.007812 64.171875 181.957031 C 64.355469 180.652344 64.570312 179.175781 65.140625 177.84375 C 65.335938 177.40625 65.769531 177.140625 66.15625 176.910156 C 66.242188 176.863281 66.300781 176.828125 66.339844 176.789062 L 67.402344 176.027344 C 68.070312 175.542969 68.769531 175.046875 69.449219 174.5625 C 70.816406 173.609375 72.171875 172.652344 73.550781 171.707031 C 75.996094 170.039062 78.621094 168.285156 81.839844 166.191406 C 83.050781 165.390625 84.285156 164.59375 85.519531 163.804688 C 85.832031 163.589844 86.160156 163.371094 86.511719 163.128906 C 87.359375 162.511719 88.242188 161.894531 89.222656 161.496094 C 89.960938 161.191406 90.808594 161.035156 91.558594 160.878906 C 91.785156 160.839844 92.027344 160.792969 92.246094 160.746094 C 93.746094 160.417969 95.273438 160.34375 96.722656 160.296875 C 98.296875 160.222656 99.882812 160.164062 101.46875 160.078125 C 106.550781 159.863281 111.839844 159.621094 117.015625 159.621094 C 117.03125 159.621094 117.042969 159.621094 117.066406 159.621094 L 150.644531 159.632812 C 151.394531 159.632812 152.121094 159.691406 152.871094 159.726562 C 153.574219 159.777344 154.25 159.835938 154.964844 159.835938 C 154.988281 159.835938 155 159.835938 155.015625 159.835938 L 160.023438 159.824219 C 162.914062 159.800781 165.808594 159.789062 168.699219 159.777344 C 172.003906 159.753906 175.296875 159.714844 178.597656 159.632812 L 199.230469 159.148438 C 200.222656 159.125 201.214844 159.074219 202.21875 159.039062 C 204.542969 158.941406 206.949219 158.855469 209.285156 158.964844 C 211.523438 159.074219 213.8125 159.0625 216.039062 159.050781 C 217.175781 159.050781 218.300781 159.050781 219.4375 159.050781 C 220.308594 159.0625 221.15625 159.136719 222.003906 159.195312 C 222.671875 159.230469 223.3125 159.292969 223.988281 159.316406 C 225.695312 159.367188 227.402344 159.425781 229.121094 159.472656 C 232.542969 159.570312 235.96875 159.632812 239.394531 159.691406 C 246.230469 159.789062 253.164062 159.800781 259.976562 159.742188 C 262.566406 159.714844 265.144531 159.65625 267.710938 159.621094 C 271.882812 159.535156 276.167969 159.488281 280.402344 159.488281 C 287.242188 159.488281 294.1875 159.644531 301.046875 159.921875 C 302.789062 159.996094 304.605469 160.152344 305.875 161.167969 C 308.949219 163.636719 312.121094 166.179688 315 168.984375 C 316.441406 170.390625 317.902344 171.9375 318.910156 173.863281 C 319.863281 175.691406 320.3125 177.6875 320.578125 179.648438 C 322.308594 179.632812 324.027344 179.609375 325.769531 179.609375 C 325.757812 178.132812 325.867188 176.644531 326.109375 175.179688 C 326.144531 174.9375 326.230469 174.382812 326.714844 174.03125 C 327.136719 173.730469 327.597656 173.742188 327.828125 173.742188 L 334.964844 173.945312 C 335.460938 173.960938 336.1875 173.984375 336.78125 174.457031 C 337.554688 175.046875 337.664062 176.039062 337.738281 176.574219 L 338.101562 179.683594 C 339.550781 179.695312 341.003906 179.695312 342.480469 179.707031 C 347.394531 179.78125 352.050781 179.839844 357.085938 179.550781 C 357 179.296875 356.941406 179.03125 356.84375 178.800781 C 356.773438 178.582031 356.785156 178.339844 356.867188 178.132812 C 357.390625 176.9375 358.007812 175.796875 358.683594 174.710938 Z M 359.363281 188.46875 C 358.828125 185.84375 358.261719 183.484375 357.632812 181.351562 C 357.59375 181.363281 357.558594 181.375 357.523438 181.390625 C 352.292969 181.691406 347.515625 181.644531 342.445312 181.558594 C 341.078125 181.546875 339.683594 181.546875 338.304688 181.535156 L 338.332031 181.824219 C 340.074219 182.34375 341.269531 183.386719 342.515625 184.5 C 342.976562 184.898438 343.449219 185.320312 343.96875 185.722656 C 345.324219 186.773438 346.484375 187.898438 347.476562 189.085938 C 347.515625 189.074219 347.550781 189.050781 347.613281 189.050781 C 351.507812 188.757812 355.441406 188.566406 359.363281 188.46875 Z M 365.582031 188.394531 L 363.441406 182.296875 C 362.796875 180.503906 362.132812 178.640625 361.117188 177.128906 C 360.886719 176.777344 360.644531 176.464844 360.378906 176.171875 C 360.304688 176.078125 360.195312 176.003906 360.113281 175.90625 C 359.589844 176.765625 359.121094 177.636719 358.71875 178.546875 C 359.652344 181.402344 360.488281 184.65625 361.238281 188.433594 C 362.6875 188.394531 364.128906 188.394531 365.582031 188.394531 Z M 369.164062 193.308594 C 369.042969 192.800781 368.921875 192.269531 368.765625 191.757812 C 368.449219 191.492188 368.121094 191.214844 367.785156 190.9375 C 367.492188 190.707031 367.203125 190.464844 366.9375 190.257812 C 365.171875 190.246094 363.402344 190.246094 361.636719 190.269531 C 361.722656 190.609375 361.804688 190.949219 361.9375 191.277344 C 362.121094 191.757812 362.484375 192.4375 363.0625 192.847656 C 363.898438 193.429688 365.121094 193.429688 366.199219 193.367188 L 366.644531 193.320312 C 367.480469 193.261719 368.316406 193.210938 369.164062 193.308594 Z M 369.648438 202.117188 C 369.960938 199.855469 369.902344 197.542969 369.550781 195.269531 C 368.714844 195.039062 367.785156 195.097656 366.792969 195.171875 L 366.320312 195.195312 C 364.914062 195.292969 363.304688 195.28125 361.988281 194.359375 C 361.238281 193.828125 360.609375 192.992188 360.207031 191.941406 C 359.992188 191.410156 359.859375 190.851562 359.738281 190.308594 C 356.082031 190.402344 352.414062 190.574219 348.761719 190.839844 C 349.027344 191.25 349.28125 191.636719 349.523438 192.0625 C 351.460938 195.667969 351.957031 199.855469 352.390625 203.570312 C 352.585938 205.023438 352.609375 206.605469 352.632812 208.144531 C 352.632812 208.203125 352.632812 208.265625 352.632812 208.324219 L 361.417969 208.324219 C 362.605469 208.324219 363.800781 208.324219 364.78125 207.988281 C 365.472656 207.746094 366.1875 207.285156 366.78125 206.863281 C 367.554688 206.316406 368.316406 205.722656 368.789062 205.011719 C 369.320312 204.1875 369.515625 203.085938 369.648438 202.117188 Z M 372.347656 189.894531 C 373.726562 193.984375 374.160156 198.402344 373.582031 202.664062 C 373.410156 203.980469 373.082031 205.664062 372.128906 207.152344 C 371.28125 208.445312 370.105469 209.378906 369.054688 210.117188 C 368.230469 210.683594 367.238281 211.339844 366.078125 211.738281 C 364.46875 212.292969 362.847656 212.292969 361.417969 212.292969 L 346.160156 212.292969 C 346.027344 212.292969 345.917969 212.28125 345.796875 212.257812 C 344.960938 214.039062 343.871094 215.683594 342.527344 217.121094 C 340.617188 219.203125 338.210938 220.863281 335.570312 221.914062 C 334.496094 222.339844 333.597656 222.421875 332.8125 222.484375 C 332.535156 222.507812 332.253906 222.542969 331.964844 222.582031 C 331.675781 222.617188 331.382812 222.675781 331.105469 222.714844 C 330.125 222.871094 329.109375 223.027344 328.042969 223.027344 C 327.949219 223.027344 327.839844 223.027344 327.742188 223.015625 C 326.3125 222.980469 324.800781 222.894531 323.277344 222.386719 C 322.925781 222.265625 322.574219 222.179688 322.25 222.085938 C 321.570312 221.902344 320.796875 221.710938 320.035156 221.347656 C 319.015625 220.875 318.011719 220.28125 317.03125 219.542969 C 315.230469 218.210938 313.691406 216.578125 312.46875 214.714844 C 310.4375 214.761719 308.429688 214.824219 306.433594 214.910156 C 303.527344 215.015625 300.539062 215.113281 297.539062 215.113281 C 291.4375 215.113281 285.449219 215.125 279.484375 215.136719 C 271.496094 215.152344 263.546875 215.175781 255.402344 215.175781 L 218.75 215.175781 C 217.734375 215.175781 216.921875 215.03125 216.015625 214.800781 C 215.566406 214.679688 214.9375 214.703125 214.296875 214.714844 C 214.03125 214.714844 213.75 214.726562 213.484375 214.726562 C 211.199219 214.703125 208.910156 214.703125 206.625 214.691406 C 202.039062 214.691406 197.476562 214.703125 192.902344 214.761719 L 189.851562 214.789062 C 181.925781 214.847656 173.734375 214.933594 165.675781 215.078125 L 159.527344 215.1875 C 152.640625 215.320312 145.539062 215.464844 138.519531 215.464844 C 133.402344 215.464844 128.210938 215.488281 122.984375 215.511719 C 117.429688 215.550781 111.753906 215.585938 106.136719 215.585938 C 103.027344 215.585938 99.941406 215.5625 96.882812 215.550781 C 89.621094 215.488281 82.324219 215.441406 75.050781 215.378906 C 67.765625 215.332031 60.492188 215.285156 53.222656 215.222656 C 52.363281 215.222656 51.613281 214.679688 51.347656 213.867188 C 51.332031 213.832031 51.320312 213.808594 51.320312 213.78125 C 50.609375 215.015625 49.773438 216.167969 48.792969 217.21875 C 46.894531 219.289062 44.484375 220.933594 41.835938 222.011719 C 40.757812 222.433594 39.875 222.496094 39.085938 222.582031 C 38.820312 222.59375 38.542969 222.617188 38.242188 222.652344 C 37.949219 222.703125 37.648438 222.75 37.371094 222.796875 C 36.390625 222.957031 35.371094 223.113281 34.308594 223.113281 C 34.210938 223.113281 34.113281 223.113281 34.015625 223.113281 C 32.589844 223.066406 31.078125 222.980469 29.539062 222.460938 C 29.199219 222.351562 28.863281 222.265625 28.511719 222.167969 C 27.832031 222 27.070312 221.78125 26.296875 221.429688 C 25.28125 220.957031 24.277344 220.355469 23.296875 219.628906 C 21.371094 218.210938 19.75 216.433594 18.492188 214.449219 C 18.359375 214.472656 18.214844 214.496094 18.066406 214.496094 C 17.027344 214.496094 15.960938 214.582031 14.824219 214.679688 C 13.589844 214.789062 12.34375 214.894531 11.074219 214.894531 C 9.816406 214.894531 8.542969 214.789062 7.261719 214.472656 C 6.234375 214.21875 5.460938 213.648438 4.828125 213.117188 C 4.5625 212.898438 4.347656 212.597656 4.226562 212.269531 C 0.8125 202.722656 1.527344 191.601562 6.136719 182.5625 C 6.304688 182.222656 6.585938 181.945312 6.910156 181.738281 C 12.878906 178.292969 19.8125 175.703125 25.921875 174.613281 C 32.191406 173.5 38.601562 173.113281 44.8125 172.75 L 63.191406 171.660156 C 63.242188 171.613281 63.300781 171.5625 63.335938 171.527344 C 63.507812 171.371094 63.675781 171.238281 63.773438 171.164062 L 65.152344 170.136719 C 66.035156 169.492188 66.933594 168.851562 67.839844 168.222656 C 69.617188 166.953125 71.445312 165.695312 73.261719 164.496094 C 76.855469 162.101562 80.59375 159.742188 84.417969 157.476562 C 85.324219 156.933594 86.402344 156.28125 87.429688 155.578125 C 88.773438 154.644531 90.46875 154.28125 91.824219 154.015625 C 94.765625 153.386719 97.726562 153.375 100.355469 153.363281 L 142.753906 153.167969 C 149.882812 153.132812 157.09375 152.832031 164.089844 152.527344 C 172.753906 152.152344 181.707031 151.789062 190.589844 151.921875 C 194.921875 151.984375 199.253906 152.054688 203.550781 152.128906 C 217.042969 152.359375 231.007812 152.589844 244.816406 152.566406 C 253.707031 152.550781 262.734375 152.625 271.472656 152.6875 L 271.859375 152.6875 C 275.960938 152.710938 280.039062 152.722656 284.140625 152.722656 L 285.558594 152.722656 C 287.84375 152.722656 290.144531 152.734375 292.429688 152.734375 C 293.011719 152.734375 293.59375 152.722656 294.1875 152.699219 C 295.84375 152.648438 297.550781 152.589844 299.230469 152.929688 C 300.105469 153.097656 300.855469 153.410156 301.519531 153.703125 C 302.003906 153.921875 302.4375 154.113281 302.875 154.210938 C 303.976562 154.488281 305.101562 154.71875 306.226562 154.949219 C 307.183594 155.140625 308.125 155.347656 309.082031 155.578125 C 313.996094 156.703125 317.964844 157.816406 321.570312 159.0625 C 329.230469 161.726562 335.414062 165.089844 340.421875 169.347656 C 340.472656 169.347656 340.542969 169.347656 340.59375 169.335938 C 340.835938 169.324219 341.003906 169.324219 341.136719 169.3125 L 346.257812 169.359375 C 348.484375 169.398438 350.699219 169.433594 352.925781 169.492188 C 353.273438 169.507812 353.625 169.492188 354 169.492188 C 355.511719 169.46875 357.242188 169.445312 358.828125 170.195312 C 360.460938 170.957031 362.132812 172.203125 363.320312 173.511719 C 363.707031 173.933594 364.070312 174.417969 364.417969 174.902344 C 365.714844 176.851562 366.488281 179.042969 367.167969 180.976562 L 369.320312 187.078125 C 369.648438 187.34375 370 187.621094 370.335938 187.898438 C 370.785156 188.285156 371.21875 188.648438 371.59375 188.902344 C 371.945312 189.15625 372.210938 189.496094 372.347656 189.894531 " fill-opacity="1" fill-rule="nonzero"/></g><path fill="#000000" d="M 360.609375 204.660156 L 357.933594 204.550781 C 357.777344 204.527344 357.632812 204.527344 357.460938 204.527344 C 357.207031 204.527344 356.964844 204.5625 356.832031 204.660156 C 356.722656 204.753906 356.785156 204.996094 356.855469 205.132812 C 356.953125 205.300781 357.109375 205.445312 357.980469 205.457031 C 358.636719 205.457031 359.300781 205.433594 359.859375 205.203125 C 360.183594 205.082031 360.449219 204.890625 360.609375 204.660156 Z M 361.1875 204.683594 L 361.152344 203.761719 L 361.117188 204.671875 C 361.152344 204.683594 361.1875 204.683594 361.1875 204.683594 Z M 361.925781 203.011719 C 362.472656 203.316406 362.726562 203.957031 362.582031 204.671875 C 362.386719 205.664062 361.625 206.5 360.546875 206.945312 C 359.6875 207.273438 358.78125 207.308594 357.996094 207.308594 C 357.957031 207.308594 357.898438 207.308594 357.859375 207.308594 C 357.21875 207.308594 355.863281 207.222656 355.210938 205.988281 C 354.703125 205.023438 354.871094 203.921875 355.621094 203.265625 C 356.382812 202.601562 357.339844 202.648438 358.03125 202.6875 L 361.199219 202.84375 L 361.214844 202.84375 C 361.371094 202.84375 361.648438 202.855469 361.925781 203.011719 " fill-opacity="1" fill-rule="nonzero"/><path fill="#000000" d="M 323.980469 202.941406 C 324.039062 202.699219 324.125 202.480469 324.207031 202.25 L 318.8125 198.8125 C 318.773438 198.875 318.726562 198.949219 318.679688 199.019531 C 317.953125 200.421875 317.515625 201.972656 317.445312 203.523438 C 317.445312 203.523438 317.445312 203.523438 317.445312 203.535156 C 319.609375 203.265625 321.789062 203.085938 323.980469 202.941406 Z M 324.21875 205.917969 C 324.207031 205.882812 324.183594 205.84375 324.171875 205.796875 C 324.050781 205.507812 323.941406 205.179688 323.90625 204.792969 C 321.847656 204.9375 319.765625 205.132812 317.722656 205.359375 C 317.722656 205.46875 317.734375 205.566406 317.722656 205.664062 C 317.601562 206.789062 318.0625 207.855469 318.59375 209.074219 C 318.738281 209.402344 318.882812 209.730469 319.015625 210.054688 C 319.066406 210.117188 319.125 210.203125 319.175781 210.25 C 320.773438 209.257812 322.152344 207.925781 323.601562 206.523438 C 323.808594 206.316406 324.015625 206.125 324.21875 205.917969 Z M 326.351562 208.179688 C 326.351562 208.167969 326.363281 208.15625 326.363281 208.144531 C 326.132812 208.035156 325.890625 207.902344 325.683594 207.746094 C 325.550781 207.636719 325.429688 207.539062 325.320312 207.429688 C 325.175781 207.574219 325.03125 207.707031 324.886719 207.839844 C 323.519531 209.183594 322.078125 210.550781 320.433594 211.640625 C 321.304688 212.523438 322.34375 213.382812 323.566406 213.953125 C 323.859375 214.085938 324.171875 214.183594 324.5 214.265625 C 324.511719 214.242188 324.511719 214.230469 324.535156 214.21875 C 325.066406 213.578125 325.441406 212.730469 325.710938 211.53125 C 325.828125 211.011719 325.914062 210.480469 326 209.960938 C 326.109375 209.355469 326.191406 208.773438 326.351562 208.179688 Z M 326.796875 199.769531 L 324.800781 193.730469 C 324.21875 193.9375 323.664062 194.15625 323.132812 194.445312 C 321.871094 195.148438 320.757812 196.128906 319.839844 197.277344 L 325.273438 200.738281 C 325.550781 200.472656 325.867188 200.230469 326.191406 200.046875 C 326.398438 199.941406 326.582031 199.84375 326.796875 199.769531 Z M 330.175781 199.855469 C 331.277344 197.96875 332.253906 196.105469 332.824219 194.121094 C 330.960938 193.261719 330.066406 193.234375 328.855469 193.199219 C 328.46875 193.1875 328.054688 193.175781 327.574219 193.152344 C 327.257812 193.164062 326.917969 193.210938 326.59375 193.273438 L 328.660156 199.515625 C 328.878906 199.515625 329.074219 199.527344 329.277344 199.566406 C 329.582031 199.636719 329.882812 199.746094 330.175781 199.855469 Z M 331.070312 204.621094 C 331.105469 204.453125 331.117188 204.378906 331.105469 204.308594 C 331.105469 204.257812 331.09375 204.152344 331.09375 204.078125 C 331.082031 203.992188 331.09375 203.882812 331.09375 203.777344 C 331.105469 203.726562 331.105469 203.679688 331.105469 203.628906 C 331.058594 203.375 330.984375 203.160156 330.886719 202.929688 C 330.730469 202.554688 330.453125 202.226562 330.136719 201.960938 C 329.8125 201.671875 329.375 201.476562 328.941406 201.390625 C 328.792969 201.367188 328.660156 201.367188 328.503906 201.367188 C 328.433594 201.355469 328.371094 201.355469 328.324219 201.355469 C 328.09375 201.355469 327.949219 201.367188 327.828125 201.390625 C 327.558594 201.453125 327.320312 201.535156 327.101562 201.65625 C 326.640625 201.925781 326.242188 202.324219 325.988281 202.796875 C 325.867188 203.039062 325.769531 203.304688 325.722656 203.570312 C 325.710938 203.667969 325.683594 203.800781 325.683594 203.847656 C 325.734375 204.078125 325.792969 204.320312 325.757812 204.609375 C 325.746094 204.71875 325.78125 204.863281 325.878906 205.09375 C 326.058594 205.554688 326.386719 205.964844 326.785156 206.257812 C 326.917969 206.351562 327.050781 206.4375 327.183594 206.484375 C 327.269531 206.535156 327.34375 206.558594 327.4375 206.570312 C 327.535156 206.59375 327.644531 206.621094 327.730469 206.65625 C 327.898438 206.714844 328.09375 206.714844 328.296875 206.726562 C 328.445312 206.726562 328.601562 206.703125 328.746094 206.679688 L 328.964844 206.644531 C 329.0625 206.632812 329.132812 206.621094 329.21875 206.621094 C 329.351562 206.605469 329.386719 206.605469 329.410156 206.59375 C 329.800781 206.4375 330.136719 206.195312 330.402344 205.90625 C 330.753906 205.554688 330.972656 205.09375 331.070312 204.621094 Z M 332.402344 214.328125 C 332.363281 214.277344 332.304688 214.253906 332.253906 214.207031 C 331.082031 212.402344 330.320312 210.40625 329.652344 208.433594 C 329.558594 208.445312 329.460938 208.457031 329.375 208.457031 L 329.035156 208.496094 C 328.808594 208.542969 328.550781 208.578125 328.324219 208.578125 C 328.285156 208.578125 328.261719 208.578125 328.25 208.578125 C 328.214844 208.578125 328.191406 208.578125 328.152344 208.566406 C 328.152344 208.578125 328.140625 208.59375 328.140625 208.605469 C 328.019531 209.160156 327.921875 209.707031 327.839844 210.261719 C 327.730469 210.832031 327.644531 211.386719 327.523438 211.945312 C 327.257812 213.09375 326.90625 214 326.410156 214.773438 C 326.917969 214.847656 327.464844 214.882812 328.007812 214.894531 C 328.613281 214.910156 329.242188 214.8125 329.921875 214.703125 L 330.550781 214.617188 C 330.804688 214.570312 331.046875 214.558594 331.261719 214.535156 C 331.6875 214.496094 332.039062 214.460938 332.402344 214.328125 Z M 336.503906 211.554688 C 337.132812 210.867188 337.652344 210.105469 338.101562 209.292969 C 335.945312 208.726562 333.925781 207.890625 331.976562 206.898438 C 331.917969 206.996094 331.84375 207.089844 331.773438 207.164062 C 331.636719 207.308594 331.46875 207.429688 331.3125 207.5625 C 331.964844 209.511719 332.691406 211.472656 333.804688 213.164062 C 333.890625 213.300781 333.925781 213.433594 333.949219 213.578125 C 334.894531 213.019531 335.765625 212.355469 336.503906 211.554688 Z M 337.640625 200.628906 L 338.71875 200.316406 C 338.621094 200.0625 338.546875 199.804688 338.4375 199.566406 C 337.617188 197.75 336.34375 196.226562 334.75 195.113281 C 334.664062 195.0625 334.617188 195.027344 334.53125 194.992188 C 333.863281 197.097656 332.789062 199.042969 331.699219 200.933594 C 332.027344 201.257812 332.304688 201.632812 332.496094 202.046875 C 334.226562 201.65625 335.945312 201.136719 337.640625 200.628906 Z M 339.175781 206.351562 C 339.324219 205.664062 339.394531 205.179688 339.308594 204.621094 C 339.285156 204.464844 339.285156 204.296875 339.273438 204.113281 C 339.273438 203.859375 339.285156 203.59375 339.296875 203.328125 C 339.324219 202.953125 339.347656 202.613281 339.285156 202.3125 C 339.273438 202.226562 339.25 202.167969 339.226562 202.082031 L 338.171875 202.394531 C 336.464844 202.917969 334.722656 203.449219 332.945312 203.847656 C 332.945312 203.859375 332.945312 203.882812 332.945312 203.898438 L 332.945312 204.042969 C 332.945312 204.042969 332.945312 204.042969 332.945312 204.054688 C 332.992188 204.441406 332.945312 204.742188 332.898438 205.011719 C 332.859375 205.082031 332.835938 205.167969 332.824219 205.238281 C 334.75 206.21875 336.746094 207.054688 338.839844 207.574219 C 338.972656 207.175781 339.09375 206.777344 339.175781 206.351562 Z M 341.148438 204.355469 C 341.28125 205.277344 341.136719 206.039062 340.992188 206.742188 C 340.53125 209.003906 339.445312 211.109375 337.859375 212.816406 C 336.585938 214.195312 334.964844 215.296875 333.199219 216.023438 C 332.523438 216.277344 331.953125 216.335938 331.421875 216.386719 C 331.226562 216.398438 331.035156 216.410156 330.804688 216.445312 L 330.210938 216.53125 C 329.53125 216.640625 328.855469 216.746094 328.140625 216.746094 C 328.082031 216.746094 328.019531 216.746094 327.960938 216.746094 C 327.003906 216.710938 325.988281 216.664062 324.996094 216.335938 C 324.742188 216.238281 324.488281 216.179688 324.234375 216.105469 C 323.773438 215.984375 323.289062 215.851562 322.78125 215.632812 C 320.421875 214.519531 318.570312 212.546875 317.46875 211.085938 C 317.40625 211.011719 317.371094 210.9375 317.335938 210.867188 C 317.203125 210.515625 317.042969 210.152344 316.898438 209.8125 C 316.304688 208.472656 315.691406 207.089844 315.871094 205.457031 C 315.90625 205.179688 315.847656 204.925781 315.761719 204.574219 C 315.691406 204.296875 315.628906 204.003906 315.59375 203.667969 C 315.582031 203.617188 315.582031 203.570312 315.582031 203.523438 C 315.664062 201.683594 316.171875 199.832031 317.042969 198.171875 C 318.207031 195.933594 320.058594 194.023438 322.25 192.835938 C 323.859375 191.929688 325.710938 191.410156 327.585938 191.300781 C 328.152344 191.335938 328.539062 191.335938 328.890625 191.347656 C 330.296875 191.382812 331.492188 191.433594 333.984375 192.617188 C 334.046875 192.617188 334.105469 192.605469 334.179688 192.628906 C 334.398438 192.691406 334.589844 192.824219 334.722656 192.992188 C 335.039062 193.164062 335.367188 193.332031 335.742188 193.539062 C 337.664062 194.882812 339.164062 196.695312 340.121094 198.800781 C 340.570312 199.78125 340.894531 200.835938 341.113281 201.960938 C 341.222656 202.492188 341.175781 203 341.148438 203.449219 C 341.136719 203.65625 341.125 203.871094 341.125 204.078125 C 341.125 204.175781 341.136719 204.257812 341.148438 204.355469 " fill-opacity="1" fill-rule="nonzero"/><path fill="#000000" d="M 30.484375 202.335938 L 25.085938 198.898438 C 25.039062 198.972656 24.988281 199.019531 24.953125 199.105469 C 24.226562 200.507812 23.792969 202.058594 23.71875 203.605469 C 23.71875 203.617188 23.71875 203.617188 23.71875 203.617188 C 25.875 203.351562 28.0625 203.171875 30.253906 203.027344 C 30.3125 202.785156 30.386719 202.554688 30.484375 202.335938 Z M 30.496094 206.003906 C 30.484375 205.964844 30.460938 205.917969 30.449219 205.882812 C 30.328125 205.601562 30.207031 205.265625 30.179688 204.875 C 28.113281 205.023438 26.03125 205.203125 23.984375 205.457031 C 23.984375 205.554688 23.996094 205.640625 23.984375 205.75 C 23.863281 206.875 24.324219 207.925781 24.855469 209.148438 C 25.003906 209.476562 25.148438 209.8125 25.28125 210.140625 C 25.339844 210.214844 25.402344 210.273438 25.4375 210.335938 C 27.035156 209.328125 28.4375 208.011719 29.878906 206.59375 C 30.085938 206.402344 30.277344 206.195312 30.496094 206.003906 Z M 32.613281 208.277344 C 32.613281 208.265625 32.625 208.242188 32.625 208.230469 C 32.394531 208.121094 32.179688 207.988281 31.949219 207.828125 C 31.828125 207.734375 31.707031 207.625 31.597656 207.527344 C 31.453125 207.660156 31.320312 207.78125 31.171875 207.914062 C 29.78125 209.269531 28.355469 210.625 26.695312 211.726562 C 27.566406 212.597656 28.621094 213.46875 29.832031 214.039062 C 30.121094 214.160156 30.449219 214.253906 30.773438 214.351562 C 30.785156 214.339844 30.785156 214.304688 30.796875 214.292969 C 31.332031 213.675781 31.707031 212.804688 31.984375 211.617188 C 32.09375 211.097656 32.191406 210.5625 32.273438 210.03125 C 32.371094 209.449219 32.480469 208.859375 32.613281 208.277344 Z M 33.0625 199.855469 L 31.066406 193.816406 C 30.496094 194.011719 29.9375 194.253906 29.394531 194.542969 C 28.136719 195.234375 27.023438 196.210938 26.117188 197.363281 L 31.535156 200.8125 C 31.828125 200.542969 32.140625 200.316406 32.46875 200.121094 C 32.660156 200.011719 32.867188 199.925781 33.0625 199.855469 Z M 36.449219 199.941406 C 37.550781 198.050781 38.53125 196.1875 39.113281 194.191406 C 37.234375 193.332031 36.328125 193.308594 35.128906 193.285156 C 34.742188 193.273438 34.332031 193.273438 33.859375 193.234375 C 33.535156 193.261719 33.195312 193.296875 32.867188 193.34375 L 34.925781 199.589844 C 35.167969 199.613281 35.347656 199.625 35.554688 199.648438 C 35.867188 199.710938 36.160156 199.820312 36.449219 199.941406 Z M 37.355469 204.707031 C 37.382812 204.527344 37.394531 204.464844 37.382812 204.40625 C 37.382812 204.355469 37.371094 204.199219 37.371094 204.175781 L 37.371094 204.164062 C 37.371094 204.054688 37.371094 203.957031 37.382812 203.871094 C 37.382812 203.8125 37.382812 203.761719 37.382812 203.714844 C 37.320312 203.460938 37.261719 203.21875 37.164062 203.027344 C 36.992188 202.636719 36.726562 202.3125 36.414062 202.046875 C 36.074219 201.765625 35.640625 201.550781 35.203125 201.476562 C 35.058594 201.453125 34.9375 201.453125 34.792969 201.453125 C 34.730469 201.453125 34.671875 201.453125 34.597656 201.453125 C 34.367188 201.453125 34.210938 201.453125 34.101562 201.476562 C 33.847656 201.523438 33.59375 201.621094 33.363281 201.753906 C 32.902344 201.996094 32.503906 202.394531 32.25 202.878906 C 32.140625 203.121094 32.042969 203.375 31.996094 203.640625 C 31.984375 203.738281 31.949219 203.882812 31.949219 203.921875 C 32.019531 204.175781 32.070312 204.40625 32.03125 204.707031 C 32.019531 204.804688 32.058594 204.9375 32.152344 205.179688 C 32.347656 205.640625 32.648438 206.039062 33.0625 206.328125 C 33.195312 206.4375 33.328125 206.523438 33.460938 206.582031 C 33.546875 206.621094 33.628906 206.632812 33.714844 206.65625 C 33.800781 206.691406 33.910156 206.714844 34.003906 206.742188 C 34.164062 206.789062 34.355469 206.800781 34.574219 206.800781 C 34.71875 206.824219 34.875 206.777344 35.035156 206.753906 L 35.238281 206.726562 C 35.324219 206.714844 35.421875 206.703125 35.492188 206.703125 C 35.613281 206.691406 35.664062 206.691406 35.6875 206.679688 C 36.0625 206.523438 36.414062 206.292969 36.691406 205.988281 C 37.019531 205.628906 37.25 205.179688 37.355469 204.707031 Z M 38.675781 214.398438 C 38.628906 214.363281 38.566406 214.339844 38.542969 214.277344 C 37.355469 212.488281 36.59375 210.480469 35.917969 208.519531 C 35.832031 208.53125 35.734375 208.542969 35.664062 208.542969 L 35.324219 208.59375 C 35.070312 208.628906 34.839844 208.664062 34.585938 208.664062 C 34.5625 208.664062 34.539062 208.664062 34.527344 208.664062 C 34.488281 208.664062 34.453125 208.664062 34.429688 208.664062 C 34.429688 208.675781 34.417969 208.675781 34.417969 208.6875 C 34.296875 209.246094 34.199219 209.800781 34.113281 210.335938 C 34.015625 210.902344 33.910156 211.472656 33.789062 212.027344 C 33.535156 213.152344 33.171875 214.085938 32.675781 214.847656 C 33.207031 214.933594 33.75 214.957031 34.285156 214.96875 C 34.886719 215.015625 35.519531 214.894531 36.183594 214.789062 L 36.824219 214.691406 C 37.066406 214.65625 37.308594 214.640625 37.539062 214.617188 C 37.960938 214.582031 38.300781 214.535156 38.675781 214.398438 Z M 42.777344 211.640625 C 43.40625 210.953125 43.941406 210.203125 44.375 209.378906 C 42.234375 208.808594 40.199219 207.976562 38.265625 206.980469 C 38.179688 207.066406 38.121094 207.164062 38.035156 207.25 C 37.902344 207.394531 37.746094 207.515625 37.585938 207.636719 C 38.242188 209.597656 38.964844 211.554688 40.078125 213.261719 C 40.164062 213.382812 40.1875 213.515625 40.226562 213.660156 C 41.15625 213.105469 42.039062 212.429688 42.777344 211.640625 Z M 43.914062 200.703125 L 44.980469 200.386719 C 44.894531 200.132812 44.8125 199.890625 44.714844 199.648438 C 43.878906 197.847656 42.621094 196.296875 41.011719 195.183594 C 40.9375 195.136719 40.890625 195.113281 40.804688 195.074219 C 40.128906 197.191406 39.0625 199.128906 37.988281 201.003906 C 38.289062 201.34375 38.566406 201.71875 38.785156 202.128906 C 40.503906 201.742188 42.234375 201.222656 43.914062 200.703125 Z M 45.453125 206.449219 C 45.609375 205.75 45.671875 205.265625 45.574219 204.707031 C 45.5625 204.550781 45.5625 204.367188 45.539062 204.199219 C 45.539062 203.933594 45.5625 203.667969 45.5625 203.414062 C 45.597656 203.039062 45.621094 202.6875 45.5625 202.382812 C 45.539062 202.3125 45.523438 202.238281 45.5 202.167969 L 44.460938 202.480469 C 42.730469 203 40.988281 203.523438 39.207031 203.933594 C 39.207031 203.945312 39.207031 203.980469 39.207031 203.992188 L 39.207031 204.113281 L 38.289062 204.152344 L 39.207031 204.152344 C 39.269531 204.5 39.207031 204.816406 39.160156 205.082031 C 39.136719 205.167969 39.113281 205.238281 39.101562 205.324219 C 41.011719 206.304688 43.019531 207.140625 45.113281 207.671875 C 45.246094 207.261719 45.367188 206.863281 45.453125 206.449219 Z M 47.425781 204.441406 C 47.546875 205.347656 47.425781 206.125 47.28125 206.824219 C 46.796875 209.089844 45.71875 211.195312 44.144531 212.898438 C 42.851562 214.277344 41.242188 215.390625 39.476562 216.09375 C 38.785156 216.371094 38.242188 216.410156 37.695312 216.46875 C 37.488281 216.480469 37.296875 216.492188 37.066406 216.53125 L 36.472656 216.625 C 35.820312 216.710938 35.128906 216.832031 34.429688 216.832031 C 34.355469 216.832031 34.296875 216.832031 34.222656 216.820312 C 33.277344 216.796875 32.261719 216.746094 31.257812 216.410156 C 31.015625 216.324219 30.761719 216.25 30.507812 216.191406 C 30.046875 216.070312 29.550781 215.9375 29.054688 215.707031 C 26.683594 214.617188 24.84375 212.632812 23.730469 211.167969 C 23.683594 211.097656 23.648438 211.023438 23.609375 210.953125 C 23.464844 210.589844 23.308594 210.25 23.164062 209.898438 C 22.570312 208.554688 21.964844 207.164062 22.144531 205.542969 C 22.171875 205.265625 22.121094 205.011719 22.039062 204.648438 C 21.976562 204.367188 21.902344 204.078125 21.867188 203.75 C 21.855469 203.691406 21.855469 203.65625 21.855469 203.605469 C 21.941406 201.765625 22.4375 199.914062 23.308594 198.246094 C 24.480469 196.007812 26.332031 194.121094 28.511719 192.910156 C 30.132812 192.011719 31.996094 191.480469 33.871094 191.382812 C 34.429688 191.421875 34.804688 191.421875 35.179688 191.433594 C 36.582031 191.457031 37.757812 191.503906 40.25 192.714844 C 40.308594 192.714844 40.382812 192.703125 40.441406 192.714844 C 40.671875 192.765625 40.855469 192.898438 40.988281 193.066406 C 41.300781 193.246094 41.640625 193.417969 42.003906 193.609375 C 43.953125 194.976562 45.429688 196.78125 46.382812 198.875 C 46.84375 199.855469 47.171875 200.917969 47.375 202.046875 C 47.484375 202.578125 47.449219 203.074219 47.425781 203.523438 C 47.414062 203.738281 47.390625 203.945312 47.390625 204.164062 C 47.414062 204.246094 47.414062 204.34375 47.425781 204.441406 " fill-opacity="1" fill-rule="nonzero"/></svg>