<svg xmlns="http://www.w3.org/2000/svg" xmlns:xlink="http://www.w3.org/1999/xlink" width="500" zoomAndPan="magnify" viewBox="0 0 375 374.999991" height="500" preserveAspectRatio="xMidYMid meet" version="1.0"><defs><clipPath id="3e7dbbb493"><path d="M 13.296875 0 L 362 0 L 362 375 L 13.296875 375 Z M 13.296875 0 " clip-rule="nonzero"/></clipPath></defs><path fill="#000000" d="M 217.324219 218.089844 L 198.621094 218.089844 L 198.621094 186.234375 C 198.621094 184.589844 197.289062 183.257812 195.640625 183.257812 L 179.566406 183.257812 C 177.921875 183.257812 176.589844 184.589844 176.589844 186.234375 L 176.589844 218.089844 L 157.882812 218.089844 C 156.238281 218.089844 154.90625 219.425781 154.90625 221.066406 L 154.90625 237.125 C 154.90625 238.765625 156.238281 240.097656 157.882812 240.097656 L 176.589844 240.097656 L 176.589844 334.863281 C 176.589844 336.507812 177.921875 337.839844 179.566406 337.839844 L 195.640625 337.839844 C 197.289062 337.839844 198.621094 336.507812 198.621094 334.863281 L 198.621094 240.097656 L 217.324219 240.097656 C 218.972656 240.097656 220.300781 238.765625 220.300781 237.125 L 220.300781 221.066406 C 220.300781 219.421875 218.96875 218.089844 217.324219 218.089844 Z M 214.347656 234.152344 L 195.640625 234.152344 C 193.996094 234.152344 192.664062 235.484375 192.664062 237.125 L 192.664062 331.890625 L 182.542969 331.890625 L 182.542969 237.125 C 182.542969 235.484375 181.214844 234.152344 179.566406 234.152344 L 160.859375 234.152344 L 160.859375 224.039062 L 179.566406 224.039062 C 181.214844 224.039062 182.542969 222.707031 182.542969 221.066406 L 182.542969 189.207031 L 192.664062 189.207031 L 192.664062 221.066406 C 192.664062 222.707031 193.996094 224.039062 195.640625 224.039062 L 214.347656 224.039062 Z M 214.347656 234.152344 " fill-opacity="1" fill-rule="nonzero"/><path fill="#000000" d="M 180.625 79.316406 L 194.582031 79.316406 C 196.230469 79.316406 197.558594 77.984375 197.558594 76.339844 L 197.558594 50.339844 C 197.558594 45.230469 193.402344 41.078125 188.285156 41.078125 L 186.921875 41.078125 C 181.804688 41.078125 177.648438 45.230469 177.648438 50.339844 L 177.648438 76.339844 C 177.648438 77.984375 178.976562 79.316406 180.625 79.316406 Z M 183.601562 50.339844 C 183.601562 48.507812 185.089844 47.023438 186.921875 47.023438 L 188.285156 47.023438 C 190.117188 47.023438 191.605469 48.507812 191.605469 50.339844 L 191.605469 73.363281 L 183.601562 73.363281 Z M 183.601562 50.339844 " fill-opacity="1" fill-rule="nonzero"/><path fill="#000000" d="M 56.613281 261.359375 L 54.390625 261.359375 C 47.109375 261.359375 41.1875 267.277344 41.1875 274.550781 L 41.1875 334.863281 C 41.1875 336.503906 42.515625 337.835938 44.164062 337.835938 L 66.835938 337.835938 C 68.480469 337.835938 69.8125 336.503906 69.8125 334.863281 L 69.8125 274.550781 C 69.816406 267.277344 63.894531 261.359375 56.613281 261.359375 Z M 47.144531 286.21875 L 63.859375 286.21875 L 63.859375 292.324219 L 47.144531 292.324219 Z M 54.390625 267.308594 L 56.613281 267.308594 C 60.609375 267.308594 63.859375 270.554688 63.859375 274.550781 L 63.859375 280.269531 L 47.144531 280.269531 L 47.144531 274.550781 C 47.144531 270.558594 50.394531 267.308594 54.390625 267.308594 Z M 47.144531 331.890625 L 47.144531 298.273438 L 63.859375 298.273438 L 63.859375 331.890625 Z M 47.144531 331.890625 " fill-opacity="1" fill-rule="nonzero"/><path fill="#000000" d="M 107.929688 261.359375 L 105.707031 261.359375 C 98.429688 261.359375 92.503906 267.277344 92.503906 274.550781 L 92.503906 334.863281 C 92.503906 336.503906 93.835938 337.835938 95.480469 337.835938 L 118.152344 337.835938 C 119.796875 337.835938 121.128906 336.503906 121.128906 334.863281 L 121.128906 274.550781 C 121.128906 267.277344 115.207031 261.359375 107.929688 261.359375 Z M 98.457031 286.21875 L 115.175781 286.21875 L 115.175781 292.324219 L 98.457031 292.324219 Z M 105.707031 267.308594 L 107.929688 267.308594 C 111.929688 267.308594 115.179688 270.554688 115.179688 274.550781 L 115.179688 280.269531 L 98.460938 280.269531 L 98.460938 274.550781 C 98.457031 270.558594 101.707031 267.308594 105.707031 267.308594 Z M 98.457031 331.890625 L 98.457031 298.273438 L 115.175781 298.273438 L 115.175781 331.890625 Z M 98.457031 331.890625 " fill-opacity="1" fill-rule="nonzero"/><g clip-path="url(#3e7dbbb493)"><path fill="#000000" d="M 360.574219 181.359375 L 223.566406 84.375 L 223.566406 73.34375 L 225.570312 75.953125 C 226.128906 76.6875 227.003906 77.113281 227.929688 77.113281 L 242.074219 77.113281 C 243.210938 77.113281 244.246094 76.472656 244.742188 75.453125 C 245.246094 74.441406 245.125 73.226562 244.433594 72.328125 L 189.960938 1.398438 C 188.839844 -0.0703125 186.363281 -0.0703125 185.242188 1.398438 L 130.769531 72.328125 C 130.082031 73.226562 129.960938 74.441406 130.460938 75.453125 C 130.960938 76.46875 131.996094 77.113281 133.128906 77.113281 L 147.679688 77.113281 C 148.613281 77.113281 149.488281 76.679688 150.050781 75.941406 L 151.640625 73.847656 L 151.640625 84.375 L 14.632812 181.359375 C 13.84375 181.917969 13.378906 182.820312 13.378906 183.785156 L 13.378906 201.785156 C 13.378906 202.898438 14 203.917969 14.988281 204.425781 C 15.417969 204.648438 15.886719 204.761719 16.355469 204.761719 C 16.957031 204.761719 17.5625 204.574219 18.074219 204.214844 L 20.722656 202.339844 L 20.722656 365.433594 C 20.722656 367.074219 22.054688 368.40625 23.699219 368.40625 L 141.730469 368.40625 L 141.730469 371.964844 C 141.730469 373.609375 143.0625 374.941406 144.707031 374.941406 L 230.523438 374.941406 C 231.3125 374.941406 232.070312 374.628906 232.625 374.070312 C 233.183594 373.511719 233.5 372.753906 233.5 371.964844 L 233.5 368.40625 L 351.507812 368.40625 C 353.152344 368.40625 354.484375 367.074219 354.484375 365.433594 L 354.484375 202.335938 L 357.132812 204.210938 C 357.644531 204.574219 358.25 204.757812 358.851562 204.757812 C 359.320312 204.757812 359.789062 204.648438 360.21875 204.425781 C 361.207031 203.914062 361.828125 202.894531 361.828125 201.785156 L 361.828125 183.78125 C 361.828125 182.820312 361.359375 181.917969 360.574219 181.359375 Z M 190.023438 105.378906 C 188.910156 103.820312 186.296875 103.820312 185.183594 105.378906 L 132.796875 178.664062 L 126.160156 178.664062 L 187.605469 92.703125 L 249.050781 178.664062 L 242.410156 178.664062 Z M 224.714844 164.148438 L 150.488281 164.148438 L 187.601562 112.226562 Z M 146.203125 71.167969 L 139.164062 71.167969 L 187.601562 8.09375 L 236.039062 71.167969 L 229.398438 71.167969 L 189.960938 19.816406 C 189.402344 19.082031 188.527344 18.65625 187.601562 18.65625 C 187.597656 18.65625 187.597656 18.65625 187.597656 18.65625 C 186.664062 18.65625 185.796875 19.09375 185.234375 19.828125 Z M 187.613281 26.53125 L 217.613281 65.589844 L 217.613281 124.453125 L 190.023438 85.859375 C 188.90625 84.296875 186.296875 84.296875 185.179688 85.859375 L 157.589844 124.453125 L 157.589844 66.019531 Z M 19.332031 185.324219 L 151.640625 91.664062 L 151.640625 102.371094 L 23.625 192.996094 C 22.386719 193.027344 21.359375 193.804688 20.9375 194.894531 L 19.332031 196.035156 Z M 26.675781 362.457031 L 26.675781 198.121094 L 151.640625 109.660156 L 151.640625 132.785156 L 117.957031 179.910156 C 117.308594 180.816406 117.222656 182.011719 117.734375 183 C 118.242188 183.992188 119.261719 184.613281 120.378906 184.613281 L 134.335938 184.613281 C 135.296875 184.613281 136.199219 184.148438 136.753906 183.367188 L 141.734375 176.398438 L 141.734375 362.453125 L 26.675781 362.453125 Z M 147.6875 368.988281 L 147.6875 170.09375 L 227.519531 170.09375 L 227.546875 365.300781 C 227.542969 365.347656 227.519531 365.386719 227.519531 365.429688 C 227.519531 365.476562 227.542969 365.511719 227.546875 365.558594 L 227.546875 368.988281 Z M 348.53125 362.457031 L 233.5 362.457031 L 233.476562 176.402344 L 238.453125 183.367188 C 239.011719 184.148438 239.910156 184.613281 240.871094 184.613281 L 254.828125 184.613281 C 255.945312 184.613281 256.964844 183.992188 257.472656 183 C 257.984375 182.011719 257.898438 180.816406 257.25 179.910156 L 223.566406 132.785156 L 223.566406 109.660156 L 348.53125 198.121094 Z M 355.875 196.035156 L 354.273438 194.898438 C 353.851562 193.808594 352.820312 193.03125 351.585938 193 L 223.566406 102.371094 L 223.566406 91.664062 L 355.875 185.324219 Z M 355.875 196.035156 " fill-opacity="1" fill-rule="nonzero"/></g><path fill="#000000" d="M 308.367188 337.839844 L 331.039062 337.839844 C 332.6875 337.839844 334.015625 336.507812 334.015625 334.863281 L 334.015625 274.550781 C 334.015625 267.277344 328.097656 261.359375 320.816406 261.359375 L 318.589844 261.359375 C 311.3125 261.359375 305.390625 267.277344 305.390625 274.550781 L 305.390625 334.863281 C 305.390625 336.507812 306.722656 337.839844 308.367188 337.839844 Z M 328.0625 292.324219 L 311.347656 292.324219 L 311.347656 286.21875 L 328.0625 286.21875 Z M 311.347656 331.890625 L 311.347656 298.273438 L 328.0625 298.273438 L 328.0625 331.890625 Z M 318.589844 267.308594 L 320.816406 267.308594 C 324.8125 267.308594 328.0625 270.554688 328.0625 274.550781 L 328.0625 280.269531 L 311.347656 280.269531 L 311.347656 274.550781 C 311.347656 270.558594 314.597656 267.308594 318.589844 267.308594 Z M 318.589844 267.308594 " fill-opacity="1" fill-rule="nonzero"/><path fill="#000000" d="M 254.074219 334.863281 C 254.074219 336.507812 255.40625 337.839844 257.050781 337.839844 L 279.722656 337.839844 C 281.371094 337.839844 282.699219 336.507812 282.699219 334.863281 L 282.699219 274.550781 C 282.699219 267.277344 276.777344 261.359375 269.496094 261.359375 L 267.273438 261.359375 C 259.996094 261.359375 254.070312 267.277344 254.070312 274.550781 L 254.070312 334.863281 Z M 276.75 292.324219 L 260.03125 292.324219 L 260.03125 286.21875 L 276.75 286.21875 Z M 260.027344 331.890625 L 260.027344 298.273438 L 276.746094 298.273438 L 276.746094 331.890625 Z M 267.277344 267.308594 L 269.5 267.308594 C 273.5 267.308594 276.75 270.554688 276.75 274.550781 L 276.75 280.269531 L 260.03125 280.269531 L 260.03125 274.550781 C 260.027344 270.558594 263.277344 267.308594 267.277344 267.308594 Z M 267.277344 267.308594 " fill-opacity="1" fill-rule="nonzero"/></svg>