<svg xmlns="http://www.w3.org/2000/svg" xmlns:xlink="http://www.w3.org/1999/xlink" width="500" zoomAndPan="magnify" viewBox="0 0 375 374.999991" height="500" preserveAspectRatio="xMidYMid meet" version="1.0"><path fill="#000000" d="M 184.5 65.070312 L 184.40625 65.101562 C 184.433594 65.101562 184.457031 65.097656 184.480469 65.089844 Z M 184.5 65.070312 " fill-opacity="1" fill-rule="nonzero"/><path fill="#000000" d="M 181.71875 71.351562 C 181.71875 71.394531 181.714844 71.4375 181.707031 71.476562 L 181.746094 71.324219 C 181.742188 71.332031 181.734375 71.34375 181.71875 71.351562 Z M 181.71875 71.351562 " fill-opacity="1" fill-rule="nonzero"/><path fill="#000000" d="M 98.371094 143.597656 C 98.835938 141.1875 99.039062 138.753906 98.980469 136.296875 C 99.003906 141.207031 96.207031 145.964844 97.433594 150.832031 C 98.257812 156.550781 106.703125 157.425781 108.585938 151.996094 C 103.109375 160.429688 94.855469 150.757812 98.371094 143.597656 Z M 98.371094 143.597656 " fill-opacity="1" fill-rule="nonzero"/><path fill="#000000" d="M 100.988281 140.808594 C 99.65625 145.15625 96.804688 152.210938 102.535156 154.535156 C 94.820312 151.390625 107.488281 129.625 101.039062 115.699219 C 102.300781 123.9375 103.097656 132.671875 100.988281 140.808594 Z M 100.988281 140.808594 " fill-opacity="1" fill-rule="nonzero"/><path fill="#000000" d="M 70.492188 164.683594 C 70.003906 166.640625 69.128906 168.410156 67.863281 169.980469 C 78.90625 155.851562 66.980469 138.890625 66.242188 123.644531 C 65.914062 137.519531 75.574219 150.71875 70.492188 164.683594 Z M 70.492188 164.683594 " fill-opacity="1" fill-rule="nonzero"/><path fill="#000000" d="M 222.539062 305.046875 C 216.542969 287.195312 212.703125 268.570312 208.117188 250.347656 C 212.402344 274.832031 216.164062 301.101562 229.722656 322.375 C 226.28125 317.078125 224.507812 310.988281 222.539062 305.046875 Z M 222.539062 305.046875 " fill-opacity="1" fill-rule="nonzero"/><path fill="#000000" d="M 120.128906 239.042969 C 106.5 269.480469 89.914062 298.546875 72.863281 327.175781 C 93.953125 295.589844 113.996094 262.183594 125.34375 225.730469 C 124.175781 229.101562 121.5625 235.777344 120.128906 239.042969 Z M 120.128906 239.042969 " fill-opacity="1" fill-rule="nonzero"/><path fill="#000000" d="M 188.117188 270.675781 C 186.75 255.703125 185.574219 240.722656 184.589844 225.730469 C 184.601562 255.699219 186.144531 286.261719 193.855469 315.339844 C 190.871094 300.59375 189.542969 285.625 188.117188 270.675781 Z M 188.117188 270.675781 " fill-opacity="1" fill-rule="nonzero"/><path fill="#000000" d="M 276.507812 364.261719 C 273.472656 361.222656 270.378906 357.699219 266.035156 356.605469 C 273.953125 360.402344 278.488281 369.191406 288.285156 369.398438 C 284.277344 368.054688 279.621094 367.277344 276.507812 364.261719 Z M 276.507812 364.261719 " fill-opacity="1" fill-rule="nonzero"/><path fill="#000000" d="M 134.28125 356.457031 C 133.390625 356.171875 132.480469 356.089844 131.550781 356.210938 C 130.621094 356.335938 129.765625 356.65625 128.980469 357.167969 C 131.25 356.765625 133.652344 356.53125 135.820312 357.457031 C 135.40625 356.972656 134.894531 356.640625 134.28125 356.457031 Z M 134.28125 356.457031 " fill-opacity="1" fill-rule="nonzero"/><path fill="#000000" d="M 127.011719 148.511719 C 124.109375 146.859375 121.726562 144.648438 119.859375 141.878906 C 120.972656 145.003906 123.6875 147.839844 127.011719 148.511719 Z M 127.011719 148.511719 " fill-opacity="1" fill-rule="nonzero"/><path fill="#000000" d="M 125.273438 114.671875 C 121.953125 113.613281 118.835938 111.691406 115.445312 110.789062 C 118.480469 112.527344 121.703125 114.496094 125.273438 114.671875 Z M 125.273438 114.671875 " fill-opacity="1" fill-rule="nonzero"/><path fill="#000000" d="M 227.699219 115.597656 C 226.667969 113.25 225.789062 110.859375 224.789062 108.488281 C 225.515625 113.527344 227.378906 118.859375 231.1875 122.394531 C 229.832031 120.226562 228.671875 117.960938 227.699219 115.597656 Z M 227.699219 115.597656 " fill-opacity="1" fill-rule="nonzero"/><path fill="#000000" d="M 232.847656 169.980469 C 219.285156 171.4375 206.246094 179.761719 192.773438 178.546875 C 205.679688 182.636719 220.507812 174 232.847656 169.980469 Z M 232.847656 169.980469 " fill-opacity="1" fill-rule="nonzero"/><path fill="#000000" d="M 183.835938 361.914062 C 183.625 362.164062 183.457031 362.445312 183.339844 362.753906 C 183.9375 362.417969 184.355469 361.925781 184.59375 361.285156 C 184.304688 361.445312 184.050781 361.65625 183.835938 361.914062 Z M 183.835938 361.914062 " fill-opacity="1" fill-rule="nonzero"/><path fill="#000000" d="M 344.644531 362.269531 C 342.816406 350.449219 336.238281 340.382812 329.765625 330.644531 C 334.957031 325.953125 324.59375 320.804688 324.210938 315.332031 C 313.605469 290.933594 301.316406 267.6875 284.023438 247.230469 C 273.941406 230.753906 271.40625 209.710938 259.179688 193.863281 C 259.179688 193.859375 259.175781 193.859375 259.171875 193.859375 C 256.269531 184.792969 250.886719 176.558594 247.457031 167.5 C 240.464844 155.226562 237.882812 141.027344 231.777344 128.597656 C 232.808594 124.132812 236.289062 119.742188 234.636719 115 C 235.585938 113.4375 236.242188 111.761719 236.609375 109.96875 C 249.335938 108.484375 251.316406 99.667969 247.402344 89.125 C 244.667969 86.902344 243.5 84.007812 242.773438 80.605469 C 236.625 69.546875 222.542969 72.222656 212.9375 67.082031 C 211.945312 65.21875 210.546875 63.234375 208.40625 62.589844 C 207.910156 60.058594 205.304688 60.488281 203.648438 61.550781 C 203.628906 61.539062 203.609375 61.527344 203.589844 61.523438 C 208.03125 58.265625 209.476562 52.40625 210.046875 47.21875 C 212.902344 44.585938 213.585938 38.785156 211.195312 35.667969 C 218.960938 -0.0351562 160.960938 7.207031 175.996094 39.832031 C 169.988281 40.976562 176.480469 53.523438 181.273438 51.082031 C 182.234375 55.867188 182.84375 60.695312 183.105469 65.566406 C 180.394531 66.902344 179.878906 69.746094 180.183594 72.523438 C 176.75 74.792969 173.191406 76.554688 169.148438 77.214844 C 165.167969 79.492188 162.328125 82.933594 157.902344 84.691406 C 155.59375 84.132812 153.820312 86.066406 152.300781 87.523438 C 146.539062 88.378906 140.351562 86.960938 135.726562 91.257812 C 127.441406 96.203125 116.265625 96.027344 109.054688 102.921875 C 107.597656 102.265625 106.277344 101.402344 105.089844 100.339844 C 107.332031 96.542969 101.902344 95.53125 99.75 93.632812 C 95.5625 89.570312 89.886719 91.304688 84.828125 91.820312 C 80.261719 91.949219 75.507812 92.289062 72.171875 95.949219 C 47.566406 100.132812 64.921875 140.085938 66.527344 155.226562 C 66.925781 161.035156 54.234375 168.476562 53.269531 160.296875 L 51.980469 159.929688 C 49.972656 166.96875 57.976562 169.433594 63.3125 167.082031 C 62.1875 171.429688 59.519531 177.726562 55.40625 171.664062 C 56.371094 177.121094 61.238281 182.359375 65.949219 176.707031 C 66.269531 184.363281 74.476562 189.890625 81.523438 186.398438 C 91.050781 189.421875 99.316406 181.558594 100.660156 172.4375 C 103.800781 170.773438 105.632812 167.460938 106.972656 164.277344 C 105.375 165.746094 103.277344 167.804688 100.886719 166.910156 C 103.925781 166.367188 105.914062 163.542969 106.523438 160.683594 C 105.609375 160.960938 104.679688 161.039062 103.734375 160.910156 C 102.789062 160.785156 101.910156 160.464844 101.105469 159.953125 C 104.527344 160.066406 107.09375 157.3125 108.585938 154.539062 C 106.007812 158.988281 99.023438 161.230469 95.832031 156.3125 C 93.757812 151.378906 95.988281 145.691406 94.867188 140.511719 C 94.996094 144.054688 94.210938 147.519531 94.0625 151.0625 C 93.941406 144.152344 94.222656 137.09375 92.613281 130.316406 C 95.644531 142.113281 88.648438 157.609375 98.320312 166.949219 L 98.328125 166.949219 C 99.089844 167.539062 99.941406 167.929688 100.882812 168.125 C 101.828125 168.324219 102.765625 168.304688 103.699219 168.066406 C 99.625 175.019531 87.1875 174.078125 86.035156 165.464844 C 85.636719 160.277344 87.835938 155.136719 87.617188 149.910156 C 84.859375 160.621094 82.867188 178.152344 99.761719 172.890625 C 97.375 180.253906 91.289062 186.835938 82.957031 185.546875 C 85.398438 183.945312 86.679688 180.914062 87.773438 178.292969 C 84.464844 181.867188 78.363281 182.832031 76.222656 177.539062 C 77.523438 165.898438 86.472656 154.648438 82.519531 141.878906 C 87.382812 157.796875 62.320312 183.277344 83.542969 182.808594 C 76.675781 190.449219 65.867188 182.761719 66.8125 173.640625 C 66.257812 167.605469 68.75 161.910156 69.390625 156.011719 C 68.996094 158.933594 67.746094 161.640625 67.03125 164.492188 C 63.535156 167.335938 55.964844 168.863281 53.394531 164.253906 C 59.226562 168.003906 67.804688 161.878906 68.40625 155.484375 C 69.363281 147.707031 64.035156 141.058594 62.949219 133.566406 C 62.023438 121.929688 55.761719 98.335938 72.6875 96.605469 C 75.257812 94.769531 78.234375 93.070312 81.472656 93.347656 C 81.472656 93.347656 81.472656 93.339844 81.480469 93.347656 C 84.21875 93.652344 87.257812 94.460938 90.03125 94.492188 C 91.230469 94.65625 93.09375 93.59375 93.628906 95.195312 C 85.289062 94.898438 92.113281 101.730469 96.84375 99.03125 C 123.824219 115.558594 98.855469 132.292969 110.167969 136.289062 C 100.191406 131.421875 125.996094 114.515625 97.203125 98.894531 C 98.074219 98.542969 99.699219 97.421875 98.804688 96.40625 C 98.378906 101.5 83.925781 96.5 94.191406 95.351562 C 94.039062 95.292969 93.878906 95.246094 93.714844 95.214844 C 92.691406 92.566406 88.140625 94.152344 85.808594 92.84375 C 91.328125 91.871094 96.464844 91.929688 100.988281 95.65625 C 103.742188 96.832031 106.179688 97.824219 104.777344 101.28125 C 104.855469 101.015625 104.945312 100.75 105.046875 100.488281 C 106.03125 101.6875 107.1875 102.679688 108.523438 103.46875 L 108.527344 103.46875 C 111.550781 105.429688 115.054688 106.367188 118.3125 107.820312 C 118.320312 107.824219 118.320312 107.824219 118.324219 107.820312 C 118.328125 107.824219 118.335938 107.824219 118.339844 107.820312 C 123.097656 110.753906 127.996094 113.5625 133.824219 113.140625 C 133.425781 113.320312 133.035156 113.519531 132.65625 113.742188 C 112.34375 118.054688 125.628906 143.433594 141.003906 144.4375 C 138.175781 151.003906 130.957031 155.515625 124.09375 151.960938 C 124.339844 145.492188 115.421875 144.992188 110.972656 143.242188 C 109.890625 140.839844 107.898438 137.382812 104.742188 138.320312 C 105.90625 131.011719 108.085938 123.085938 103.539062 116.386719 C 104.625 119.015625 105.261719 121.75 105.445312 124.589844 C 105.625 127.433594 105.347656 130.226562 104.605469 132.972656 C 104.695312 130.953125 104.523438 128.953125 104.089844 126.976562 C 104.140625 131.78125 99.351562 155.191406 109.382812 148.273438 C 105.628906 152.304688 103.476562 144.332031 104.222656 141.347656 C 104.804688 142.507812 105.40625 144.210938 107.03125 144.140625 C 106.496094 144.015625 106.046875 143.753906 105.671875 143.355469 C 105.300781 142.953125 105.074219 142.480469 104.992188 141.941406 C 105.296875 142 105.585938 142.105469 105.855469 142.257812 C 106.121094 142.414062 106.359375 142.609375 106.5625 142.84375 C 106.765625 143.078125 106.925781 143.335938 107.039062 143.625 C 107.15625 143.914062 107.21875 144.210938 107.234375 144.523438 C 108.019531 149.929688 114.746094 150.550781 119.136719 151.519531 C 126.6875 154.925781 131.5625 160.5 136.167969 167.222656 C 140.359375 171.136719 146.871094 175.429688 145.882812 181.929688 C 116.085938 206.289062 103.355469 247.347656 81.738281 278.425781 C 60.480469 314.03125 27.894531 311.785156 57.421875 324.726562 C 46.171875 331.195312 86.640625 344.367188 91.535156 345.855469 C 103.539062 349.921875 116.914062 352.882812 128.683594 346.535156 C 125.394531 351.210938 124.144531 357.632812 128.207031 362.265625 C 127.570312 364.824219 126.675781 369.109375 130.675781 368.71875 C 128.792969 373.171875 135.113281 373.863281 134.492188 369.1875 C 147.773438 371.074219 149.742188 368.445312 143.707031 356.910156 C 143.53125 352.84375 143.867188 348.820312 144.707031 344.839844 C 144.839844 344.8125 144.972656 344.769531 145.109375 344.730469 C 151.679688 346.472656 160.960938 349.828125 166.714844 344.835938 C 167.066406 344.78125 167.421875 344.722656 167.773438 344.667969 C 166.71875 347.175781 166.152344 350.460938 169.949219 350.316406 C 166.878906 354.039062 167.011719 359.585938 163.011719 362.738281 C 160.933594 364.140625 159.554688 367.0625 161.476562 369.136719 C 166.445312 373.140625 180.453125 374.96875 181.355469 366.257812 C 188.304688 365.730469 186.8125 355.472656 186.074219 350.359375 C 191.5 349.011719 188.675781 342.871094 189.003906 338.984375 C 220.71875 343.882812 221.0625 330.945312 248.109375 329.023438 C 249.847656 330.503906 251.34375 332.203125 252.59375 334.113281 C 253.847656 336.023438 254.804688 338.070312 255.472656 340.257812 C 245.324219 348.28125 258.9375 358.421875 256.3125 367.707031 C 263.507812 368.957031 261.945312 365.214844 260.242188 360.3125 C 261.402344 352.3125 269.578125 362.207031 272.070312 364.808594 C 282.226562 374.761719 312.148438 373.398438 285.917969 359.328125 C 278.960938 346.667969 270.328125 335.339844 262.273438 323.464844 C 284.695312 309.695312 304.910156 308.886719 271.136719 288.957031 C 274.464844 286.636719 274.421875 282.097656 274.40625 278.492188 C 275.730469 285.039062 284.636719 285.027344 285.730469 291.757812 C 287.78125 298.664062 291.59375 304.898438 295.839844 310.640625 C 300.917969 317.71875 303.597656 326.449219 310.175781 332.507812 C 310.375 332.953125 310.613281 333.371094 310.898438 333.761719 C 308.675781 339.453125 313.269531 350.664062 320.464844 347.425781 C 322.683594 354.152344 322.4375 362.839844 329.476562 366.964844 C 334.375 369.765625 346.859375 371.113281 344.644531 362.269531 Z M 97.210938 164.28125 C 95.09375 161.566406 94.507812 158.003906 94.242188 154.625 C 94.566406 157.574219 97.152344 159.566406 99.992188 159.855469 C 100.640625 160.578125 101.417969 161.117188 102.320312 161.472656 C 103.222656 161.828125 104.160156 161.964844 105.125 161.878906 C 104.921875 162.484375 104.636719 163.050781 104.269531 163.570312 C 103.902344 164.09375 103.464844 164.550781 102.960938 164.945312 C 102.460938 165.339844 101.910156 165.652344 101.316406 165.886719 C 100.722656 166.121094 100.105469 166.261719 99.46875 166.316406 C 98.589844 165.777344 97.839844 165.101562 97.210938 164.28125 Z M 65.035156 166.273438 C 65.695312 165.890625 66.320312 165.449219 66.898438 164.949219 C 65.984375 168.222656 65.609375 171.554688 65.78125 174.945312 C 63.761719 177.933594 59.765625 179.214844 58.023438 175.296875 C 62.210938 175.769531 62.984375 169.964844 63.671875 166.949219 C 64.140625 166.753906 64.59375 166.527344 65.035156 166.273438 Z M 214.707031 69.027344 C 223.21875 73.363281 235.335938 71.980469 240.921875 81.320312 C 241.046875 86.003906 245.617188 88.609375 246.660156 92.535156 C 246.179688 95.785156 248.515625 98.65625 247.539062 101.894531 C 245.316406 106.671875 238.671875 110.738281 233.347656 109.230469 C 234.0625 109.566406 234.808594 109.792969 235.589844 109.902344 C 235.007812 111.101562 234.488281 112.324219 234.035156 113.578125 C 233.570312 112.625 233.058594 111.707031 232.515625 110.789062 C 235.371094 116.648438 232.570312 121.921875 231.132812 127.71875 C 229.554688 125.773438 228.300781 123.640625 227.371094 121.316406 C 236.570312 142.726562 241.753906 165.980469 254.191406 186.292969 C 240.960938 174.085938 237.445312 154.960938 224.1875 143.09375 C 225.863281 142.339844 227.574219 141.691406 229.328125 141.148438 C 217.488281 142.660156 208.0625 153.125 197.707031 155.832031 C 195.773438 153.621094 194.113281 151.226562 192.71875 148.640625 C 191.324219 146.054688 190.238281 143.347656 189.453125 140.519531 C 188.667969 137.6875 188.207031 134.804688 188.074219 131.871094 C 187.9375 128.9375 188.128906 126.027344 188.652344 123.136719 C 187.414062 109.074219 192.125 96.949219 203.90625 88.691406 C 212.421875 96.324219 227.789062 110.191406 239.914062 108.050781 C 229.941406 107.804688 221.902344 98.660156 212.683594 95.175781 C 216.214844 97.5625 220.882812 97.808594 224.25 94.953125 C 224.640625 95.632812 225.214844 96.082031 225.976562 96.289062 C 222.445312 91.511719 224.195312 83.515625 218.425781 79.5625 C 222.03125 82.203125 226.535156 82.558594 230.691406 83.425781 C 232.871094 84.753906 235.261719 86.144531 237.960938 85.804688 C 243.039062 86.328125 242.960938 92.589844 245.894531 95.648438 C 243.382812 88.605469 243.425781 84.007812 234.679688 83.355469 C 231.683594 81.3125 228.289062 80.835938 224.785156 80.609375 C 221.246094 80.207031 218.148438 77.222656 214.601562 77.355469 C 214.257812 76.535156 213.949219 75.691406 213.65625 74.835938 C 216.679688 75.507812 214.847656 71.027344 213.804688 69.894531 C 213.777344 69.34375 213.667969 68.8125 213.472656 68.296875 C 213.890625 68.53125 214.296875 68.777344 214.707031 69.027344 Z M 241.703125 173.609375 C 238.082031 170.679688 235.242188 166.320312 235.234375 161.542969 C 237.292969 165.605469 239.339844 169.707031 241.703125 173.609375 Z M 180.371094 144.933594 C 177.554688 141.742188 175.425781 137.570312 172.78125 134.238281 C 174.636719 137.863281 176.523438 141.878906 179.140625 145.015625 C 177.710938 145.097656 176.300781 145.140625 174.859375 145.109375 C 172.507812 138.453125 169.667969 131.542969 171.574219 124.402344 C 178.8125 121.339844 183.496094 114.25 187.859375 108.03125 C 187.816406 120.09375 182.964844 133.40625 189.0625 144.550781 C 186.246094 144.054688 183.210938 144.773438 180.371094 144.933594 Z M 170.363281 135.585938 C 167.691406 132.925781 167.773438 129.511719 167.390625 126.007812 C 168.457031 125.613281 169.53125 125.207031 170.601562 124.796875 C 169.523438 128.371094 169.445312 131.96875 170.363281 135.585938 Z M 202.832031 85.464844 C 192.058594 84.832031 194.582031 80.835938 203.652344 80.792969 C 200.925781 80.589844 197.296875 79.226562 195.050781 81.507812 C 193.207031 76.257812 200.171875 76.335938 203.652344 76.132812 C 200.957031 75.25 197.789062 75.011719 195.175781 76.382812 C 194.804688 74.644531 196.199219 72.84375 197.695312 72.03125 L 197.695312 72.027344 C 200.90625 70.421875 204.6875 71.96875 208.164062 71.378906 C 204.824219 70.789062 201.203125 69.335938 197.886719 70.464844 C 206.839844 59.058594 212.203125 75.605469 216.273438 82.023438 C 216.664062 84.78125 215.730469 87.011719 215.0625 89.59375 C 210.65625 92.648438 205.59375 90.15625 203.167969 85.882812 C 203.535156 85.886719 203.917969 85.894531 204.292969 85.886719 C 203.8125 85.71875 203.324219 85.578125 202.832031 85.464844 Z M 213.585938 71.074219 C 213.953125 71.949219 215.246094 74.96875 213.328125 73.839844 C 213.121094 73.230469 212.910156 72.601562 212.648438 71.980469 C 213.097656 71.820312 213.410156 71.519531 213.585938 71.074219 Z M 214.734375 95.441406 C 212.667969 93.984375 210.652344 92.394531 208.203125 91.605469 C 208.800781 91.808594 209.414062 91.925781 210.046875 91.964844 C 210.675781 92 211.300781 91.953125 211.917969 91.824219 C 212.539062 91.691406 213.128906 91.480469 213.6875 91.191406 C 214.25 90.902344 214.761719 90.542969 215.230469 90.113281 C 216.929688 92.21875 219.851562 92.898438 222.328125 93.683594 C 220.667969 92.234375 215.820312 91.324219 216.273438 88.886719 L 216.113281 88.988281 C 217.066406 87.128906 217.347656 85.171875 216.960938 83.117188 C 216.796875 81.914062 216.644531 80.574219 215.855469 79.609375 C 215.972656 79.828125 216.050781 80.058594 216.085938 80.304688 C 215.734375 79.726562 215.414062 79.125 215.113281 78.515625 C 221.402344 81.414062 221.921875 89.089844 224.152344 94.792969 C 221.449219 96.390625 217.476562 97.304688 214.734375 95.441406 Z M 216.378906 78.460938 C 215.890625 78.273438 215.390625 78.121094 214.878906 78.011719 C 214.84375 77.933594 214.8125 77.859375 214.785156 77.777344 C 215.675781 77.710938 216.5625 78.410156 217.273438 78.859375 C 216.980469 78.714844 216.675781 78.582031 216.378906 78.460938 Z M 209.386719 64.15625 C 210.828125 65.339844 211.914062 66.789062 212.640625 68.507812 C 212.621094 68.480469 212.597656 68.457031 212.574219 68.433594 C 212.914062 69.371094 213.527344 70.855469 212.402344 71.441406 C 210.53125 67.859375 205.257812 63.921875 201.257812 66.429688 C 201.601562 66.175781 201.9375 65.925781 202.289062 65.671875 L 202.296875 65.671875 C 204.3125 64.148438 207.046875 62.296875 209.386719 64.15625 Z M 204.929688 61.839844 C 206.085938 61.101562 207.335938 61.042969 207.910156 62.476562 C 207.316406 62.367188 206.726562 62.386719 206.140625 62.527344 C 205.65625 62.339844 205.171875 62.160156 204.695312 61.964844 C 204.777344 61.917969 204.847656 61.878906 204.929688 61.839844 Z M 203.675781 62.503906 C 204.152344 62.65625 204.632812 62.785156 205.125 62.886719 C 203.917969 63.503906 202.816406 64.273438 201.824219 65.191406 C 198.96875 62.835938 200.253906 60.632812 203.679688 62.503906 Z M 208.398438 50.488281 C 207.390625 54.433594 205.816406 58.914062 202.035156 60.914062 C 201.191406 60.644531 199.921875 60.613281 199.5 61.609375 C 188.183594 61.683594 181.632812 51.457031 179.90625 41.339844 C 179.898438 41.335938 179.898438 41.332031 179.90625 41.328125 C 179.441406 37.355469 182.714844 34.246094 182.902344 30.785156 C 178.1875 26.429688 187.128906 21.710938 191.363281 23.21875 C 195.988281 23.835938 201.675781 20.484375 205.507812 24.101562 C 210.496094 31.761719 209.722656 41.832031 208.402344 50.488281 Z M 211.230469 40.828125 C 211.199219 42.710938 210.824219 44.519531 210.105469 46.261719 C 210.21875 43.042969 210.113281 39.832031 209.78125 36.628906 C 211.761719 35.53125 211.078125 39.644531 211.234375 40.824219 Z M 176.15625 38.898438 C 165.769531 8.851562 215.671875 3.507812 210.742188 35.507812 C 210.363281 35.503906 210.03125 35.632812 209.75 35.890625 C 209.730469 33.972656 209.46875 32.089844 208.964844 30.238281 C 208.96875 30.230469 208.96875 30.230469 208.964844 30.226562 C 208.023438 25.054688 204.757812 19.992188 198.792969 21.429688 C 192.925781 23.125 184.425781 19.445312 181.152344 26.347656 C 180.378906 27.835938 180.035156 30.328125 181.976562 31.125 C 181.878906 33.773438 179.132812 36.996094 179.683594 40.265625 C 179.675781 40.273438 179.675781 40.273438 179.683594 40.28125 C 179.644531 40.976562 179.648438 41.675781 179.691406 42.371094 C 178.902344 41.136719 177.9375 40.054688 176.800781 39.136719 C 177.128906 39.605469 177.425781 40.082031 177.726562 40.558594 C 177.367188 40.273438 176.96875 40.0625 176.535156 39.921875 C 176.394531 39.585938 176.269531 39.242188 176.15625 38.898438 Z M 183.101562 55.722656 C 182.5625 53.359375 181.808594 51.066406 180.839844 48.847656 C 180.988281 49.539062 181.117188 50.230469 181.246094 50.925781 C 177.3125 51.832031 171.550781 38.492188 178.167969 41.234375 C 178.753906 42.136719 179.652344 43.527344 180.265625 44.382812 C 181.585938 54.207031 189.074219 62.886719 199.457031 62.910156 C 199.503906 63.113281 199.5625 63.308594 199.628906 63.503906 C 194.816406 66.164062 189.582031 68.328125 185.304688 71.84375 C 185.050781 71.609375 184.78125 71.390625 184.5 71.195312 C 184.5 66.023438 184.4375 60.726562 183.101562 55.722656 Z M 181.679688 68.605469 C 182.039062 67.785156 182.535156 67.066406 183.175781 66.449219 C 183.277344 67.789062 183.386719 69.121094 183.507812 70.457031 C 182.8125 69.90625 181.914062 69.226562 182.058594 68.226562 C 181.703125 70.253906 184.277344 71.242188 185.234375 72.703125 C 189.851562 69.375 195.253906 67.300781 200.144531 64.421875 C 200.511719 64.890625 200.980469 65.226562 201.539062 65.429688 C 200.054688 66.988281 197.585938 68.320312 197.445312 70.675781 C 196.769531 71.003906 196.179688 71.449219 195.679688 72.007812 C 195.175781 72.5625 194.792969 73.195312 194.535156 73.898438 C 193.964844 74.394531 193.433594 74.921875 192.847656 75.351562 C 191.5 71.234375 186.25 70.441406 185.625 75.363281 C 190.148438 67.574219 190.769531 79.738281 194.289062 75.765625 C 194.324219 76.152344 194.449219 76.5 194.667969 76.820312 C 193.421875 78.222656 193.1875 80.914062 194.652344 82.195312 C 194.460938 82.652344 194.367188 83.132812 194.375 83.632812 C 190.054688 90.082031 182.742188 93.988281 176.765625 98.789062 C 178 91.519531 176.433594 82.898438 180.867188 76.8125 C 182.273438 77.609375 182.976562 74.953125 183.167969 74.171875 C 183.832031 74.554688 184.203125 75.523438 184.589844 76.203125 C 184.65625 74.085938 182.8125 72.128906 181.789062 74.902344 C 181.742188 74.992188 181.691406 75.085938 181.632812 75.171875 C 181.765625 73.003906 181.324219 70.726562 181.679688 68.605469 Z M 128.285156 111.59375 C 125.429688 111 123.320312 109.074219 120.8125 107.652344 C 125.488281 107.324219 129.480469 104.714844 133.023438 101.835938 C 132.550781 103.085938 132.300781 104.378906 132.277344 105.714844 C 132.9375 104.238281 133.421875 102.699219 133.929688 101.191406 L 133.9375 101.191406 C 137.027344 98.925781 140.265625 96.894531 143.648438 95.097656 C 145.296875 97.109375 147.90625 95.457031 149.722656 94.707031 C 149.9375 94.980469 150.195312 95.207031 150.5 95.382812 C 150.800781 95.554688 151.125 95.667969 151.472656 95.71875 C 151.816406 95.769531 152.160156 95.753906 152.5 95.671875 C 152.839844 95.589844 153.152344 95.449219 153.4375 95.25 C 153.570312 95.632812 153.703125 96.027344 153.816406 96.433594 C 153.886719 95.910156 153.898438 95.382812 153.863281 94.859375 C 154.140625 94.554688 154.285156 94.195312 154.304688 93.785156 C 152.652344 95.671875 150.6875 94.253906 148.792969 93.785156 C 148.933594 93.933594 149.074219 94.082031 149.203125 94.207031 C 147.46875 94.410156 145.578125 95.851562 144.023438 94.613281 L 144.019531 94.613281 C 143.644531 94.296875 143.320312 93.941406 143.039062 93.539062 C 143.082031 93.988281 143.214844 94.40625 143.4375 94.792969 C 140.261719 95.929688 137.273438 97.4375 134.472656 99.308594 C 129.835938 102.421875 125.5625 106.390625 119.765625 107.085938 C 116.503906 105.425781 112.835938 104.769531 109.550781 103.148438 C 117.359375 97.242188 128.394531 97.949219 136.65625 92.628906 C 141.046875 88.382812 146.632812 89.664062 151.996094 88.15625 C 151.734375 89.238281 151.78125 90.3125 152.128906 91.371094 C 150.359375 90.988281 148.777344 90.816406 147.027344 90.261719 C 148.902344 92.566406 152.007812 91.675781 154.304688 93.246094 C 154.121094 92.816406 153.84375 92.457031 153.476562 92.167969 C 153.324219 90.738281 152.574219 88.851562 153.800781 87.816406 L 153.808594 87.816406 C 154.761719 86.9375 155.75 85.503906 157.058594 85.171875 C 157.039062 85.183594 157.019531 85.191406 157.003906 85.207031 C 157.25 85.152344 157.488281 85.09375 157.726562 85.042969 C 157.746094 85.03125 157.765625 85.03125 157.785156 85.035156 C 162.421875 84.433594 166.050781 81.449219 169.800781 79.058594 C 173.765625 78.542969 177.246094 76.519531 180.195312 73.910156 C 180.167969 74.6875 180.253906 75.453125 180.453125 76.207031 C 174.632812 82.246094 176.136719 92.015625 175.273438 99.847656 C 171.089844 102.949219 166.304688 105.453125 163.101562 109.695312 C 162.96875 104.695312 161.683594 100.011719 159.25 95.644531 C 160.761719 100.429688 161.800781 105.316406 162.375 110.304688 C 160.816406 110.296875 159.28125 110.460938 157.761719 110.800781 C 157.671875 108.53125 157.175781 106.355469 156.273438 104.273438 C 156.457031 106.539062 156.929688 108.691406 157.238281 110.914062 C 147.90625 113.542969 137.707031 112.722656 128.285156 111.59375 Z M 136.417969 113.109375 C 145.199219 114.082031 153.402344 113.84375 161.972656 111.300781 C 161.839844 111.511719 161.707031 111.730469 161.582031 111.949219 C 171.667969 101.917969 187.109375 97.417969 194.851562 84.871094 C 196.917969 86.753906 200.152344 85.722656 202.644531 85.875 C 202.859375 86.566406 203.125 87.234375 203.453125 87.878906 C 197.488281 91.746094 192.679688 97.226562 188.554688 102.945312 C 174.839844 128.507812 160.246094 122.632812 142.621094 135.269531 C 143.738281 133.296875 146.042969 132.257812 148.210938 131.984375 C 146.925781 135.171875 144.757812 142.707031 140.269531 140.832031 C 129.722656 137.929688 118.179688 123.992188 130.179688 115.582031 C 130.140625 115.621094 130.09375 115.664062 130.054688 115.703125 C 131.699219 114.484375 133.527344 113.667969 135.53125 113.253906 C 135.617188 113.246094 135.695312 113.246094 135.78125 113.246094 C 135.734375 113.238281 135.691406 113.238281 135.644531 113.234375 C 135.898438 113.183594 136.160156 113.144531 136.417969 113.109375 Z M 114.664062 149.257812 C 111.925781 149.039062 109.480469 147.914062 108.585938 145.027344 C 108.59375 145.621094 108.695312 146.203125 108.878906 146.769531 C 107.539062 145.042969 108.914062 141.929688 106.214844 141.042969 C 105.855469 140.972656 105.542969 140.816406 105.277344 140.566406 C 105.011719 140.320312 104.832031 140.019531 104.738281 139.664062 C 107.835938 138.492188 109.699219 142.328125 111.375 144.386719 C 111.300781 144.148438 111.222656 143.910156 111.128906 143.675781 C 114.972656 146.015625 121.464844 146.402344 123.015625 151.363281 C 120.695312 150.117188 118.402344 148.519531 115.640625 148.277344 C 117.117188 149.054688 118.699219 149.546875 119.996094 150.582031 C 118.257812 149.980469 116.480469 149.539062 114.664062 149.257812 Z M 142.046875 355.796875 C 141 360.066406 146.28125 362.449219 145.652344 366.253906 C 144.855469 363.53125 140.816406 364.546875 139.460938 362.019531 C 140.324219 365.085938 144.472656 363.96875 145.59375 366.488281 C 143.464844 369.875 138.039062 367.96875 134.632812 368.097656 C 134.960938 363.394531 140.167969 360.988281 140.4375 356.261719 C 138.25 361.535156 132.542969 364.597656 132.890625 371.011719 C 129.058594 371.285156 136.199219 363.382812 127.96875 359.925781 C 130.613281 361.972656 132.078125 364.457031 130.859375 367.820312 C 127.207031 368.429688 128.386719 364.339844 128.636719 362.042969 C 125.210938 356.71875 127.511719 350.914062 130.820312 346.1875 C 131.6875 346.089844 132.550781 346.027344 133.421875 345.96875 C 132.296875 346.355469 131.238281 346.875 130.246094 347.53125 C 136.195312 344.621094 139.015625 350.4375 142.035156 354.492188 L 142.035156 354.5 C 142.03125 354.9375 142.039062 355.367188 142.046875 355.796875 Z M 142.074219 352.679688 C 140.316406 350.148438 138.71875 346.867188 135.597656 345.847656 C 138.082031 345.769531 140.558594 345.546875 143.019531 345.183594 C 142.492188 347.65625 142.175781 350.152344 142.074219 352.679688 Z M 185.339844 358.476562 C 184.410156 361.679688 185.675781 364.984375 181.535156 365.699219 C 181.746094 365.074219 182.054688 364.503906 182.460938 363.984375 C 180.5 365.710938 180.804688 369.105469 178.511719 370.425781 C 173.628906 371.488281 166.734375 371.390625 162.726562 368.148438 C 161.277344 366.449219 162.847656 364.988281 164.164062 363.925781 C 168.511719 360.53125 168.191406 354.425781 171.578125 350.5 C 176.035156 350.933594 180.527344 351.679688 185.023438 350.660156 C 185.429688 353.253906 185.535156 355.859375 185.339844 358.476562 Z M 187.476562 342.777344 C 189.8125 353 174.363281 348.359375 168.558594 348.203125 C 168.761719 346.980469 169.269531 345.730469 169.402344 344.4375 C 174.898438 342.65625 184.632812 345.800781 187.007812 339.03125 C 187.1875 339.023438 187.371094 339.015625 187.554688 339.015625 C 187.535156 340.074219 187.425781 341.738281 187.476562 342.777344 Z M 242.796875 328.613281 C 233.027344 327.039062 225.609375 332.980469 217.160156 336.390625 C 219.707031 331.207031 207.820312 335.800781 207.351562 330.871094 C 212.382812 326.871094 219.269531 325.390625 225.523438 324.246094 C 226.03125 324.460938 226.558594 324.605469 227.105469 324.675781 C 230.507812 329.976562 238.175781 324.847656 242.585938 323.296875 C 244.058594 325.058594 245.636719 326.71875 247.324219 328.277344 C 245.820312 328.464844 244.308594 328.582031 242.796875 328.617188 Z M 228.042969 324.046875 L 227.996094 323.886719 C 228.742188 323.738281 229.484375 323.726562 230.234375 323.863281 C 229.683594 324.34375 229.050781 324.644531 228.328125 324.761719 C 228.199219 324.539062 228.105469 324.300781 228.042969 324.050781 Z M 287.699219 361.207031 C 289.976562 363.578125 292.875 366.207031 295.101562 368.699219 C 287.675781 370.511719 278.648438 369.113281 272.570312 364.210938 C 265.9375 357.183594 256.273438 350.878906 260.429688 366.375 C 259.667969 366.429688 258.90625 366.429688 258.140625 366.382812 C 259.90625 359.53125 252.863281 355.019531 253.488281 348.5625 C 253.121094 332.898438 270.019531 348.722656 269.144531 356.546875 C 266.957031 355.3125 264.648438 354.402344 262.207031 353.820312 C 259.765625 353.238281 257.292969 353.007812 254.785156 353.125 C 263.195312 353.324219 270.285156 357.890625 277.28125 362.019531 L 275.546875 360.796875 C 279.535156 361.042969 283.957031 359.589844 287.699219 361.207031 Z M 262.449219 326.863281 C 270.277344 337.394531 277.691406 348.214844 284.796875 359.296875 C 281.464844 359.382812 278.21875 360.054688 274.921875 360.351562 C 273.234375 359.1875 271.058594 357.660156 269.304688 356.636719 C 270.148438 349.277344 262.882812 341.566406 256.335938 339.921875 C 254.929688 332.484375 248.53125 328.019531 243.753906 322.773438 C 248.332031 320.601562 253.019531 318.710938 257.820312 317.09375 C 259.148438 320.453125 260.691406 323.707031 262.449219 326.863281 Z M 273.855469 293.707031 C 303.214844 307.988281 275.164062 312.144531 261.570312 322.136719 C 260.621094 320.355469 259.734375 318.546875 258.910156 316.710938 C 268.378906 314.082031 278.628906 307.5 286.835938 304.769531 C 275.636719 308.34375 261.8125 315.035156 249.378906 318.847656 C 242.773438 320.671875 235.132812 327.996094 228.347656 324.796875 C 238.855469 320.496094 208.121094 324.699219 207.339844 330.839844 C 205.714844 316.800781 205.1875 302.5 203.117188 288.46875 C 204.007812 301.738281 204.820312 314.933594 205.320312 328.234375 C 204.863281 333.652344 209.707031 335.695312 214.355469 335.488281 C 200.515625 335.304688 187.277344 327.054688 173.453125 334.589844 C 160.539062 334.824219 147.773438 328.945312 134.59375 328.757812 C 128.472656 328.769531 120.4375 324.933594 115.203125 328.804688 C 118.488281 325.851562 123.820312 328.378906 127.773438 328.566406 C 127.136719 330.539062 126.789062 333.0625 125.503906 334.632812 C 122.871094 328.984375 110.792969 334.277344 116.761719 324.613281 C 127.445312 300.46875 136.453125 275.714844 143.777344 250.347656 C 134.679688 274.980469 125.480469 299.84375 115.746094 324.222656 C 109.890625 335.09375 121.910156 329.304688 125.5 334.632812 C 111.417969 325.867188 95.714844 335.824219 81.21875 331.261719 C 76.464844 327.90625 69.269531 327.253906 76.6875 333.703125 C 67.777344 323.320312 83.449219 334.5 87.730469 333.789062 C 94.695312 334.546875 101.597656 332.195312 108.4375 331.964844 C 117.84375 330.582031 127.578125 343.417969 129.347656 328.824219 C 144.464844 329.953125 158.792969 336.167969 173.785156 336.4375 C 186.414062 330.277344 198.140625 335.089844 210.785156 337.59375 C 202.945312 338.582031 194.960938 337.253906 187.089844 338.128906 C 187.074219 337.425781 186.976562 336.738281 186.796875 336.058594 C 186.875 345.785156 172.230469 340.34375 166.128906 343.558594 C 160.019531 348.574219 149.460938 344.054688 142.105469 343.410156 C 142.703125 343.726562 143.316406 344.011719 143.941406 344.265625 C 134.261719 343.964844 125.367188 346.074219 116.09375 348.320312 C 95.902344 347.480469 75.816406 338.71875 58.308594 329.050781 C 57.734375 328.527344 56.496094 327.851562 57.042969 327.167969 C 65.320312 319.6875 69.039062 308.351562 75.0625 299.128906 C 69.308594 307.105469 64.761719 315.957031 58.539062 323.566406 C 30.460938 310.796875 63.609375 318.351562 90.019531 269.636719 C 108.058594 241.074219 120.484375 204.519531 146.738281 182.539062 C 148.832031 175.453125 141.863281 170.152344 137.285156 165.9375 C 133.21875 160.964844 129.863281 154.484375 123.148438 152.527344 C 123.433594 152.53125 123.679688 152.429688 123.882812 152.234375 C 130.921875 157.332031 139.628906 152.023438 141.96875 144.554688 C 142.878906 144.648438 143.792969 144.660156 144.703125 144.582031 C 143.824219 144.570312 142.949219 144.492188 142.082031 144.34375 C 142.144531 144.238281 142.195312 144.128906 142.253906 144.023438 C 143.816406 143.371094 145.359375 142.511719 147.046875 142.25 C 145.214844 142.132812 143.429688 142.835938 141.695312 143.351562 C 141.515625 143.621094 141.332031 143.894531 141.15625 144.160156 C 127.660156 142.214844 113.808594 120.742188 131.488281 114.28125 C 108.863281 124.027344 144.769531 158.660156 148.878906 131.890625 C 154.949219 131.132812 160.636719 128.511719 166.324219 126.40625 C 165.84375 134.730469 172.878906 140.453125 174.316406 148.460938 C 174.945312 150.203125 176.03125 153.222656 176.664062 154.976562 C 177.007812 160.84375 183.546875 168.769531 181.296875 173.542969 C 197.257812 179.589844 200.378906 200.855469 210.789062 212.972656 C 232.59375 239.113281 248.167969 271.222656 273.855469 293.707031 Z M 309.386719 330.296875 L 309.386719 330.292969 C 304.007812 324.257812 301.945312 316.144531 297.296875 309.566406 C 292.203125 302.976562 289.304688 295.277344 286.382812 287.632812 C 280.664062 281.203125 277.675781 282.425781 274.039062 272.9375 L 274.039062 272.933594 C 257.597656 255.046875 245.886719 230.191406 222.667969 220.144531 C 240.027344 228.351562 249.625 245.824219 260.78125 260.601562 C 267.761719 267.625 277.875 277.945312 269.960938 287.859375 C 248.730469 264.261719 232.421875 236.488281 212.425781 211.8125 C 202.121094 199.457031 198.304688 180.007812 183.105469 172.609375 C 182.023438 163.820312 177.78125 154.753906 175.167969 145.988281 C 180.007812 147.171875 184.785156 145.792969 189.65625 145.859375 C 197.535156 170.8125 208.796875 147.34375 223.621094 143.347656 C 235.003906 152.097656 232.230469 168.425781 243.644531 176.523438 C 263.945312 195.601562 270.25 222.996094 281.035156 247.480469 C 290.394531 258.535156 298.539062 271.09375 306.871094 282.945312 C 313.613281 297.207031 319.066406 312.886719 328.472656 325.644531 C 333.835938 329.996094 316.992188 337.503906 313.648438 334.816406 C 313.640625 334.816406 313.640625 334.8125 313.632812 334.8125 C 313.15625 334.527344 312.722656 334.179688 312.34375 333.773438 C 312.371094 333.710938 312.398438 333.660156 312.421875 333.605469 C 312.171875 333.429688 311.933594 333.230469 311.714844 333.011719 C 311.714844 333.007812 311.714844 333.003906 311.707031 333.003906 C 311.640625 332.898438 311.570312 332.796875 311.511719 332.691406 C 311.492188 332.714844 311.476562 332.734375 311.464844 332.757812 C 310.753906 331.96875 310.070312 331.144531 309.386719 330.300781 Z M 342.53125 364.898438 C 342.515625 365.296875 342.382812 365.652344 342.132812 365.964844 C 323.441406 371.597656 326.433594 352.667969 317.933594 344.292969 C 318.757812 345.097656 319.492188 345.972656 320.148438 346.921875 C 314.101562 348.398438 311.449219 339.785156 311.96875 335.019531 C 317.304688 339.570312 324.132812 334.21875 328.878906 331.3125 C 334.667969 341.828125 341.671875 352.664062 342.53125 364.898438 Z M 342.53125 364.898438 " fill-opacity="1" fill-rule="nonzero"/><path fill="#000000" d="M 235.339844 273.511719 C 229.566406 262.757812 223.949219 251.957031 218.917969 240.824219 C 226.859375 263.984375 239.5 285.238281 252.59375 305.8125 C 247.070312 294.914062 241.074219 284.292969 235.339844 273.511719 Z M 235.339844 273.511719 " fill-opacity="1" fill-rule="nonzero"/><path fill="#000000" d="M 235.582031 208.910156 C 237.289062 208.824219 238.980469 208.679688 240.679688 208.472656 C 234.117188 207.890625 226.902344 207.957031 220.316406 207.699219 C 225.347656 208.851562 230.433594 209.253906 235.582031 208.910156 Z M 235.582031 208.910156 " fill-opacity="1" fill-rule="nonzero"/><path fill="#000000" d="M 235.914062 220.925781 C 232.527344 219.253906 229.214844 217.507812 225.945312 215.597656 C 228.871094 218.050781 232.042969 220.136719 235.453125 221.847656 C 238.867188 223.558594 242.433594 224.855469 246.148438 225.730469 C 242.691406 224.207031 239.296875 222.601562 235.914062 220.925781 Z M 235.914062 220.925781 " fill-opacity="1" fill-rule="nonzero"/></svg>