<?xml version="1.0" encoding="utf-8"?>
<!-- Generator: Adobe Illustrator 25.4.1, SVG Export Plug-In . SVG Version: 6.00 Build 0)  -->
<svg version="1.1" id="layer" xmlns="http://www.w3.org/2000/svg" xmlns:xlink="http://www.w3.org/1999/xlink" x="0px" y="0px"
	 viewBox="0 0 652 128" style="enable-background:new 0 0 652 128;" xml:space="preserve">
<style type="text/css">
	.st0{fill-rule:evenodd;clip-rule:evenodd;fill:#D53D96;}
</style>
<g>
	<path class="st0" d="M126.5,102.8H118V24.3c0,0,0-5.7-5.1-5.7c-4.7,0-45.8,0-45.8,0v-8.5h50.2c0,0,9.1,0,9.1,10.1
		C126.5,30.3,126.5,102.8,126.5,102.8"/>
	<path class="st0" d="M114.8,102.8h-8.7V35.4c0,0,0.5-5.2-4.5-5.2c-24.7,0-34.6,0-34.6,0v-8.4h43.2c0,0,4.5,0.3,4.5,5
		C114.8,30.1,114.8,102.8,114.8,102.8"/>
	<path class="st0" d="M103,102.8h-8.1V45.5c0,0,0.4-3.9-3.2-3.9c-6.5,0-24.6,0-24.6,0v-8.5h32.6c0,0,3.3,0.7,3.3,4.6
		C103,41.4,103,102.8,103,102.8"/>
	<path class="st0" d="M91.6,102.8h-8.5v-46c0,0,0.5-3.3-2.9-3.3c-8.7,0-13.1,0-13.1,0v-8.4h20c3.2,0,4.5,1,4.5,4.2
		C91.6,52.9,91.6,102.8,91.6,102.8"/>
	<path class="st0" d="M20.5,10.1H29v78.5c0,0,0,5.7,5.1,5.7c4.7,0,45.8,0,45.8,0v8.5H29.7c0,0-9.1,0-9.1-10.1
		C20.5,82.6,20.5,10.1,20.5,10.1"/>
	<path class="st0" d="M32.2,10.1h8.7v67.4c0,0-0.5,5.2,4.5,5.2c24.7,0,34.6,0,34.6,0v8.4H36.8c0,0-4.5-0.3-4.5-5
		C32.2,82.8,32.2,10.1,32.2,10.1"/>
	<path class="st0" d="M44,10.1h8.1v57.2c0,0-0.4,3.9,3.2,3.9c6.5,0,24.6,0,24.6,0v8.5H47.2c0,0-3.3-0.7-3.3-4.6c0-3.6,0-64.5,0-64.5
		L44,10.1L44,10.1z"/>
	<path class="st0" d="M55.4,10.1h8.5v46c0,0-0.5,3.3,2.9,3.3c8.7,0,13.1,0,13.1,0v8.4h-20c-3.2,0-4.5-1-4.5-4.2
		C55.3,60,55.4,10.1,55.4,10.1"/>
	<rect x="195.2" y="8.9" class="st0" width="11.2" height="11.1"/>
	<rect x="195.2" y="33.5" class="st0" width="11.2" height="69.3"/>
	<rect x="586.8" y="8.6" class="st0" width="10.9" height="94.3"/>
	<polygon class="st0" points="268.5,33.4 246,89.5 223.9,33.4 211.2,33.4 238.7,102.8 253.4,102.8 280.9,33.4 269.1,33.4 	"/>
	<path class="st0" d="M163.7,92.1c-3.3,0-5.8-2.9-5.8-6.6V8.9h-10.6v78.4c0,8.6,6.2,15.6,14.1,15.6h30.4V92.1H163.7z"/>
	<path class="st0" d="M373.1,44.7c-3.4,0-5.9,3-5.9,6.7v51.4h-10.8V49.6c0-8.7,6.3-15.8,14.2-15.8h13.1v10.9H373.1z"/>
	<path class="st0" d="M350.5,69.2v-2.1c0-20.1-16.4-36.4-36.5-36.4S277.5,47,277.5,67.1s16.4,36.4,36.5,36.4
		c17,0,31.5-11.4,35.5-27.8h-10.7c-3.7,10.5-13.6,17.6-24.8,17.6c-13.6,0-24.8-10.2-26.2-24h62.7V69.2z M289,59
		c3.7-11,13.8-18.1,25-18.1c11.1,0,21.3,7.1,24.9,18.1H289z"/>
	<path class="st0" d="M544.4,30.1c-13.3,0-24.9,7-31.5,17.6c-6.5-10.6-18.2-17.6-31.5-17.6s-24.9,7-31.5,17.6
		c-6.5-10.6-18.2-17.6-31.5-17.6c-20.4,0-36.9,16.6-36.9,37v60.2h11.2V93.6c6.7,6.5,15.8,10.5,25.8,10.5c13.3,0,25-7,31.5-17.6
		c6.5,10.6,18.2,17.6,31.5,17.6s25-7,31.5-17.6c6.5,10.6,18.2,17.6,31.5,17.6c20.4,0,37-16.6,37-37
		C581.4,46.7,564.8,30.1,544.4,30.1 M418.6,93.1c-14.3,0-25.9-11.6-25.9-26c0-14.3,11.6-26,25.9-26s25.9,11.6,25.9,26
		C444.5,81.4,432.8,93.1,418.6,93.1 M481.5,93.1c-14.3,0-25.9-11.6-25.9-26c0-14.3,11.6-26,25.9-26s25.9,11.6,25.9,26
		C507.4,81.4,495.8,93.1,481.5,93.1 M544.4,93.1c-14.3,0-25.9-11.6-25.9-26c0-14.3,11.6-26,25.9-26c14.3,0,25.9,11.6,25.9,26
		C570.3,81.4,558.7,93.1,544.4,93.1"/>
	<path class="st0" d="M611.4,25.3c-5,0-9-4-9-8.9s4-8.9,9-8.9s9,4,9,8.9C620.5,21.4,616.4,25.3,611.4,25.3 M611.4,9
		c-4.1,0-7.5,3.3-7.5,7.4s3.3,7.4,7.5,7.4s7.5-3.3,7.5-7.4C619,12.3,615.6,9,611.4,9 M607.5,11.8h4.3c2.4,0,3.2,1.5,3.2,2.5
		c0,1.5-1.1,2.7-2.8,2.7v0.1c0.8,0.3,1.4,1.1,2.2,2.4l1.2,1.9h-1.9l-0.9-1.5c-1.2-2.2-1.7-2.6-2.9-2.6H609v4h-1.6v-9.5H607.5z
		 M611.3,16c1.2,0,2-0.5,2-1.4s-0.7-1.4-1.7-1.4h-2.5v2.9h2.2V16z"/>
</g>
</svg>
