<?xml version="1.0" encoding="utf-8"?>
<!-- Generator: Adobe Illustrator 25.4.1, SVG Export Plug-In . SVG Version: 6.00 Build 0)  -->
<svg version="1.1" id="Capa_1" xmlns="http://www.w3.org/2000/svg" xmlns:xlink="http://www.w3.org/1999/xlink" x="0px" y="0px"
	 viewBox="0 0 496 483.1" style="enable-background:new 0 0 496 483.1;" xml:space="preserve">
<style type="text/css">
	.st0{fill:#FFFFFF;}
</style>
<g>
	<path class="st0" d="M85.5,58.1c0-2.9,0-5.4,0-7.8c0.1-8.9-0.2-17.8,0.3-26.7C86.7,9.9,98.7-0.3,112.6,0
		c13.6,0.3,25.1,11.6,25.4,25.1c0.2,10.6,0.1,21.2,0.2,31.9c0,0.1,0.1,0.3,0.4,0.7h219.1v-4.5c0-9.1-0.1-18.1,0-27.2
		c0.1-14.1,11.3-25.6,25.5-26c14.1-0.6,26.1,10.3,26.9,24.4c0.5,9.3,0.2,18.7,0.2,28.1c0,1.7,0,3.3,0,5.5h5.7c16.6,0,33.1,0,49.7,0
		c15.6-0.2,28.6,11.7,29.9,27.2c0.2,1.7,0.2,3.4,0.2,5.1c0,119.8,0,239.7,0,359.5c0,8.1-1.5,15.5-6.8,21.9
		c-6.5,7.9-15,11.2-25.2,11.2c-107.2,0-214.4,0-321.5,0H31.9C12.9,483,0,470.5,0,451.4C0,330.8,0,210.2,0,89.5C0,70.4,12.8,58,32,58
		L85.5,58.1L85.5,58.1z M15.5,146.4c-0.1,1.6-0.2,2.7-0.2,3.8c0,100.8,0.1,201.5,0.2,302.3c0,3.8,2.3,8,4.7,11.2
		c3.4,4.4,9,4.5,14.2,4.5c109,0,218.1,0,327.1,0c33.9,0,67.8,0,101.7,0c11.7,0,17.6-6,17.6-17.5c0-99.5,0-199,0-298.5v-5.6
		L15.5,146.4z M15.2,130.9h465c0.2-0.5,0.4-1,0.5-1.6c0-14.1,0.2-28.1-0.1-42.2c-0.1-8-6.4-13.9-14.7-14c-17.3-0.2-34.7,0-52-0.1
		c-2.7,0-3.6,1-3.5,3.6c0.1,3.7,0.1,7.5,0,11.2c-0.5,15.5-12,26.4-27.2,26.2c-14.3-0.2-25.4-12-25.4-27c0-4.5,0-9,0-13.7H138.1V88
		c0.1,6.7-2.4,13.1-7.1,17.8c-7.9,8-17.4,10.5-27.9,6.7s-16.6-11.6-17.4-22.8c-0.4-5.4-0.1-10.8-0.1-16.5c-19.7,0-38.6-0.3-57.4,0.2
		c-7.6,0.2-12.8,7-13,14.7c-0.1,3.6,0,7.2,0,10.8L15.2,130.9z M395.3,57.2c0-9.8,0-19.7,0-29.5c0-7.5-4.3-12.4-11-12.5
		c-6.4-0.1-11.4,5-11.4,12.2c-0.1,19.8-0.1,39.7,0,59.5c0,7.1,5.1,12.3,11.5,12.1s10.8-5.2,10.8-12.2
		C395.3,76.9,395.3,67,395.3,57.2z M100.7,56.8c0,9.8,0,19.7,0,29.5c0,7.6,4.7,12.8,11.4,12.7c6.4-0.1,11-5.3,11-12.6
		c0-19.5,0-39,0-58.5c0-7.5-4.9-12.8-11.5-12.6s-10.9,5.2-10.9,12.6C100.7,37.4,100.7,47.1,100.7,56.8L100.7,56.8z"/>
	<path class="st0" d="M230.5,213.8c0,9.5,0,19,0,28.5c0,6.2-2.5,9.1-8.7,9.1c-19.2,0.2-38.4,0.2-57.6,0c-6.4,0-8.9-2.9-8.9-9.4
		c0-18.9,0-37.8,0-56.6c0-6.7,2.6-9.3,9.4-9.3c18.9,0,37.8,0,56.6,0c6.4,0,9.1,2.6,9.1,9.1C230.6,194.8,230.5,204.3,230.5,213.8z
		 M170.7,191.7v44.1H215v-44.1L170.7,191.7L170.7,191.7z"/>
	<path class="st0" d="M265.5,214.2c0-9.5,0-19.1,0-28.6c0-6.8,2.6-9.4,9.3-9.5c18.8,0,37.5,0,56.2,0c7.2,0,9.7,2.5,9.7,9.6
		c0,18.9,0,37.8,0,56.7c0,6.1-2.6,9-8.8,9c-19.2,0.1-38.4,0.1-57.6,0c-6.1,0-8.7-3-8.8-9.1C265.4,233,265.5,223.6,265.5,214.2z
		 M281,191.7V236h44.4v-44.3H281z"/>
	<path class="st0" d="M450.8,213.9c0,9.5,0,19.1,0,28.6c0,6.2-2.5,9-8.7,9c-19.2,0.1-38.4,0.1-57.6,0c-6.2,0-8.7-2.9-8.7-9.1
		c0-19.1,0-38.1,0-57.2c0-6.2,2.6-8.9,8.8-8.9c19.2-0.1,38.4-0.1,57.6,0c6.1,0,8.6,2.8,8.6,9.1C450.8,194.8,450.8,204.4,450.8,213.9
		z M390.9,191.7v44.2h44.5v-44.2H390.9z"/>
	<path class="st0" d="M45.2,213.4c0-9.5,0-19.1,0-28.6c0-5.9,2.7-8.6,8.6-8.6c19.2-0.1,38.4-0.1,57.7,0c6.1,0,8.8,2.8,8.8,9
		c0.1,19.1,0.1,38.1,0,57.2c0,6.2-2.7,9-8.8,9.1c-19.2,0.1-38.4,0.1-57.6,0c-6.2,0-8.7-2.8-8.7-9C45.2,232.8,45.2,223.1,45.2,213.4z
		 M105.2,191.7H60.5V236h44.7V191.7z"/>
	<path class="st0" d="M45.2,400.4c0-9.5,0-19.1,0-28.6c0-6.5,2.6-9.1,9.1-9.2c18.9-0.1,37.8-0.1,56.7,0c6.7,0,9.3,2.7,9.3,9.5
		c0,18.8,0,37.5,0,56.2c0,7-2.6,9.6-9.7,9.6c-18.7,0.1-37.5,0.1-56.2,0c-6.8,0-9.2-2.6-9.2-9.5C45.2,419.2,45.2,409.8,45.2,400.4
		L45.2,400.4z M105,422.5V378H60.6v44.5H105z"/>
	<path class="st0" d="M155.3,400.3c0-9.5,0-19.1,0-28.6c0-6.2,2.7-9,8.8-9c19.2-0.1,38.4-0.1,57.7,0c5.9,0,8.7,2.8,8.7,8.6
		c0.1,19.4,0.1,38.8,0,58.1c0,5.7-2.6,8.5-8.3,8.5c-19.5,0.1-39.1,0.1-58.6,0c-5.6,0-8.2-2.9-8.3-8.6
		C155.2,419.7,155.3,410,155.3,400.3z M214.9,422.5v-44.4h-44.2v44.4H214.9z"/>
	<path class="st0" d="M192.7,269.5c9.7,0,19.4,0,29,0c5.9,0,8.7,2.6,8.7,8.5c0.1,19.4,0.1,38.7,0,58.1c0,5.9-2.8,8.4-8.8,8.5
		c-19.2,0-38.4,0-57.6,0c-6.1,0-8.8-2.7-8.8-9c0-19.1,0-38.1,0-57.2c0-6.2,2.7-8.9,8.8-9C173.6,269.5,183.2,269.5,192.7,269.5z
		 M170.6,329.3h44.3v-44.4h-44.3V329.3z"/>
	<path class="st0" d="M302.9,269.5c9.4,0,18.8,0,28.1,0c7.2,0,9.7,2.4,9.7,9.4c0,18.8,0,37.5,0,56.2c0,7.1-2.5,9.4-9.7,9.4
		c-18.6,0-37.2,0-55.8,0c-7.2,0-9.7-2.3-9.7-9.4c0-18.7,0-37.5,0-56.2c0-7.1,2.5-9.5,9.7-9.5C284.4,269.5,293.6,269.5,302.9,269.5z
		 M281,284.9v44.5h44.3v-44.5H281z"/>
	<path class="st0" d="M45.2,307.1c0-9.7,0-19.4,0-29.1c0-5.8,2.6-8.4,8.2-8.4c19.5-0.1,39.1-0.1,58.6,0c5.3,0,8.2,2.8,8.3,8
		c0.1,19.7,0.1,39.4,0,59.1c0,5.3-2.9,8-8.3,8c-19.5,0-39.1,0-58.6,0c-5.5,0-8.2-2.8-8.2-8.5C45.2,326.5,45.2,316.8,45.2,307.1z
		 M105.2,284.8H60.6v44.5h44.6V284.8z"/>
	<path class="st0" d="M450.8,307.2c0,9.7,0,19.4,0,29c0,5.7-2.7,8.4-8.3,8.4c-19.4,0-38.7,0-58.1,0c-5.9,0-8.7-2.7-8.7-8.5
		c-0.1-19.4-0.1-38.7,0-58.1c0-5.8,2.9-8.4,8.9-8.4c19.2,0,38.4,0,57.6,0c6,0,8.5,2.6,8.6,8.6C450.8,287.8,450.8,297.5,450.8,307.2z
		 M390.9,329.4h44.5V285h-44.6L390.9,329.4z"/>
	<path class="st0" d="M292.9,408.8l30.7-30.8c1.3-1.4,2.6-2.6,4.1-3.8c3-2.5,7.4-2.3,10.2,0.4c2.9,2.9,2.9,7.6,0,10.6
		c-4.3,4.5-8.8,8.9-13.2,13.3c-8.3,8.3-16.6,16.6-24.8,24.8c-4.7,4.7-8.6,4.8-13.3,0.2c-5.8-5.7-11.5-11.4-17.2-17.2
		c-4.2-4.2-4.6-8.5-1.2-11.9s7.9-2.9,11.9,1.2S288.4,404,292.9,408.8z"/>
</g>
</svg>
