<svg id="Layer_1" data-name="Layer 1" xmlns="http://www.w3.org/2000/svg" viewBox="0 0 201.37 114.85"><defs><style>.cls-1{fill:#fff;}</style></defs><path class="cls-1" d="M99.42,138.45l54.27-54.34c7.33-7.34,14.58-14.78,22.05-22s19.18-5,23.16,4.37c2.36,5.6.9,11.41-4.21,16.53l-44.26,44.25-39.12,39.15c-8.22,8.23-15.74,8.24-23.93.06Q45.7,124.78,4,83.08c-6.45-6.45-7.13-14.39-1.82-20.49a13.93,13.93,0,0,1,19.24-1.77,35.53,35.53,0,0,1,3,2.76l72.5,72.52C97.65,136.83,98.42,137.51,99.42,138.45Z" transform="translate(1.37 -57.77)"/></svg>