<svg xmlns="http://www.w3.org/2000/svg" xmlns:xlink="http://www.w3.org/1999/xlink" width="500" zoomAndPan="magnify" viewBox="0 0 375 374.999991" height="500" preserveAspectRatio="xMidYMid meet" version="1.0"><defs><clipPath id="92db5657fd"><path d="M 5.625 311 L 25 311 L 25 332 L 5.625 332 Z M 5.625 311 " clip-rule="nonzero"/></clipPath><clipPath id="8e1911b880"><path d="M 333 306 L 369.375 306 L 369.375 343 L 333 343 Z M 333 306 " clip-rule="nonzero"/></clipPath></defs><path fill="#000000" d="M 76.949219 77.957031 C 77 78.148438 77.050781 78.335938 77.121094 78.519531 C 77.191406 78.699219 77.261719 78.890625 77.34375 79.0625 C 77.421875 79.242188 77.523438 79.414062 77.625 79.585938 C 77.722656 79.753906 77.835938 79.917969 77.957031 80.078125 C 78.078125 80.238281 78.195312 80.390625 78.328125 80.53125 C 78.457031 80.671875 78.597656 80.8125 78.75 80.941406 C 78.902344 81.074219 79.050781 81.191406 79.210938 81.3125 C 79.375 81.433594 79.535156 81.535156 79.707031 81.636719 C 80.742188 82.25 81.847656 82.449219 83.042969 82.429688 C 84.792969 82.148438 86.238281 81.574219 87.316406 80.097656 C 88.21875 78.851562 88.542969 77.300781 88.28125 75.792969 C 88.25 75.601562 88.210938 75.421875 88.160156 75.230469 C 88.109375 75.050781 88.050781 74.871094 87.988281 74.6875 C 87.917969 74.507812 87.847656 74.335938 87.757812 74.164062 C 87.675781 73.996094 87.578125 73.824219 87.476562 73.664062 C 87.375 73.503906 87.265625 73.339844 87.144531 73.191406 C 87.023438 73.039062 86.902344 72.898438 86.773438 72.757812 C 86.640625 72.617188 86.5 72.488281 86.359375 72.367188 C 86.21875 72.246094 86.070312 72.125 85.90625 72.015625 C 84.761719 71.21875 83.394531 70.929688 82.015625 70.949219 C 80.175781 71.332031 78.679688 71.945312 77.644531 73.59375 C 77.542969 73.753906 77.453125 73.914062 77.371094 74.085938 C 77.292969 74.257812 77.210938 74.425781 77.152344 74.609375 C 77.089844 74.789062 77.03125 74.96875 76.980469 75.152344 C 76.929688 75.332031 76.890625 75.523438 76.871094 75.703125 C 76.839844 75.894531 76.820312 76.074219 76.808594 76.265625 C 76.800781 76.457031 76.800781 76.648438 76.808594 76.828125 C 76.808594 77.019531 76.839844 77.210938 76.859375 77.394531 C 76.890625 77.582031 76.921875 77.765625 76.96875 77.945312 Z M 79.675781 75.722656 C 80.078125 74.636719 80.871094 74.136719 81.867188 73.664062 C 82.378906 73.632812 82.882812 73.601562 83.382812 73.742188 C 84.1875 73.964844 84.914062 74.488281 85.304688 75.242188 C 85.71875 76.046875 85.726562 76.921875 85.414062 77.765625 C 85.003906 78.902344 84.230469 79.394531 83.183594 79.894531 C 82.671875 79.925781 82.199219 79.90625 81.695312 79.777344 C 81.59375 79.746094 81.503906 79.714844 81.402344 79.683594 C 81.304688 79.644531 81.214844 79.605469 81.121094 79.5625 C 81.03125 79.515625 80.941406 79.464844 80.851562 79.414062 C 80.761719 79.363281 80.679688 79.304688 80.601562 79.234375 C 80.519531 79.171875 80.4375 79.101562 80.367188 79.03125 C 80.296875 78.960938 80.226562 78.890625 80.15625 78.808594 C 80.085938 78.730469 80.027344 78.648438 79.964844 78.570312 C 79.90625 78.488281 79.855469 78.398438 79.804688 78.308594 C 79.375 77.511719 79.351562 76.578125 79.664062 75.734375 Z M 79.675781 75.722656 " fill-opacity="1" fill-rule="nonzero"/><g clip-path="url(#92db5657fd)"><path fill="#000000" d="M 7.914062 324.257812 C 10.222656 324.621094 12.355469 324.550781 13.882812 326.621094 C 14.988281 328.121094 15.402344 330.964844 16.878906 331.949219 C 17.382812 331.699219 17.765625 331.527344 17.984375 330.964844 C 18.941406 328.429688 17.996094 324.972656 20.882812 323.335938 C 22.136719 322.621094 24.289062 322.066406 24.921875 320.730469 C 24.914062 320.226562 24.941406 320.117188 24.53125 319.765625 C 23.164062 318.589844 20.5 318.941406 18.980469 317.695312 C 17.644531 316.597656 15.976562 311.921875 14.707031 311.652344 C 14.398438 311.582031 13.914062 311.652344 13.582031 311.640625 C 13 315.070312 13.140625 318.195312 9.941406 320.46875 C 8.816406 321.261719 6.09375 321.976562 5.742188 323.285156 C 6.304688 324.058594 7.007812 324.140625 7.921875 324.28125 Z M 15.191406 317.222656 C 17.011719 318.347656 17.816406 320.035156 20.015625 320.820312 C 18.296875 322.308594 17.414062 323.757812 16.527344 325.808594 C 16.003906 325.746094 14.246094 323.152344 12.828125 322.722656 C 12.488281 322.621094 12.277344 322.582031 11.992188 322.328125 C 13.492188 320.75 14.265625 319.132812 15.191406 317.210938 Z M 15.191406 317.222656 " fill-opacity="1" fill-rule="nonzero"/></g><path fill="#000000" d="M 131.269531 48.296875 C 132.96875 49.464844 135.523438 49.867188 136.890625 51.464844 C 139.042969 53.996094 138.328125 58.453125 140.699219 59.40625 C 142.882812 57.628906 142.742188 53.625 145.566406 51.152344 C 147.265625 49.664062 150.683594 50.410156 151.898438 48.761719 C 151.921875 48.480469 151.992188 48.386719 151.789062 48.148438 C 150.269531 46.335938 146.761719 47.101562 145.34375 44.730469 C 144.460938 43.25 143.917969 38.0625 142.902344 37.5 C 142.609375 37.339844 142.128906 37.308594 141.796875 37.277344 C 139.988281 39.109375 140.269531 42.296875 137.824219 44.445312 C 136.226562 45.855469 131.160156 46.046875 130.515625 47.230469 C 130.617188 47.734375 130.859375 48.007812 131.269531 48.296875 Z M 141.828125 43.523438 C 142.792969 44.417969 143.828125 46.96875 144.972656 48.296875 C 143.003906 49.753906 142.398438 51.191406 140.929688 52.960938 L 140.769531 52.730469 C 139.675781 50.882812 138.347656 49.324219 136.769531 47.867188 C 138.972656 46.6875 140.328125 45.523438 141.828125 43.523438 Z M 141.828125 43.523438 " fill-opacity="1" fill-rule="nonzero"/><path fill="#000000" d="M 345 113.125 C 346.117188 114.964844 346.46875 119.910156 348.628906 119.730469 C 348.71875 119.730469 348.808594 119.707031 348.902344 119.699219 C 350.015625 118.03125 350.46875 116 351.65625 114.378906 C 353.90625 111.3125 356.5625 112.761719 358.953125 111.101562 C 359.386719 110.800781 359.488281 110.589844 359.617188 110.097656 C 358.773438 108.609375 354.5 107.625 352.699219 105.3125 C 351.535156 103.8125 351.3125 99.441406 350.066406 98.644531 C 349.875 98.527344 349.421875 98.433594 349.191406 98.375 C 349.171875 98.375 349.140625 98.363281 349.121094 98.355469 C 347.914062 98.878906 347.675781 99.691406 347.230469 100.847656 C 346.296875 103.269531 346.136719 105.152344 343.53125 106.285156 C 342.054688 106.929688 339.308594 107.222656 338.40625 108.558594 C 338.40625 109.070312 338.464844 109.28125 338.855469 109.644531 C 340.636719 111.285156 343.671875 110.921875 345.011719 113.125 Z M 348.929688 103.621094 C 350.085938 106.226562 351.214844 108.40625 353.695312 110.007812 C 351.273438 111.144531 350.105469 111.90625 348.667969 114.179688 C 348.589844 114.160156 348.480469 114.1875 348.417969 114.128906 C 348.246094 113.957031 347.964844 113.09375 347.835938 112.832031 C 347 111.0625 345.523438 110.148438 343.945312 109.101562 C 346.640625 107.464844 347.605469 106.488281 348.929688 103.632812 Z M 348.929688 103.621094 " fill-opacity="1" fill-rule="nonzero"/><path fill="#000000" d="M 285.84375 70.988281 C 287.210938 72.207031 293.234375 74.375 295.355469 75.421875 C 296.078125 77.363281 298.007812 85.9375 299.566406 86.59375 C 299.941406 86.742188 300.421875 86.691406 300.8125 86.664062 C 302.433594 84.257812 303.859375 78.277344 304.894531 75.300781 C 307.167969 74.40625 313.703125 72.367188 315.230469 70.648438 C 315.300781 70.34375 315.433594 70.175781 315.269531 69.894531 C 314.46875 68.40625 306.34375 65.589844 304.375 64.796875 C 303.820312 62.9375 301.828125 54.914062 300.5625 54.058594 C 300.28125 53.867188 299.878906 53.828125 299.558594 53.777344 C 298.25 55.484375 296.28125 62.324219 295.484375 64.765625 C 293.464844 65.640625 286.117188 68.273438 285.3125 69.941406 C 285.363281 70.457031 285.453125 70.65625 285.84375 71.007812 Z M 297.40625 66.765625 C 298.472656 64.585938 299.074219 62.109375 299.789062 59.800781 C 300.8125 60.644531 301.789062 65.066406 302.613281 66.625 C 305.199219 67.871094 307.871094 68.949219 310.464844 70.175781 C 307.882812 71.429688 305.199219 72.394531 302.535156 73.453125 C 301.808594 76.125 301.117188 78.808594 300.160156 81.414062 L 299.910156 81.445312 C 299.125 78.628906 298.148438 75.835938 297.183594 73.070312 C 294.683594 72.132812 292.109375 71.261719 289.734375 70.023438 C 292.277344 68.886719 294.800781 67.710938 297.425781 66.765625 Z M 297.40625 66.765625 " fill-opacity="1" fill-rule="nonzero"/><g clip-path="url(#8e1911b880)"><path fill="#000000" d="M 356.472656 319.082031 C 355.605469 316.949219 353.414062 307.710938 352.371094 306.796875 C 351.96875 306.707031 351.636719 306.644531 351.234375 306.65625 C 350.296875 307.921875 349.988281 309.601562 349.59375 311.097656 C 346.878906 321.261719 346.96875 319.414062 337.269531 322.277344 C 336.222656 322.589844 333.949219 323.023438 333.539062 324.097656 C 333.789062 324.8125 334.394531 325.164062 335.058594 325.476562 C 338.214844 326.992188 342.605469 327.546875 346.257812 329.265625 C 348.257812 332.050781 348.808594 335.640625 349.714844 338.886719 C 349.957031 339.753906 350.167969 340.878906 350.628906 341.664062 C 350.851562 342.035156 351.234375 342.265625 351.574219 342.507812 C 352.609375 342.003906 352.730469 341.570312 353.09375 340.535156 C 354.1875 337.378906 355.011719 330.25 358.148438 328.742188 C 360.28125 327.71875 368.363281 325.929688 369.117188 324.300781 C 369.238281 324.039062 369.140625 323.957031 369.046875 323.707031 C 366.132812 321.535156 360.128906 320.992188 356.601562 319.351562 L 356.492188 319.089844 Z M 352.921875 332.179688 C 352.570312 333.195312 352.269531 334.824219 351.65625 335.679688 C 351.617188 335.742188 351.566406 335.78125 351.515625 335.839844 C 350.941406 333.859375 350.449219 331.660156 349.535156 329.808594 C 347.652344 326.050781 342.988281 325.34375 339.328125 324.179688 C 341.710938 323.496094 344.457031 322.941406 346.667969 321.835938 C 349.855469 320.238281 350.539062 316.628906 351.515625 313.511719 C 352.582031 314.367188 353.957031 319.472656 354.710938 321.0625 C 357.285156 322.699219 360.453125 323.382812 363.359375 324.199219 C 358.21875 325.617188 354.800781 326.742188 352.921875 332.183594 Z M 352.921875 332.179688 " fill-opacity="1" fill-rule="nonzero"/></g><path fill="#000000" d="M 62.070312 349.042969 C 60.695312 346.488281 59.789062 343.863281 58.972656 341.089844 C 58.601562 339.832031 58.3125 338.464844 57.808594 337.257812 C 57.628906 336.828125 57.425781 336.59375 57.0625 336.292969 C 56.5625 336.152344 56.21875 336.082031 55.6875 336.101562 C 54.308594 338.101562 53.203125 345.390625 51.644531 348.730469 C 51.585938 348.769531 51.523438 348.800781 51.453125 348.839844 C 48.15625 350.601562 41.179688 351.402344 38.855469 353.597656 C 38.777344 353.886719 38.675781 353.957031 38.835938 354.257812 C 40.113281 356.691406 49.394531 356.984375 51.503906 359.417969 C 53.777344 362.019531 53.957031 368.796875 55.527344 371.320312 C 55.765625 371.710938 55.957031 371.8125 56.402344 371.914062 C 56.773438 371.992188 57.164062 371.945312 57.535156 371.914062 C 58.453125 370.195312 58.882812 367.972656 59.40625 366.09375 C 60.070312 363.691406 60.773438 361.367188 61.78125 359.066406 C 64.164062 358.179688 66.566406 357.324219 68.96875 356.5 C 70.40625 356.007812 71.984375 355.65625 73.339844 354.984375 C 73.785156 354.773438 74.367188 354.460938 74.566406 353.988281 C 74.636719 353.816406 74.628906 353.796875 74.515625 353.636719 C 73.472656 352.097656 64.324219 349.996094 62.070312 349.042969 Z M 61.578125 356.652344 C 58.410156 358.410156 57.707031 363.027344 56.761719 366.234375 C 55.695312 364.734375 55.292969 361.015625 54.21875 358.996094 C 52.398438 355.585938 47.613281 355.011719 44.195312 354.027344 C 46.699219 353.285156 49.867188 352.679688 52.109375 351.332031 C 55.011719 349.585938 55.605469 344.847656 56.378906 341.8125 C 57.605469 343.574219 57.980469 346.277344 58.894531 348.257812 C 60.875 352.53125 64.917969 352.550781 68.808594 353.996094 C 66.464844 354.894531 63.761719 355.4375 61.570312 356.652344 Z M 61.578125 356.652344 " fill-opacity="1" fill-rule="nonzero"/><path fill="#000000" d="M 7.671875 135.945312 C 9.167969 136.628906 10.957031 136.929688 12.546875 137.363281 C 14.75 137.957031 16.941406 138.648438 19.132812 139.304688 C 19.585938 141.214844 22.652344 151.75 23.898438 152.421875 C 24.289062 152.632812 24.863281 152.5625 25.292969 152.554688 C 27.003906 150.664062 28.863281 142.257812 29.949219 139.304688 C 32.523438 138.46875 41.945312 136.476562 43.160156 134.6875 C 43.109375 134.207031 42.96875 134.054688 42.585938 133.761719 C 40.648438 132.304688 32.613281 130.445312 29.871094 129.609375 C 28.996094 127.417969 26.140625 117.226562 25.09375 116.300781 C 24.671875 116.160156 24.300781 116.050781 23.855469 116 C 23.566406 116.210938 23.285156 116.402344 23.09375 116.710938 C 21.988281 118.582031 20.066406 126.554688 19.210938 129.238281 C 17.039062 129.914062 7.097656 132.476562 6.121094 134.035156 C 5.953125 134.316406 6.042969 134.445312 6.09375 134.75 C 6.542969 135.332031 6.988281 135.644531 7.660156 135.945312 Z M 20.21875 131.613281 C 20.78125 131.339844 21.183594 130.917969 21.472656 130.367188 C 22.277344 128.835938 23.605469 123.308594 24.230469 121.308594 C 25.386719 122.59375 26.914062 129.21875 27.796875 131.339844 C 30.785156 132.929688 34.34375 133.410156 37.480469 134.699219 C 34.957031 135.210938 31.507812 135.8125 29.277344 137.050781 C 26.734375 138.449219 25.527344 144.460938 24.652344 147.214844 L 24.449219 147.246094 C 23.125 145.214844 22.480469 140.269531 21.191406 137.785156 C 20.570312 136.589844 13.21875 134.988281 11.550781 134.527344 C 14.265625 133.121094 17.492188 132.9375 20.207031 131.621094 Z M 20.21875 131.613281 " fill-opacity="1" fill-rule="nonzero"/><path fill="#000000" d="M 45.875 233.484375 C 45.945312 234.660156 46.027344 235.828125 46.125 236.992188 C 46.226562 238.160156 46.335938 239.335938 46.457031 240.503906 C 46.589844 241.667969 46.730469 242.835938 46.878906 244 C 47.03125 245.167969 47.203125 246.324219 47.394531 247.488281 C 47.574219 248.644531 47.773438 249.800781 47.984375 250.957031 C 52.390625 274.28125 61.75 296.058594 76.46875 314.789062 C 78.871094 317.84375 81.503906 320.710938 84.097656 323.605469 C 93.609375 334.203125 102.878906 342.4375 114.691406 350.460938 C 115.4375 350.960938 116.179688 351.464844 116.933594 351.957031 C 117.6875 352.449219 118.441406 352.933594 119.195312 353.414062 C 119.960938 353.898438 120.722656 354.359375 121.488281 354.832031 C 122.253906 355.304688 123.027344 355.746094 123.808594 356.199219 C 124.585938 356.652344 125.367188 357.09375 126.152344 357.527344 C 126.9375 357.960938 127.730469 358.390625 128.527344 358.804688 C 129.320312 359.226562 130.113281 359.636719 130.917969 360.039062 C 131.722656 360.441406 132.527344 360.835938 133.339844 361.226562 C 134.15625 361.617188 134.960938 361.992188 135.785156 362.363281 C 136.597656 362.734375 137.421875 363.097656 138.246094 363.457031 C 139.070312 363.808594 139.894531 364.164062 140.730469 364.503906 C 141.566406 364.847656 142.398438 365.175781 143.234375 365.5 C 144.066406 365.820312 144.914062 366.144531 145.757812 366.453125 C 146.601562 366.765625 147.445312 367.066406 148.300781 367.359375 C 149.144531 367.652344 150 367.933594 150.855469 368.214844 C 151.710938 368.496094 152.5625 368.757812 153.429688 369.019531 C 154.28125 369.28125 155.148438 369.53125 156.011719 369.773438 C 156.875 370.011719 157.742188 370.253906 158.617188 370.476562 C 159.480469 370.707031 160.355469 370.917969 161.230469 371.128906 C 162.105469 371.339844 162.980469 371.542969 163.855469 371.734375 C 164.730469 371.921875 165.613281 372.113281 166.488281 372.285156 C 167.363281 372.457031 168.246094 372.628906 169.132812 372.789062 C 170.015625 372.949219 170.902344 373.101562 171.785156 373.242188 C 172.671875 373.382812 173.566406 373.523438 174.449219 373.644531 C 175.335938 373.773438 176.230469 373.882812 177.125 373.996094 C 178.019531 374.105469 178.902344 374.207031 179.800781 374.296875 C 180.695312 374.386719 181.589844 374.476562 182.484375 374.546875 C 183.378906 374.617188 184.273438 374.6875 185.167969 374.75 C 186.0625 374.808594 186.957031 374.859375 187.863281 374.898438 C 188.757812 374.941406 189.652344 374.96875 190.554688 375 C 191.449219 375.019531 192.355469 375.039062 193.25 375.039062 C 194.144531 375.039062 195.050781 375.039062 195.945312 375.039062 C 196.949219 375.03125 197.945312 375 198.949219 374.96875 C 199.957031 374.941406 200.953125 374.890625 201.957031 374.839844 C 202.953125 374.789062 203.957031 374.71875 204.953125 374.648438 C 205.949219 374.578125 206.953125 374.488281 207.949219 374.398438 C 208.945312 374.304688 209.941406 374.195312 210.933594 374.085938 C 211.929688 373.972656 212.925781 373.855469 213.921875 373.714844 C 214.917969 373.582031 215.902344 373.441406 216.898438 373.28125 C 217.882812 373.128906 218.878906 372.96875 219.863281 372.796875 C 220.847656 372.628906 221.832031 372.445312 222.816406 372.253906 C 223.804688 372.0625 224.777344 371.863281 225.765625 371.652344 C 226.738281 371.441406 227.722656 371.21875 228.691406 370.988281 C 229.664062 370.757812 230.640625 370.515625 231.605469 370.265625 C 232.570312 370.011719 233.546875 369.753906 234.511719 369.492188 C 235.476562 369.230469 236.441406 368.949219 237.394531 368.65625 C 238.351562 368.363281 239.316406 368.074219 240.261719 367.761719 C 241.214844 367.449219 242.160156 367.136719 243.117188 366.816406 C 244.0625 366.496094 245.007812 366.152344 245.953125 365.8125 C 246.898438 365.46875 247.832031 365.117188 248.765625 364.746094 C 249.703125 364.382812 250.625 364.011719 251.550781 363.628906 C 252.476562 363.246094 253.402344 362.855469 254.316406 362.453125 C 255.230469 362.050781 256.144531 361.648438 257.0625 361.226562 C 257.976562 360.804688 258.878906 360.382812 259.777344 359.949219 C 260.679688 359.515625 261.574219 359.066406 262.46875 358.613281 C 263.363281 358.160156 264.25 357.699219 265.132812 357.226562 C 266.019531 356.753906 266.894531 356.269531 267.769531 355.789062 C 268.644531 355.292969 269.507812 354.800781 270.371094 354.300781 C 271.238281 353.796875 272.089844 353.285156 272.945312 352.761719 C 273.800781 352.238281 274.644531 351.707031 275.488281 351.164062 C 276.332031 350.621094 277.167969 350.078125 278.003906 349.515625 C 278.835938 348.960938 279.660156 348.398438 280.484375 347.824219 C 281.308594 347.253906 282.125 346.667969 282.929688 346.085938 C 283.742188 345.492188 284.546875 344.898438 285.339844 344.296875 C 291.675781 339.539062 297.757812 334.433594 303.21875 328.691406 C 304.070312 327.796875 304.917969 326.894531 305.742188 325.988281 C 306.574219 325.074219 307.390625 324.148438 308.203125 323.214844 C 309.007812 322.277344 309.8125 321.332031 310.597656 320.378906 C 311.378906 319.421875 312.15625 318.457031 312.917969 317.492188 C 313.683594 316.519531 314.425781 315.542969 315.171875 314.546875 C 315.90625 313.550781 316.628906 312.558594 317.34375 311.542969 C 318.054688 310.535156 318.75 309.511719 319.445312 308.484375 C 320.128906 307.460938 320.800781 306.425781 321.464844 305.378906 C 322.128906 304.332031 322.769531 303.289062 323.40625 302.222656 C 324.039062 301.167969 324.660156 300.089844 325.273438 299.023438 C 325.886719 297.949219 326.480469 296.863281 327.0625 295.777344 C 327.648438 294.691406 328.210938 293.597656 328.773438 292.488281 C 329.328125 291.382812 329.871094 290.277344 330.390625 289.164062 C 330.914062 288.046875 331.4375 286.921875 331.929688 285.792969 C 332.433594 284.667969 332.914062 283.53125 333.386719 282.386719 C 333.859375 281.238281 334.3125 280.09375 334.753906 278.949219 C 335.199219 277.792969 335.628906 276.636719 336.042969 275.46875 C 336.453125 274.304688 336.855469 273.136719 337.238281 271.960938 C 337.621094 270.785156 337.992188 269.609375 338.355469 268.421875 C 338.707031 267.234375 339.046875 266.050781 339.378906 264.863281 C 339.703125 263.667969 340.011719 262.480469 340.316406 261.273438 C 340.617188 260.078125 340.898438 258.871094 341.160156 257.664062 C 341.429688 256.457031 341.683594 255.25 341.914062 254.035156 C 342.15625 252.816406 342.375 251.601562 342.578125 250.386719 C 342.789062 249.167969 342.980469 247.941406 343.148438 246.726562 C 343.332031 245.5 343.492188 244.28125 343.632812 243.054688 C 343.785156 241.828125 343.914062 240.601562 344.023438 239.367188 C 344.136719 238.128906 344.246094 236.902344 344.328125 235.675781 C 344.40625 234.441406 344.476562 233.214844 344.539062 231.976562 C 344.585938 230.742188 344.628906 229.503906 344.65625 228.277344 C 344.679688 227.039062 344.6875 225.804688 344.6875 224.566406 C 344.6875 223.332031 344.65625 222.09375 344.617188 220.859375 C 344.578125 219.679688 344.527344 218.503906 344.457031 217.339844 C 344.386719 216.164062 344.304688 214.996094 344.207031 213.820312 C 344.105469 212.652344 343.996094 211.476562 343.875 210.3125 C 343.753906 209.144531 343.613281 207.980469 343.453125 206.8125 C 343.300781 205.648438 343.128906 204.480469 342.949219 203.324219 C 342.769531 202.167969 342.578125 201.003906 342.367188 199.847656 C 342.15625 198.691406 341.933594 197.535156 341.691406 196.386719 C 341.449219 195.242188 341.199219 194.085938 340.9375 192.949219 C 340.675781 191.804688 340.394531 190.667969 340.105469 189.519531 C 339.8125 188.382812 339.511719 187.25 339.1875 186.113281 C 338.867188 184.988281 338.535156 183.851562 338.195312 182.734375 C 337.851562 181.609375 337.488281 180.492188 337.109375 179.375 C 336.734375 178.261719 336.34375 177.15625 335.941406 176.050781 C 335.539062 174.941406 335.128906 173.847656 334.703125 172.75 C 334.28125 171.65625 333.839844 170.570312 333.386719 169.484375 C 332.933594 168.398438 332.472656 167.324219 331.992188 166.246094 C 331.507812 165.171875 331.015625 164.105469 330.511719 163.050781 C 330.011719 161.984375 329.488281 160.9375 328.964844 159.882812 C 328.429688 158.835938 327.886719 157.792969 327.335938 156.757812 C 326.78125 155.71875 326.210938 154.695312 325.636719 153.667969 C 325.054688 152.644531 324.460938 151.628906 323.855469 150.625 C 323.253906 149.617188 322.628906 148.613281 322.007812 147.628906 C 321.375 146.632812 320.742188 145.648438 320.085938 144.671875 C 319.433594 143.695312 318.769531 142.722656 318.097656 141.765625 C 317.421875 140.800781 316.730469 139.855469 316.035156 138.910156 C 315.332031 137.964844 314.628906 137.03125 313.902344 136.105469 C 313.179688 135.179688 312.445312 134.257812 311.703125 133.351562 C 310.957031 132.445312 310.203125 131.542969 309.441406 130.648438 C 308.675781 129.753906 307.902344 128.878906 307.109375 128.003906 C 306.324219 127.128906 305.519531 126.261719 304.714844 125.410156 C 303.910156 124.554688 303.085938 123.710938 302.261719 122.875 C 301.4375 122.039062 300.59375 121.214844 299.75 120.402344 C 278.996094 100.765625 257.070312 88.210938 229.542969 80.53125 C 224.777344 79.203125 219.921875 78.289062 215.105469 77.171875 C 211.910156 71.613281 208.261719 68.414062 201.957031 66.734375 C 200.269531 66.285156 198.507812 66.042969 196.769531 65.921875 C 196.820312 51.664062 197.132812 37.417969 197.714844 23.183594 C 197.984375 16.226562 198.648438 8.757812 198.648438 1.839844 C 198.648438 1.257812 198.570312 0.875 198.207031 0.402344 C 197.574219 0.03125 196.949219 0.0820312 196.246094 0.152344 C 194.667969 2.765625 193.925781 46.808594 193.84375 53.285156 C 193.792969 57.445312 194.136719 61.71875 193.84375 65.859375 C 187.628906 66.292969 181.757812 67.519531 177.488281 72.457031 C 176.300781 73.824219 175.355469 75.363281 174.410156 76.898438 C 173.125 77.140625 171.828125 77.394531 170.550781 77.664062 C 169.261719 77.9375 167.984375 78.21875 166.699219 78.519531 C 165.421875 78.820312 164.144531 79.140625 162.878906 79.472656 C 161.613281 79.804688 160.34375 80.15625 159.078125 80.519531 C 157.8125 80.882812 156.554688 81.261719 155.308594 81.65625 C 154.050781 82.046875 152.804688 82.460938 151.566406 82.882812 C 150.320312 83.304688 149.085938 83.746094 147.859375 84.199219 C 146.621094 84.652344 145.394531 85.125 144.179688 85.605469 C 142.960938 86.089844 141.746094 86.59375 140.539062 87.105469 C 139.332031 87.617188 138.125 88.148438 136.929688 88.691406 C 135.734375 89.234375 134.546875 89.800781 133.359375 90.371094 C 132.175781 90.945312 131.007812 91.527344 129.832031 92.132812 C 128.667969 92.734375 127.5 93.347656 126.355469 93.980469 C 125.199219 94.613281 124.050781 95.257812 122.914062 95.910156 C 121.78125 96.566406 120.652344 97.238281 119.527344 97.921875 C 118.402344 98.605469 117.296875 99.308594 116.191406 100.011719 C 115.082031 100.726562 113.988281 101.449219 112.902344 102.183594 C 111.816406 102.917969 110.742188 103.671875 109.675781 104.4375 C 108.609375 105.199219 107.554688 105.976562 106.496094 106.769531 C 105.453125 107.5625 104.40625 108.367188 103.382812 109.183594 C 102.355469 109.996094 101.332031 110.832031 100.324219 111.664062 C 99.320312 112.511719 98.3125 113.363281 97.328125 114.230469 C 96.34375 115.09375 95.359375 115.96875 94.394531 116.863281 C 93.429688 117.746094 92.472656 118.652344 91.527344 119.566406 C 90.582031 120.484375 89.648438 121.40625 88.722656 122.34375 C 87.796875 123.277344 86.894531 124.222656 85.988281 125.175781 C 85.082031 126.132812 84.199219 127.097656 83.324219 128.082031 C 82.449219 129.058594 81.585938 130.054688 80.730469 131.050781 C 79.875 132.042969 79.042969 133.058594 78.207031 134.074219 C 77.382812 135.089844 76.566406 136.125 75.765625 137.160156 C 74.960938 138.195312 74.175781 139.253906 73.390625 140.308594 C 72.617188 141.363281 71.851562 142.441406 71.097656 143.515625 C 70.433594 144.480469 69.773438 145.457031 69.128906 146.441406 C 68.484375 147.425781 67.851562 148.410156 67.226562 149.40625 C 66.605469 150.402344 66 151.40625 65.410156 152.421875 C 64.816406 153.4375 64.234375 154.453125 63.660156 155.480469 C 63.085938 156.503906 62.535156 157.539062 61.992188 158.574219 C 61.449219 159.609375 60.914062 160.667969 60.390625 161.710938 C 59.871094 162.769531 59.367188 163.824219 58.875 164.890625 C 58.382812 165.957031 57.898438 167.03125 57.4375 168.105469 C 56.972656 169.183594 56.519531 170.269531 56.078125 171.355469 C 55.636719 172.441406 55.214844 173.535156 54.800781 174.632812 C 54.390625 175.726562 53.988281 176.832031 53.605469 177.9375 C 53.222656 179.042969 52.851562 180.160156 52.488281 181.277344 C 52.128906 182.394531 51.785156 183.519531 51.453125 184.644531 C 51.121094 185.769531 50.8125 186.90625 50.5 188.03125 C 50.199219 189.167969 49.90625 190.304688 49.632812 191.449219 C 49.363281 192.597656 49.101562 193.734375 48.851562 194.890625 C 48.597656 196.035156 48.367188 197.191406 48.15625 198.335938 C 47.933594 199.492188 47.734375 200.648438 47.542969 201.804688 C 47.351562 202.960938 47.179688 204.128906 47.019531 205.285156 C 46.859375 206.449219 46.707031 207.617188 46.578125 208.785156 C 46.449219 209.949219 46.328125 211.117188 46.226562 212.292969 C 46.125 213.457031 46.035156 214.632812 45.953125 215.800781 C 45.882812 216.976562 45.8125 218.144531 45.773438 219.320312 C 45.722656 220.496094 45.695312 221.664062 45.671875 222.839844 C 45.652344 224.015625 45.652344 225.191406 45.671875 226.355469 C 45.683594 227.535156 45.714844 228.710938 45.753906 229.875 C 45.792969 231.050781 45.84375 232.21875 45.914062 233.394531 Z M 62.875 281.160156 C 59.285156 274.964844 54.320312 256.4375 53.304688 249.140625 C 55.011719 250.285156 56.652344 251.992188 58.21875 253.351562 C 60.402344 264.046875 62.816406 274.484375 66.59375 284.757812 C 66.09375 284.527344 65.660156 284.226562 65.21875 283.882812 C 64.242188 283.121094 63.5 282.214844 62.875 281.148438 Z M 192.726562 106.992188 C 192.910156 110.910156 192.820312 114.882812 192.839844 118.804688 L 192.949219 140.53125 C 190.023438 140.578125 187.085938 140.480469 184.164062 140.429688 C 177.960938 140.410156 171.515625 140.226562 165.34375 139.574219 C 165.722656 137.332031 166.355469 135.089844 166.890625 132.867188 C 169.03125 123.992188 171.886719 115.367188 174.519531 106.640625 C 180.5625 106.648438 186.6875 106.667969 192.726562 106.992188 Z M 175.71875 103.824219 C 179.035156 95.21875 182.652344 88.007812 188.667969 80.910156 C 189.964844 80.832031 191.289062 80.882812 192.597656 80.890625 L 192.566406 104.09375 C 188.363281 104.09375 184.164062 104.042969 179.960938 103.902344 Z M 152.816406 217.480469 C 152.574219 222.367188 152.503906 227.210938 152.503906 232.109375 C 152.503906 233.597656 152.816406 240.765625 152.292969 241.617188 L 151.699219 241.597656 C 139.382812 240.804688 127.128906 239.507812 114.921875 237.699219 C 114.84375 226.214844 115.667969 214.804688 116.851562 203.394531 C 128.835938 205.625 141.191406 206.199219 153.308594 207.417969 C 153.335938 210.742188 152.976562 214.164062 152.816406 217.488281 Z M 154.34375 277.628906 C 142.167969 276.636719 130.304688 274.988281 118.269531 272.875 C 116.238281 262.519531 115.074219 251.019531 114.992188 240.484375 L 152.382812 244.304688 C 152.714844 255.382812 153.21875 266.601562 154.34375 277.621094 Z M 114.621094 200.027344 L 111.734375 199.605469 C 109.292969 198.992188 106.609375 198.75 104.117188 198.296875 C 97.761719 197.160156 91.144531 195.824219 85.054688 193.664062 C 87.175781 182.824219 90.664062 171.132812 95.378906 161.148438 C 98.292969 161.613281 101.28125 162.496094 104.164062 163.128906 C 110.027344 164.417969 115.828125 165.554688 121.75 166.46875 C 120.765625 170.820312 119.4375 175.125 118.410156 179.488281 C 116.84375 186.273438 115.578125 193.121094 114.621094 200.027344 Z M 114.097656 202.792969 C 113.828125 207.796875 113.144531 212.84375 112.792969 217.863281 C 112.371094 223.914062 112.320312 229.90625 112.207031 235.957031 C 112.207031 236.441406 112.148438 236.671875 111.796875 237.003906 L 111.144531 236.945312 C 100.9375 235.625 91.003906 233.113281 81.042969 230.621094 C 80.960938 219.167969 82.558594 207.726562 84.371094 196.449219 C 94.222656 199.234375 103.996094 201.171875 114.089844 202.78125 Z M 94.804688 236.761719 C 100.578125 238.007812 106.386719 239.066406 112.238281 239.917969 C 112.347656 246.355469 112.769531 252.769531 113.503906 259.164062 C 114.007812 263.566406 114.773438 267.917969 115.273438 272.324219 C 105.542969 270.222656 92.441406 266.632812 83.355469 262.78125 C 81.3125 254.234375 80.992188 242.242188 80.921875 233.382812 C 85.566406 234.46875 90.152344 235.726562 94.816406 236.761719 Z M 90.484375 297.636719 C 84.640625 295.929688 75.804688 290.628906 70.335938 287.523438 C 66.855469 276.90625 63.167969 266.570312 61.578125 255.441406 C 64.332031 256.941406 67.007812 258.609375 69.824219 259.988281 C 73.410156 261.757812 77.179688 263.242188 80.859375 264.8125 C 82.519531 275.992188 86.128906 287.222656 90.472656 297.628906 Z M 83.757812 265.796875 C 94.101562 269.96875 105.039062 272.816406 115.917969 275.226562 C 117.476562 286.257812 120.632812 297.15625 123.851562 307.792969 C 121.570312 307.398438 119.285156 306.757812 117.035156 306.203125 C 109.261719 304.304688 101.652344 301.890625 94.050781 299.398438 C 89.144531 288.75 86.167969 277.230469 83.757812 265.796875 Z M 124.886719 310.757812 C 128.996094 322.914062 133.53125 332.179688 140.136719 343.160156 C 134.476562 342.054688 122.394531 339.21875 117.515625 336.835938 C 114.78125 335.5 112.953125 332.371094 111.191406 329.960938 C 106.296875 323.273438 102.105469 316.566406 98.503906 309.089844 C 97.460938 306.90625 96.332031 304.746094 95.539062 302.464844 C 104.898438 306.292969 115.003906 308.6875 124.886719 310.746094 Z M 127.902344 311.308594 C 138.46875 313.28125 149.234375 314.980469 159.984375 315.632812 C 161.480469 322.972656 163.242188 330.25 165.261719 337.46875 C 166.226562 340.859375 167.835938 344.207031 168.519531 347.625 C 160.476562 347.152344 152.230469 345.574219 144.351562 343.953125 C 138.558594 337.199219 130.234375 319.734375 127.902344 311.308594 Z M 127.167969 308.476562 C 124.191406 301.285156 122.351562 293.375 120.742188 285.792969 C 120.039062 282.496094 119.277344 279.117188 118.84375 275.78125 C 130.796875 277.902344 142.679688 279.230469 154.746094 280.515625 C 155.941406 291.363281 157.539062 302.152344 159.53125 312.878906 C 148.652344 311.792969 137.945312 310.386719 127.179688 308.484375 Z M 153.289062 204.671875 C 152.039062 204.601562 150.792969 204.492188 149.546875 204.390625 C 138.902344 203.515625 128.011719 202.691406 117.527344 200.589844 C 117.636719 197.894531 118.269531 195.109375 118.722656 192.457031 C 120.160156 183.941406 121.890625 175.214844 124.605469 167 C 135.332031 168.347656 145.96875 169.632812 156.746094 170.578125 C 155.359375 181.921875 154.203125 193.289062 153.289062 204.679688 Z M 125.507812 164.445312 C 127.792969 155.941406 131.058594 147.496094 134.6875 139.472656 C 143.785156 140.359375 152.835938 141.523438 161.953125 142.207031 C 159.871094 150.332031 158.355469 159.460938 157.371094 167.824219 L 153.761719 167.542969 C 147.707031 167.070312 141.664062 166.476562 135.644531 165.785156 C 132.265625 165.402344 128.847656 165.101562 125.507812 164.445312 Z M 157.851562 185.105469 C 158.363281 180.28125 158.855469 175.414062 159.671875 170.628906 C 163.703125 170.679688 167.804688 171.132812 171.847656 171.304688 C 178.875 171.605469 185.929688 171.664062 192.96875 171.804688 L 193 205.757812 L 189.671875 205.9375 C 178.523438 206.078125 167.351562 205.335938 156.222656 204.78125 C 156.503906 198.21875 157.148438 191.632812 157.84375 185.105469 Z M 192.859375 169.050781 L 188.636719 169.050781 C 179.1875 168.980469 169.503906 168.820312 160.105469 167.90625 C 161.421875 159.359375 162.949219 150.84375 164.699219 142.371094 C 174.128906 142.851562 183.558594 143.132812 193 143.195312 C 193.007812 151.808594 192.96875 160.4375 192.859375 169.050781 Z M 162.578125 139.304688 C 159.5 139.222656 156.433594 138.960938 153.367188 138.699219 C 147.605469 138.308594 141.707031 137.683594 136.003906 136.71875 C 140.269531 127.941406 144.832031 119.597656 150.492188 111.625 C 151.96875 109.542969 153.40625 107.402344 155.078125 105.472656 C 160.636719 105.792969 166.195312 106.207031 171.765625 106.425781 C 168.105469 117.214844 165.039062 128.171875 162.566406 139.304688 Z M 146.511719 112.480469 C 141.402344 120.171875 137.261719 128.273438 132.929688 136.417969 C 130.828125 135.925781 128.738281 135.574219 126.605469 135.261719 C 121.597656 134.828125 116.28125 133.460938 111.453125 132.074219 C 118.742188 121.265625 127.8125 111.945312 137.835938 103.664062 C 139.484375 103.722656 141.171875 104.003906 142.8125 104.175781 C 145.835938 104.488281 148.855469 104.757812 151.871094 105.140625 C 149.859375 107.394531 148.171875 109.976562 146.5 112.480469 Z M 131.875 138.960938 C 130.675781 142.257812 129.117188 145.445312 127.863281 148.722656 C 125.929688 153.75 124.261719 158.90625 122.542969 164.015625 L 119.71875 163.523438 C 111.9375 162.347656 104.144531 160.414062 96.496094 158.566406 C 99.773438 150.210938 104.679688 142.097656 109.605469 134.628906 C 116.984375 136.316406 124.402344 137.765625 131.882812 138.972656 Z M 100.917969 143.714844 C 98.425781 148.289062 96.082031 152.9375 93.902344 157.660156 L 91.75 157.078125 C 87.214844 155.851562 82.761719 154.363281 78.40625 152.613281 C 79.28125 150.484375 80.640625 148.492188 81.867188 146.550781 C 85.667969 140.539062 89.839844 135.152344 94.382812 129.703125 C 95.789062 129.972656 97.289062 130.757812 98.667969 131.230469 C 101.308594 132.15625 103.996094 132.960938 106.628906 133.902344 C 104.859375 137.230469 102.757812 140.417969 100.917969 143.714844 Z M 92.714844 160.394531 C 88.019531 171.285156 84.902344 181.628906 82.339844 193.210938 L 80.609375 192.597656 C 75.179688 190.507812 69.257812 189.179688 64.09375 186.464844 C 65.320312 182.453125 66.535156 178.402344 68.03125 174.480469 C 70.605469 167.722656 73.855469 161.28125 77.132812 154.855469 C 82.148438 157.117188 87.476562 158.714844 92.714844 160.40625 Z M 81.644531 195.753906 C 80.539062 202.871094 79.503906 209.980469 78.878906 217.15625 C 78.660156 219.800781 78.46875 222.445312 78.308594 225.089844 C 78.226562 226.566406 78.296875 228.175781 77.984375 229.613281 L 77.613281 229.746094 C 71.128906 227.914062 64.753906 225.773438 58.8125 222.566406 C 58.964844 211.175781 60.765625 200.207031 63.289062 189.140625 C 69.351562 191.640625 75.402344 193.761719 81.636719 195.765625 Z M 78.136719 232.558594 C 78.015625 239.125 78.429688 245.769531 79.09375 252.296875 C 79.402344 255.371094 79.875 258.429688 80.148438 261.515625 C 73.480469 259.210938 67.179688 255.632812 61.117188 252.09375 C 59.636719 243.316406 58.742188 234.589844 58.691406 225.683594 C 65.015625 228.667969 71.410156 230.699219 78.148438 232.558594 Z M 66.082031 287.292969 C 66.617188 287.632812 67.390625 288.035156 67.75 288.570312 C 69.019531 290.480469 70.808594 295.273438 71.964844 297.617188 C 73.160156 300.050781 74.890625 302.464844 75.792969 304.988281 C 73.742188 302.300781 66.222656 289.957031 66.09375 287.292969 Z M 91.578125 323.324219 C 82.75 313.339844 78.117188 303.71875 72.15625 291.957031 C 74.15625 292.710938 76.15625 294.058594 78.085938 295.023438 C 82.511719 297.246094 86.914062 299.265625 91.609375 300.84375 C 95.035156 308.445312 98.617188 316.167969 103.109375 323.203125 C 105.714844 327.277344 108.871094 330.984375 111.433594 335.066406 C 108.941406 334.203125 106.488281 332.84375 104.074219 331.769531 C 101.691406 330.714844 98.644531 329.859375 96.535156 328.371094 C 94.664062 327.054688 93.097656 325.035156 91.578125 323.324219 Z M 128.125 352.1875 C 119.617188 347.300781 110.078125 341.210938 103.03125 334.34375 C 103.269531 334.375 114.308594 338.765625 114.421875 338.835938 C 114.492188 338.886719 114.5625 338.949219 114.640625 339.007812 C 117.246094 341 119.375 343.683594 121.789062 345.90625 C 125.308594 349.140625 129.109375 351.898438 132.980469 354.691406 C 131.320312 354.289062 129.621094 353.042969 128.132812 352.1875 Z M 162.746094 365.449219 C 161.027344 365.519531 158.527344 364.34375 156.898438 363.808594 C 143.242188 359.398438 130.957031 351.03125 120.785156 341.019531 C 122.886719 341.300781 125.128906 342.234375 127.179688 342.808594 C 132.207031 344.214844 137.542969 345.714844 142.710938 346.457031 C 149.328125 354.390625 154.394531 359.566406 163.050781 365.417969 C 162.949219 365.417969 162.847656 365.4375 162.746094 365.4375 Z M 172.871094 366.976562 C 162.296875 363.832031 154.070312 355.496094 146.894531 347.492188 C 149.859375 347.734375 152.867188 348.4375 155.820312 348.820312 C 160.425781 349.433594 165.121094 349.777344 169.695312 350.609375 C 172.378906 357.4375 175.183594 362.441406 179.738281 368.203125 C 177.445312 367.792969 175.113281 367.628906 172.871094 366.96875 Z M 192.980469 368.714844 C 189.832031 368.714844 186.375 369.148438 183.640625 367.339844 C 179.277344 364.453125 174.039062 355.746094 172.984375 350.589844 C 179.65625 351.121094 186.304688 351.304688 192.988281 351.34375 C 193.03125 357.132812 193.019531 362.925781 192.980469 368.714844 Z M 171.59375 347.84375 C 167.976562 337.5 164.878906 326.753906 163 315.933594 C 167.109375 315.933594 171.304688 316.355469 175.414062 316.546875 C 181.257812 316.789062 187.109375 316.890625 192.960938 316.859375 L 193.039062 348.667969 C 185.960938 348.839844 178.652344 348.457031 171.59375 347.84375 Z M 192.890625 314.144531 C 189.972656 314.277344 186.957031 314.042969 184.03125 313.972656 C 176.824219 313.804688 169.632812 313.480469 162.425781 313.191406 C 161.460938 309.320312 160.980469 305.199219 160.335938 301.257812 C 159.25 294.582031 157.902344 287.464844 157.589844 280.707031 C 169.363281 281.492188 181.1875 281.664062 192.980469 281.804688 C 192.960938 292.570312 193.191406 303.386719 192.878906 314.144531 Z M 193.007812 278.96875 C 189.609375 279.351562 185.742188 278.90625 182.3125 278.835938 C 173.96875 278.65625 165.582031 278.527344 157.257812 277.871094 C 156.714844 274 156.523438 270.050781 156.261719 266.148438 C 155.71875 258.929688 155.398438 251.710938 155.289062 244.472656 C 161.640625 244.453125 168.054688 244.925781 174.410156 245.136719 C 180.644531 245.339844 186.898438 245.277344 193.140625 245.296875 C 193.019531 256.527344 192.980469 267.746094 193.007812 278.976562 Z M 193 225.542969 C 192.980469 231.144531 193.21875 236.792969 193.070312 242.382812 L 192.746094 242.644531 C 180.261719 242.5625 167.773438 242.253906 155.296875 241.730469 C 154.894531 230.359375 155.5 218.898438 156.152344 207.558594 C 160.929688 207.558594 165.765625 208.078125 170.550781 208.269531 C 178.050781 208.523438 185.550781 208.652344 193.058594 208.671875 C 193.300781 214.273438 193.019531 219.933594 193 225.542969 Z M 195.292969 80.902344 L 200.097656 80.921875 C 204.78125 86.492188 208.410156 92.984375 211.136719 99.710938 C 211.660156 101.007812 212.332031 102.417969 212.582031 103.785156 C 207.042969 104.234375 201.183594 104.035156 195.613281 104.066406 C 195.019531 96.425781 195.402344 88.5625 195.28125 80.890625 Z M 195.644531 106.921875 C 201.164062 106.539062 206.824219 106.71875 212.371094 106.527344 C 212.9375 106.507812 213.125 106.449219 213.628906 106.738281 C 214.824219 108.609375 215.46875 111.152344 216.171875 113.253906 C 219.058594 121.929688 221.542969 130.726562 223.621094 139.632812 C 218.113281 140.398438 212.253906 140.257812 206.683594 140.390625 C 203.011719 140.410156 199.351562 140.460938 195.683594 140.539062 C 195.523438 129.339844 195.511719 118.128906 195.644531 106.929688 Z M 195.753906 171.816406 C 206.472656 171.847656 217.179688 171.617188 227.886719 171.121094 C 228.226562 171.101562 228.578125 171.121094 228.921875 171.121094 C 230.640625 172.832031 232.671875 200.410156 232.984375 204.800781 C 229.292969 205.265625 225.492188 205.292969 221.78125 205.414062 C 214.726562 205.605469 207.675781 205.757812 200.621094 205.847656 C 199.050781 205.886719 197.484375 205.898438 195.914062 205.878906 C 195.5625 202.277344 195.824219 198.449219 195.8125 194.820312 C 195.84375 187.148438 195.824219 179.488281 195.765625 171.816406 Z M 198.417969 242.582031 L 195.933594 242.652344 C 195.90625 231.355469 195.773438 220.035156 195.964844 208.742188 C 199.996094 208.460938 204.160156 208.632812 208.210938 208.574219 C 216.074219 208.503906 223.925781 208.261719 231.777344 207.847656 C 232.238281 207.808594 232.511719 207.789062 232.953125 207.949219 C 233.867188 209.898438 233.96875 236.964844 233.976562 241.398438 C 222.214844 242.394531 210.230469 242.464844 198.429688 242.582031 Z M 233.855469 244.402344 C 233.886719 249.21875 233.515625 254.117188 233.265625 258.929688 C 232.941406 265.105469 232.710938 271.476562 231.855469 277.589844 C 221.582031 278.40625 211.285156 278.835938 200.972656 278.898438 L 195.914062 278.996094 C 195.894531 267.789062 195.742188 256.558594 195.894531 245.347656 C 200.4375 245.128906 205.035156 245.289062 209.585938 245.238281 C 215.902344 245.105469 222.207031 244.886719 228.519531 244.574219 C 230.277344 244.421875 232.085938 244.445312 233.855469 244.402344 Z M 195.84375 281.78125 C 201.726562 281.703125 207.605469 281.570312 213.488281 281.390625 C 219.238281 281.160156 224.980469 280.726562 230.730469 280.507812 C 231.082031 280.476562 231.253906 280.507812 231.585938 280.648438 C 232.085938 282.164062 227.816406 309.257812 227.039062 312.789062 C 216.925781 313.511719 206.792969 313.914062 196.660156 313.996094 C 196.378906 313.996094 196.265625 313.945312 196.015625 313.832031 C 195.644531 312.777344 195.824219 285.414062 195.84375 281.78125 Z M 231.835938 302.039062 C 232.933594 294.824219 233.785156 287.492188 234.539062 280.234375 C 246.144531 279.328125 257.542969 277.902344 269.015625 275.972656 C 269.417969 275.890625 269.609375 275.859375 269.988281 276.011719 C 270.191406 277.460938 269.316406 280.003906 268.996094 281.511719 C 267.085938 290.417969 265.292969 299.820312 261.765625 308.265625 C 251.824219 310.425781 241.46875 311.308594 231.363281 312.4375 C 231.34375 312.4375 231.3125 312.4375 231.292969 312.4375 C 230.832031 312.425781 230.417969 312.527344 230.078125 312.183594 C 230.226562 308.808594 231.324219 305.398438 231.828125 302.050781 Z M 235.074219 277.449219 C 234.914062 277.207031 234.914062 276.9375 234.921875 276.65625 C 235.496094 265.789062 236.449219 254.988281 236.640625 244.089844 C 240.152344 244.019531 243.699219 243.648438 247.199219 243.386719 C 256.066406 242.703125 264.832031 241.71875 273.667969 240.652344 L 273.730469 240.722656 C 274.113281 241.992188 273.71875 244.171875 273.640625 245.53125 C 273.148438 254.628906 272.140625 263.65625 270.632812 272.644531 C 259.453125 275.671875 246.644531 276.214844 235.082031 277.460938 Z M 235.90625 207.566406 C 241.710938 206.902344 247.589844 206.664062 253.402344 206.097656 C 259.332031 205.527344 265.214844 204.621094 271.105469 203.707031 L 271.730469 203.667969 C 272.472656 204.511719 272.433594 207.417969 272.554688 208.601562 C 273.558594 218.363281 273.921875 227.9375 273.878906 237.746094 C 270.765625 238.410156 267.4375 238.644531 264.257812 239.035156 C 255.894531 240.050781 247.511719 240.765625 239.105469 241.1875 L 236.742188 241.296875 C 236.734375 230.046875 236.449219 218.796875 235.90625 207.566406 Z M 275.367188 258.941406 C 276.082031 252.6875 276.253906 246.453125 276.636719 240.179688 C 280.253906 239.347656 284.042969 239.015625 287.695312 238.300781 C 294.882812 236.894531 301.929688 235.113281 308.988281 233.152344 L 309.089844 233.253906 C 309.460938 234.53125 308.996094 236.863281 308.90625 238.28125 C 308.355469 246.796875 307.679688 255.082031 305.972656 263.445312 C 298.792969 266.007812 291.59375 268.128906 284.195312 269.960938 C 280.808594 270.792969 277.371094 271.710938 273.890625 272.082031 L 273.832031 272.03125 C 273.429688 271.207031 275.167969 260.71875 275.367188 258.960938 Z M 302.242188 232.117188 C 294.519531 234.109375 286.71875 235.71875 278.835938 236.933594 L 276.777344 237.246094 C 276.816406 225.703125 276.132812 214.542969 274.867188 203.082031 C 285.039062 201.285156 294.921875 198.921875 304.925781 196.40625 L 305.390625 196.367188 L 305.710938 196.648438 C 306.425781 198.902344 306.617188 201.554688 306.957031 203.898438 C 308.222656 212.675781 308.835938 221.300781 309.160156 230.148438 C 306.835938 230.742188 304.554688 231.523438 302.230469 232.128906 Z M 277.660156 199.855469 L 274.382812 200.398438 C 272.835938 189.089844 270.613281 178.121094 267.265625 167.203125 C 270.644531 166.347656 274.171875 165.835938 277.601562 165.121094 C 283.171875 163.953125 288.761719 162.585938 294.238281 161.089844 C 297.054688 164.003906 304.082031 188.183594 305.117188 193.230469 C 296.480469 196.609375 286.730469 198.105469 277.652344 199.855469 Z M 271.558594 200.800781 C 267.507812 201.222656 263.484375 202.128906 259.445312 202.671875 C 253.089844 203.527344 246.65625 204.007812 240.261719 204.460938 C 238.792969 204.632812 237.304688 204.710938 235.835938 204.832031 C 235.496094 197.261719 234.632812 189.652344 233.738281 182.121094 C 233.285156 178.359375 232.671875 174.570312 232.410156 170.789062 C 236.632812 170.257812 240.984375 170.167969 245.238281 169.785156 C 251.511719 169.203125 257.765625 168.46875 264.007812 167.59375 C 264.160156 167.554688 264.351562 167.59375 264.511719 167.625 C 265.195312 168.699219 265.394531 170.359375 265.746094 171.605469 C 268.402344 180.976562 270.855469 191.070312 271.570312 200.800781 Z M 237.003906 167.675781 C 235.316406 167.785156 233.617188 167.875 231.925781 167.945312 C 231.011719 164.234375 230.621094 160.214844 229.945312 156.445312 C 229.09375 151.597656 227.976562 146.84375 226.960938 142.039062 C 231.382812 141.765625 235.835938 141.625 240.242188 141.222656 C 244.707031 140.8125 249.160156 140.136719 253.601562 139.503906 L 254.042969 139.472656 C 256.097656 141.203125 262.640625 161.089844 263.695312 164.910156 C 255.039062 166.507812 245.78125 167 236.992188 167.675781 Z M 229.019531 168.136719 C 220.605469 168.519531 212.179688 168.78125 203.757812 168.910156 C 201.0625 168.992188 198.367188 169.011719 195.671875 168.972656 L 195.742188 143.152344 C 204.167969 143.101562 212.664062 143.011719 221.070312 142.449219 C 222.125 142.347656 223.230469 142.371094 224.285156 142.328125 C 226.207031 150.765625 227.90625 159.550781 229.019531 168.136719 Z M 195.855469 316.757812 C 204.941406 316.738281 214.011719 316.378906 223.070312 315.671875 C 224.1875 315.554688 225.34375 315.5625 226.457031 315.523438 C 226.117188 318.660156 225.242188 321.855469 224.488281 324.921875 C 222.597656 332.675781 220.335938 340.164062 217.691406 347.695312 C 211.519531 348.136719 205.335938 348.480469 199.152344 348.71875 L 195.753906 348.761719 C 195.582031 338.113281 195.683594 327.40625 195.835938 316.757812 Z M 224.105469 337.417969 C 226.316406 330.199219 227.90625 322.691406 229.445312 315.300781 C 235.738281 314.699219 242.019531 314.023438 248.292969 313.289062 C 252.386719 312.777344 256.449219 312.0625 260.53125 311.542969 L 260.640625 311.8125 C 257.34375 320.953125 253.53125 329.910156 248.707031 338.355469 C 247.609375 340.273438 246.503906 342.386719 245.078125 344.074219 C 237.085938 345.511719 228.992188 346.6875 220.878906 347.222656 L 220.746094 347.082031 C 220.746094 346.597656 223.671875 338.808594 224.09375 337.410156 Z M 263.898438 310.867188 C 268.410156 309.390625 274.375 308.425781 279.140625 307.257812 C 283.914062 306.09375 288.640625 304.433594 293.34375 303.015625 C 293.65625 302.957031 293.496094 302.9375 293.808594 303.117188 C 293.597656 305.558594 285.441406 319.695312 283.863281 322.109375 C 281.589844 325.597656 275.992188 334.171875 272.914062 336.414062 C 270.835938 337.933594 253.128906 342.488281 249.730469 343.199219 C 249.351562 343.230469 249.53125 343.269531 249.1875 343.089844 C 255.261719 332.816406 259.90625 322.109375 263.898438 310.867188 Z M 265.71875 307.628906 C 265.4375 307.628906 265.585938 307.660156 265.292969 307.417969 C 265.273438 306.304688 268.53125 296.089844 269.035156 294.078125 C 270.53125 287.816406 271.890625 281.511719 273.097656 275.175781 C 283.914062 272.90625 294.5625 270.472656 304.957031 266.664062 L 305.308594 266.691406 C 305.578125 267.578125 304.867188 269.699219 304.65625 270.671875 C 302.523438 280.484375 299.578125 289.894531 295.535156 299.085938 C 286.757812 302.914062 275.207031 305.488281 265.71875 307.621094 Z M 302.472656 289.082031 C 304.957031 281.332031 307.007812 273.457031 308.617188 265.484375 C 311.019531 264.148438 313.734375 263.183594 316.265625 262.097656 C 320.550781 260.257812 324.5625 258.308594 328.523438 255.84375 L 328.683594 255.875 C 328.714844 255.976562 328.761719 256.066406 328.773438 256.167969 C 328.933594 257.171875 328.300781 259.261719 328.078125 260.339844 C 326.613281 267.488281 323.144531 282.265625 319.28125 288.296875 C 312.96875 291.6875 306.554688 294.953125 299.890625 297.597656 L 299.617188 297.566406 C 299.488281 296.742188 302 290.5 302.464844 289.082031 Z M 309.863281 261.828125 L 309.550781 261.757812 C 309.078125 260.960938 310.34375 254.277344 310.515625 252.9375 C 311.402344 246.03125 311.621094 239.074219 311.972656 232.128906 C 318.429688 229.988281 324.894531 227.84375 331.085938 225.03125 C 331.308594 225.089844 331.167969 225.03125 331.40625 225.320312 C 331.425781 233.355469 331.476562 244.09375 329.527344 251.863281 C 323.726562 255.996094 316.558594 259.464844 309.863281 261.816406 Z M 314.003906 228.589844 L 311.984375 229.253906 C 311.449219 224.699219 311.542969 220.035156 311.121094 215.449219 C 310.496094 208.664062 309.289062 201.898438 308.144531 195.179688 C 311.140625 194.335938 314.105469 193.371094 317.03125 192.296875 C 319.957031 191.21875 322.832031 190.035156 325.667969 188.726562 C 326.238281 189.46875 326.492188 190.746094 326.753906 191.640625 C 329.6875 201.445312 330.191406 211.769531 331.4375 221.851562 C 325.878906 224.585938 319.867188 226.660156 313.984375 228.578125 Z M 310.335938 191.671875 L 307.75 192.40625 C 306.644531 188.0625 305.640625 183.691406 304.324219 179.40625 C 302.3125 172.882812 299.769531 166.40625 297.144531 160.105469 C 302.179688 158.503906 307.097656 156.796875 311.964844 154.726562 C 312.074219 154.753906 312.105469 154.753906 312.214844 154.824219 C 313.21875 155.539062 314.164062 158.265625 314.71875 159.421875 C 318.890625 168.125 322.582031 176.8125 325.285156 186.101562 C 320.410156 188.234375 315.421875 190.09375 310.335938 191.664062 Z M 298.824219 156.734375 L 296.078125 157.398438 C 294.046875 153.265625 291.886719 149.207031 289.59375 145.214844 C 287.300781 141.222656 284.890625 137.3125 282.347656 133.472656 C 286.457031 132.234375 290.296875 130.617188 294.257812 129.019531 C 296.8125 130.515625 309.449219 148.804688 310.957031 152.351562 C 306.976562 154.03125 302.90625 155.378906 298.8125 156.734375 Z M 293.285156 158.363281 C 291.304688 159.179688 289.082031 159.621094 287 160.144531 C 281.542969 161.53125 276.113281 162.667969 270.574219 163.683594 L 266.53125 164.367188 C 265.464844 161.511719 264.652344 158.535156 263.644531 155.640625 C 261.746094 150.011719 259.535156 144.5 257 139.121094 C 264.773438 137.773438 271.597656 136.257812 279.257812 134.335938 L 279.621094 134.386719 C 283.007812 138.125 291.375 153.457031 293.265625 158.355469 Z M 263.074219 135.25 C 260.660156 135.664062 258.238281 136.015625 255.804688 136.316406 C 250.847656 125.21875 244.292969 114.421875 237.003906 104.71875 C 241.617188 103.832031 246.765625 103.480469 251.460938 102.988281 C 251.5625 102.988281 251.664062 102.980469 251.753906 102.988281 C 252.929688 103.25 254.910156 105.542969 255.792969 106.386719 C 264.089844 114.289062 271.257812 122.695312 278.054688 131.894531 C 273.097656 133.289062 268.148438 134.355469 263.082031 135.242188 Z M 252.960938 136.789062 C 247.238281 137.613281 241.597656 138.367188 235.835938 138.808594 C 232.679688 139.0625 229.523438 139.28125 226.355469 139.484375 C 224.117188 128.183594 220.464844 117.15625 216.472656 106.367188 L 233.6875 104.949219 C 233.6875 104.949219 233.738281 104.941406 233.757812 104.949219 C 234.78125 105.363281 236.167969 107.925781 236.851562 108.921875 C 242.90625 117.746094 248.546875 127.015625 252.960938 136.789062 Z M 203.625 368.355469 C 201.503906 368.484375 199.375 368.574219 197.253906 368.605469 C 196.75 368.636719 196.417969 368.625 195.925781 368.484375 C 195.363281 367.078125 195.742188 353.90625 195.753906 351.324219 C 202.066406 351.324219 208.371094 351.082031 214.664062 350.601562 C 215.175781 350.539062 215.589844 350.480469 216.09375 350.621094 C 216.082031 350.699219 216.074219 350.769531 216.0625 350.851562 C 215.800781 352.066406 214.9375 353.484375 214.402344 354.621094 C 211.738281 360.230469 208.882812 364.855469 203.625 368.363281 Z M 219.070312 366.253906 C 216.292969 367.117188 213.367188 367.449219 210.503906 367.851562 C 210.039062 367.851562 209.667969 367.820312 209.226562 367.722656 C 209.636719 366.734375 212.652344 363.316406 213.558594 361.941406 C 215.980469 358.230469 217.78125 354.21875 219.589844 350.1875 C 226.519531 349.867188 234.582031 348.527344 241.496094 347.453125 C 241.910156 347.371094 242.253906 347.394531 242.664062 347.421875 L 242.605469 347.714844 C 235.867188 354.992188 228.890625 363.1875 219.070312 366.253906 Z M 241.335938 360.625 C 237.265625 362.34375 232.933594 363.417969 228.699219 364.644531 C 228.808594 364.171875 232.390625 361.699219 233.101562 361.097656 C 238.332031 356.710938 242.644531 351.898438 246.867188 346.546875 C 254.074219 345.101562 261.0625 343.03125 268.109375 340.957031 L 268.070312 341.261719 C 261.886719 348.539062 250.054688 356.945312 241.328125 360.625 Z M 284.175781 337.46875 C 275.097656 344.730469 265.285156 351.34375 254.738281 356.300781 L 254.609375 356.300781 C 254.757812 355.96875 254.636719 356.128906 255.03125 355.859375 C 257.363281 354.25 259.625 352.558594 261.835938 350.789062 C 264.046875 349.019531 266.179688 347.160156 268.242188 345.222656 C 270.332031 343.28125 272.824219 339.972656 275.136719 338.597656 C 278.855469 336.363281 285.03125 334.707031 289.273438 332.835938 L 289.484375 332.914062 C 288.066406 334.585938 285.90625 336.09375 284.175781 337.46875 Z M 299.929688 321.496094 C 298.761719 322.972656 297.535156 324.800781 296.039062 325.957031 C 291.757812 329.285156 284.054688 331.921875 278.949219 334.3125 C 279.027344 333.578125 284.636719 325.957031 285.484375 324.640625 C 287.984375 320.730469 290.417969 316.800781 292.460938 312.617188 C 294.300781 308.855469 295.777344 304.777344 297.980469 301.207031 C 304.605469 298.8125 310.988281 295.605469 317.242188 292.390625 C 317.242188 292.621094 317.242188 292.652344 317.179688 292.914062 C 316.78125 294.460938 315.632812 296.28125 314.898438 297.707031 C 310.578125 306.113281 305.75 314.042969 299.910156 321.496094 Z M 323.242188 291.382812 C 318.871094 299.417969 314.125 307.167969 308.65625 314.507812 L 308.503906 314.316406 C 311.582031 309.46875 314.457031 304.574219 317.089844 299.476562 C 318.429688 296.875 320.1875 292.109375 321.765625 290.035156 C 322.46875 289.121094 323.9375 288.488281 324.921875 287.914062 L 324.953125 287.9375 C 324.914062 288.890625 323.738281 290.488281 323.242188 291.382812 Z M 335.929688 254.578125 C 333.761719 264.167969 330.894531 272.855469 327.527344 282.0625 C 326.238281 282.988281 325.054688 283.933594 323.976562 285.121094 L 323.847656 284.910156 C 326.167969 278.234375 328.382812 271.6875 330 264.800781 C 330.875 261.082031 331.207031 257.191406 332.230469 253.511719 C 333.539062 252.113281 335.046875 250.929688 336.566406 249.761719 L 336.695312 249.882812 C 336.976562 251.078125 336.203125 253.351562 335.929688 254.578125 Z M 338.457031 237.617188 C 337.960938 243.921875 338.273438 244.714844 333.308594 248.957031 C 333.207031 248.957031 333.136719 248.855469 333.066406 248.808594 C 333.195312 245.429688 333.660156 242.039062 333.851562 238.652344 C 334.121094 233.695312 334.113281 228.71875 334.121094 223.753906 C 335.539062 222.859375 336.96875 222.042969 338.464844 221.289062 L 338.726562 221.390625 C 339.511719 223.480469 338.6875 234.730469 338.457031 237.617188 Z M 332.894531 185.480469 C 333.578125 186.101562 333.992188 188.617188 334.253906 189.601562 C 336.707031 198.992188 338.132812 208.179688 338.707031 217.863281 C 337.339844 218.714844 335.890625 219.421875 334.453125 220.132812 C 334.222656 220.132812 334.363281 220.144531 334.03125 220.003906 C 333.710938 218.597656 333.710938 217.097656 333.578125 215.660156 C 333.367188 213.429688 333.105469 211.207031 332.804688 208.996094 C 331.800781 201.644531 330.269531 194.507812 328.332031 187.359375 C 329.828125 186.746094 331.285156 186.113281 332.722656 185.359375 C 332.785156 185.398438 332.855469 185.429688 332.90625 185.46875 Z M 317.773438 151.980469 C 318.679688 152.433594 319.726562 154.777344 320.269531 155.71875 C 321.503906 157.84375 322.679688 159.992188 323.796875 162.164062 C 324.914062 164.347656 325.980469 166.558594 326.984375 168.789062 C 327.988281 171.023438 328.933594 173.285156 329.820312 175.578125 C 330.703125 177.859375 331.527344 180.171875 332.292969 182.492188 L 329.125 184.082031 L 327.777344 184.777344 C 323.976562 173.433594 320.367188 164.1875 314.890625 153.527344 C 315.792969 152.945312 316.78125 152.464844 317.734375 151.960938 C 317.746094 151.960938 317.765625 151.960938 317.773438 151.96875 Z M 297.304688 127.417969 L 298.171875 127.027344 L 298.480469 127.085938 C 301.386719 129.21875 315.160156 146.519531 316.136719 149.46875 C 315.863281 149.890625 315.484375 150.011719 315.039062 150.242188 C 314.566406 150.460938 314.164062 150.625 313.652344 150.742188 C 312.648438 150.152344 311.632812 148.148438 310.980469 147.144531 C 308.847656 143.835938 306.796875 140.5 304.453125 137.332031 C 302.089844 134.125 299.375 131.039062 297.226562 127.699219 Z M 279.25 109.875 C 281.875 111.585938 295.796875 123.1875 296.199219 125.097656 C 295.796875 125.257812 295.464844 125.347656 295.035156 125.398438 C 292.652344 122.625 289.824219 120.128906 287.171875 117.617188 C 284.296875 114.894531 281.480469 112.085938 278.453125 109.542969 C 278.757812 109.613281 278.996094 109.707031 279.257812 109.875 Z M 266.300781 103.59375 C 268.664062 105.269531 270.964844 107 273.238281 108.808594 C 275.5 110.609375 277.710938 112.480469 279.871094 114.398438 C 282.035156 116.320312 284.136719 118.3125 286.1875 120.34375 C 288.238281 122.382812 290.226562 124.472656 292.167969 126.625 C 289.847656 127.941406 287.253906 128.855469 284.757812 129.800781 C 283.453125 130.292969 282.085938 130.667969 280.746094 131.078125 C 272.675781 119.929688 265.425781 111.566406 255.3125 102.214844 C 257.402344 101.734375 259.472656 101.148438 261.546875 100.585938 C 263.144531 101.078125 264.914062 102.617188 266.300781 103.601562 Z M 247.320312 92.210938 C 250.285156 93.539062 253.28125 94.964844 256.066406 96.644531 C 256.820312 97.097656 258.246094 97.742188 258.457031 98.625 L 257.9375 98.808594 C 255.957031 99.257812 254.003906 99.5625 251.992188 99.8125 C 249.179688 98.203125 246.65625 95.882812 243.941406 94.070312 C 238.5625 90.484375 232.609375 87.394531 226.75 84.660156 C 229.242188 84.761719 244.363281 90.882812 247.320312 92.210938 Z M 221.121094 85.425781 C 230.449219 89.125 240.109375 94.191406 248.125 100.234375 C 247.691406 100.527344 247.148438 100.566406 246.636719 100.667969 C 242.785156 101.261719 238.925781 101.734375 235.042969 102.085938 C 231.171875 97.207031 226.519531 92.261719 221.710938 88.289062 C 219.703125 86.632812 217.519531 85.144531 215.398438 83.625 C 217.199219 83.65625 219.429688 84.742188 221.121094 85.414062 Z M 215.277344 86.792969 C 216.9375 87.898438 218.527344 89.105469 220.042969 90.414062 C 221.84375 91.960938 231.171875 100.675781 231.503906 102.367188 L 231.101562 102.496094 C 225.984375 102.910156 220.847656 103.359375 215.710938 103.59375 C 213.640625 98.707031 211.6875 93.578125 209.035156 88.972656 C 207.488281 86.289062 205.605469 83.816406 203.828125 81.285156 C 207.789062 82.128906 211.929688 84.570312 215.269531 86.804688 Z M 179.539062 74.367188 C 183.207031 70.214844 188.171875 69.160156 193.480469 68.816406 C 196.75 68.726562 200.128906 69.019531 203.234375 70.054688 C 207.507812 71.480469 210.542969 74.398438 212.535156 78.367188 C 207.234375 77.984375 201.976562 77.734375 196.667969 77.746094 C 190.113281 77.746094 183.640625 77.90625 177.09375 78.316406 C 177.71875 76.851562 178.480469 75.554688 179.539062 74.367188 Z M 184.121094 81.324219 L 184.28125 81.566406 C 182.976562 83.636719 181.367188 85.476562 180.160156 87.617188 C 177.234375 92.824219 175.214844 98.382812 172.558594 103.714844 C 167.855469 103.683594 163.109375 103.191406 158.40625 102.929688 C 157.882812 102.890625 158.132812 102.96875 157.671875 102.707031 C 157.710938 102.464844 157.699219 102.4375 157.820312 102.183594 C 158.394531 100.96875 160.003906 99.5625 160.929688 98.554688 C 167.160156 91.808594 175.476562 84.582031 184.121094 81.324219 Z M 164.035156 87.015625 C 166.699219 85.949219 169.484375 85.246094 172.25 84.480469 L 172.378906 84.480469 C 172.378906 84.480469 172.417969 84.640625 172.417969 84.640625 C 165.109375 89.488281 159.582031 95.910156 153.832031 102.425781 C 150.011719 102.277344 146.148438 101.742188 142.359375 101.28125 L 140.882812 101.019531 C 148.128906 95.953125 155.78125 90.332031 164.054688 87.015625 Z M 161.320312 85.0625 L 161.851562 85.0625 C 161.582031 85.355469 154.90625 88.601562 153.769531 89.257812 C 147.820312 92.695312 142.371094 96.523438 136.929688 100.707031 C 134.988281 100.335938 133.039062 100.003906 131.078125 99.710938 C 130.265625 99.5625 129.449219 99.371094 128.636719 99.199219 C 139.675781 93.226562 149.316406 88.832031 161.320312 85.0625 Z M 125.910156 101.378906 C 128.738281 101.972656 131.582031 102.4375 134.40625 103.058594 C 130.667969 105.8125 127.429688 109.050781 124.242188 112.410156 C 122.101562 114.671875 119.871094 116.902344 117.859375 119.277344 C 114.539062 123.195312 111.515625 127.320312 108.347656 131.359375 C 107.382812 131.160156 106.425781 130.867188 105.484375 130.605469 C 102.445312 129.683594 99.441406 128.636719 96.425781 127.652344 C 105.300781 117.445312 115.324219 109.664062 125.910156 101.378906 Z M 108.71875 111.574219 L 108.789062 111.757812 C 105.933594 114.320312 103.019531 116.792969 100.292969 119.496094 C 98.042969 121.730469 95.980469 124.261719 93.597656 126.34375 C 93.296875 125.980469 93.15625 125.902344 93.066406 125.417969 C 96.214844 121.398438 104.398438 114.703125 108.71875 111.566406 Z M 90.632812 127.589844 C 91.117188 127.871094 91.457031 128.03125 91.710938 128.554688 C 90.28125 131.128906 86.191406 135.160156 84.199219 137.976562 C 81.445312 141.867188 79.324219 146.230469 76.589844 150.121094 C 76.214844 150.652344 76.097656 150.875 75.441406 150.976562 C 74.808594 150.714844 74.042969 150.484375 73.664062 149.890625 C 74.328125 146.289062 87.277344 131.332031 90.625 127.589844 Z M 71.933594 152.292969 L 74.367188 153.648438 C 71.742188 159.964844 68.414062 165.894531 65.980469 172.320312 C 65.128906 174.589844 62.535156 183.238281 61.640625 184.503906 L 61.226562 184.445312 C 60.128906 183.730469 59.042969 183.085938 57.878906 182.503906 C 61.738281 171.898438 65.839844 161.851562 71.945312 152.292969 Z M 57.246094 185.117188 C 58.503906 185.890625 59.707031 186.675781 60.882812 187.582031 C 59.042969 195.34375 57.566406 203.082031 56.683594 211.015625 C 56.320312 214.273438 56.351562 217.570312 55.949219 220.828125 L 55.636719 220.878906 L 51.515625 218.273438 C 51.714844 209.367188 54.046875 193.402344 57.246094 185.128906 Z M 51.332031 221.289062 C 52.882812 222.113281 54.339844 223.179688 55.808594 224.136719 C 56.191406 228.207031 56.097656 232.410156 56.378906 236.519531 C 56.671875 240.792969 57.324219 245.058594 57.558594 249.328125 C 55.859375 247.863281 54.238281 246.304688 52.710938 244.65625 C 51.363281 237.105469 51.144531 228.949219 51.332031 221.300781 Z M 51.332031 221.289062 " fill-opacity="1" fill-rule="nonzero"/></svg>