<?xml version="1.0" encoding="utf-8"?>
<!-- Generator: Adobe Illustrator 25.4.1, SVG Export Plug-In . SVG Version: 6.00 Build 0)  -->
<svg version="1.1" id="Capa_1" xmlns="http://www.w3.org/2000/svg" xmlns:xlink="http://www.w3.org/1999/xlink" x="0px" y="0px"
	 viewBox="0 0 512 511.8" style="enable-background:new 0 0 512 511.8;" xml:space="preserve">
<g>
	<path d="M139.1,386.6L101,376.2c-4.6,16.4-8.9,32.2-13.3,48c-5.1,18.4-9.9,37-15.4,55.3c-1.8,5.9,0,8.1,5.5,9.4
		c8.3,1.9,16.5,4.1,24.6,6.7c5.2,1.7,7.1-0.2,8.3-5.1c2.8-11.1,6-22,8.9-33.1c1.4-5.4,3.7-9.9,10.3-8.2c6.6,1.7,5.7,7.1,4.5,11.8
		c-3.3,12.6-6.8,25.1-10.5,37.6c-3,10-11.5,14.9-21.7,12.4c-11.1-2.8-22.1-5.7-33.1-9c-9.9-2.9-14.7-11.7-12.4-21.9
		c1.1-4.6,2.5-9.2,3.8-13.8s2.5-9.2,4-14.8c-5.6-1.7-11.2-2.8-16.5-5c-10.5-4.5-21.5-8.3-30.8-14.6c-20.7-14-23-33.6-5.4-51.2
		c10.2-10.1,23.3-17.3,34.8-26.3c3.1-2.4,5.2-6.1,7.6-9.3c0.4-0.6,0.2-1.6,0.5-2.3c7.5-17.1,6.9-32.9-4.1-49.1
		c-5.3-7.7-7.5-18.2-8.9-27.8c-3.3-21.7,8-35.1,30-37.3c15.7-1.6,30.7,1.6,45.6,6c1.8,0.5,3.6,1,6.3,1.7c2.7-9.2,5.2-18.4,7.9-27.4
		c3.4-11.5,11.4-16.3,23.1-13.4c10.4,2.6,20.5,5.4,30.8,8.4c11.2,3.2,16.1,11.1,13.4,22.5s-5.9,22.5-9.1,34.5h108.9
		c-2.7-3-4.7-5.2-6.6-7.4c-15.5-17.5-26.6-36.8-24.6-61.1c0.6-6.5,2.5-13,4.4-19.3c1.5-4.9,5-7.8,10.4-5.6c4.9,2,5.5,6.4,3.7,10.7
		c-8.2,19.5-3,36.9,8,53.5c1.5,2.2,3.1,4.4,4.7,6.5c12.1,16,26,27.5,48.3,23.5c9-1.6,18.6-0.8,27.9-0.1c8.2,0.6,14.8-1.6,19.8-7.8
		c9.1-11.4,18.8-22.4,26.3-34.7c6.9-11.3,6.6-24.6,2.7-37.2c-4.2-13.4-13.8-21.3-27.9-22.9c-16-1.8-26.9,4.3-34.4,17.6
		c-1.4,2.5-4.5,5.4-7,5.5s-5.7-2.7-7.1-5.1c-9.3-15.7-23.1-21.4-41.3-16.7c-7.8,2-13.1-1.3-11.3-7.7c0.7-2.6,4-5.7,6.8-6.5
		c17.4-5,33.7-2.5,48.1,9.1c1.4,1.2,2.8,2.3,4.6,3.8c11-10.9,24.3-16.3,39.7-15.4c39,2.5,50.4,37.4,47,61.8
		c-2.6,18.6-11.9,34-24.1,47.7c-2,2.2-3.9,4.4-5.8,6.6c-0.1,0.1,0.1,0.5,0.4,1.7h8.2c26.7,0,53.3,0,79.9,0
		c10.6,0,12.6,2.1,12.6,12.6c0,70.6,0,141.2,0,211.9c0,17.3-8.7,26.2-25.9,26.2c-95.9,0-191.9,0-287.8,0c-17.3,0-26.2-8.7-26.2-25.9
		c-0.1-48.8-0.1-97.5,0-146.3v-8.4l-1.8-0.2l-13.9,50.3c-4,14.6-8.1,29.2-12.1,43.8c-1.5,5.4-3.7,10-10.3,8.2
		c-6.9-1.9-5.6-7.3-4.3-12.4C132.8,409.6,135.9,398.5,139.1,386.6z M328.4,276.8v220.1c6.9,0,13.3-0.4,19.6,0.1
		c6.6,0.6,8.6-1.7,8.5-8.4c-0.3-35.2-0.1-70.3-0.1-105.5c0-2.4-0.7-5.3,0.3-7.1c1.5-2.6,4.5-6.4,6.6-6.2c2.8,0.2,5.9,3.4,7.7,6.1
		c1.1,1.6,0.3,4.6,0.3,7c0,34.9,0,69.8,0,104.7v8.9c3.6,0.2,6.3,0.4,8.9,0.4c34.4,0,68.7,0,103.1,0c11.8,0,13.7-2,13.7-14
		c0-65.8,0-131.6,0-197.4v-8.4H371.5c0,22.5,0,44.4,0,66.2c0,5.6-0.9,10.5-7.8,10.4c-6.5-0.1-7.3-4.9-7.3-10.1
		c0.1-19.4,0.1-38.9,0-58.3c0-2.8-0.2-5.6-0.4-8.5H328.4z M187.4,276.9v8c0,66.3,0,132.7,0,199c0,11.4,1.6,13,12.8,13
		c34.6,0,69.2,0,103.9,0h8.1v-220H187.4z M116.6,319.4l38.2,10.5c9.8-35.6,19.6-70.6,28.9-105.7c0.4-1.7-2.4-5.6-4.4-6.3
		c-8.8-3-17.9-5-26.8-7.7c-3.9-1.1-5.8-0.4-6.9,3.8C136.1,248.9,126.5,283.7,116.6,319.4z M102,315.3c5.6-20.1,11.2-40,16.5-59.9
		c0.4-1.5-0.8-4.8-1.9-5.1c-16.2-5.1-32.7-9.9-49.9-5.3c-6.3,1.7-10.8,5.7-10.6,13.1c0.6,17.7,7.8,33.4,18,46.8
		c4.1,5.4,14.5,6,22,8.7C97.8,314.3,99.6,314.7,102,315.3z M68.1,438.5c6.5-23.7,12.3-44.6,18.3-66.2c-8.7-2.5-17-5-25.4-7.2
		c-1.3-0.3-3.2,0.5-4.4,1.3c-11.1,7.7-22.9,14.6-32.8,23.7c-12.5,11.3-11.5,21.6,3.2,30.2C39.4,427.5,53.4,432.1,68.1,438.5z
		 M112.7,334.1c-2.4,8.3-4.8,16.1-6.7,24c-0.3,1.2,1,4,2.1,4.3c11.5,3.4,23.1,6.4,35.1,9.6c2.7-9.8,5-18.4,7.4-27.4L112.7,334.1z
		 M90.5,357.4c2.7-9.8,5-18.4,7.4-27.3L75.7,324l-7.6,27.5L90.5,357.4z"/>
	<path d="M274,32.2c1.2-25.8,23.5-39.4,46-28c1.9,1,5.1,1.2,6.9,0.3C339.2-1.9,351-1.7,362,7c9.5,7.6,13.3,23,8.7,35.9
		C363,64,346,76.2,327.2,86.2c-2,1-5.6,0.8-7.6-0.3c-15.9-8.5-30.4-18.8-39.2-35.2C277.3,45,276.1,38.4,274,32.2z M357,32.7
		c-0.1-8.7-2.3-14.7-10-16.9c-6.9-1.9-12.3,0-16.3,6.4c-4.6,7.4-8.7,6.5-14.8-0.3c-3.1-3.5-9-6.7-13.2-6.2
		c-4.2,0.5-9.5,5.1-11.2,9.2c-4.9,12.2,2,22,10.4,29.5c23.4,21.1,20.2,20.7,43.9-0.3C352.5,48.4,357.3,40.8,357,32.7L357,32.7z"/>
	<path d="M447.7,50.7c8.4-5.5,17-7.7,26.3-5.1c16.4,4.6,25.4,22.3,19.6,39.7c-7.1,21.5-24.3,33.6-43.3,43.5
		c-1.7,0.9-4.9,0.3-6.8-0.7c-15-8-29-17.5-37.1-32.9c-3.5-6.8-6.1-15.2-5.7-22.7C402,46.1,428.7,37.4,447.7,50.7z M415.5,74.5
		c0,8.8,4.3,17.7,14,25.6c20.4,16.6,16.1,17,36-0.2c6.4-5.5,10.8-14.3,13.9-22.4c2.7-7.2-2-15-8.2-17c-7.1-2.3-12.8-0.6-16.9,6.3
		c-3.5,5.9-9.7,5.9-13.2,0.1c-3.9-6.5-9.2-8.6-16.1-6.7C417.6,62.4,415.8,68.4,415.5,74.5z"/>
	<path d="M266.3,118.8c-3.4,7.9-5.9,16.4-10.5,23.5c-8.2,12.8-20.6,21.4-33.9,28.4c-2.1,1.1-5.6,1.8-7.5,0.8
		c-19.1-10.1-36.6-22-43.2-44.3c-3.8-12.9-1-24.6,9.3-33.3c10-8.4,21.3-8.2,32.9-2.7c2.5,1,5.2,1,7.7,0
		C243.1,80.8,264.4,93.8,266.3,118.8z M249.8,120.6c-0.7-9.3-2.7-15.2-9.5-17.3s-12.3-0.4-16.3,6.3c-3.7,6.3-10.1,6.3-13.9-0.2
		s-9.2-7.9-15.6-6.3c-6.5,1.7-10,7-9.1,13.3s2.3,13.8,6.4,18.2c7.4,8,16.9,14.1,25.5,21c8.4-6.8,17.5-12.9,25-20.6
		C246.5,130.8,248.1,124.1,249.8,120.6L249.8,120.6z"/>
</g>
</svg>
