<?xml version="1.0" encoding="utf-8"?>
<!-- Generator: Adobe Illustrator 25.4.1, SVG Export Plug-In . SVG Version: 6.00 Build 0)  -->
<svg version="1.1" id="Layer_1" xmlns="http://www.w3.org/2000/svg" xmlns:xlink="http://www.w3.org/1999/xlink" x="0px" y="0px"
	 viewBox="0 0 652 128" style="enable-background:new 0 0 652 128;" xml:space="preserve">
<style type="text/css">
	.st0{fill-rule:evenodd;clip-rule:evenodd;}
</style>
<g>
	<path class="st0" d="M215.1,104.2c-8.5,11.2-11.8,14.1-16.1,14.1c-3.5,0-5.1-2-4.8-6.1c-4.2,4.5-6.1,5.8-9.1,5.8
		c-4.3,0-6.1-3.6-4.7-9c2.4-9.7,13.1-20.4,20.6-20.4c2.3,0,3.3,1.2,3.7,4.2l2.2-3.6c1.6,0.2,2.3,0.2,3.8,0.2c1.3,0,1.9,0,3.2-0.2
		l-1.3,2.2c-0.8,1.3-1.3,2.4-3.5,6.1c-1,1.5-1.7,3-2.5,4.2c-1.6,2.5-3.1,5-4.4,7.5c-1,1.7-1.8,2.9-2.2,3.5c-0.5,0.8-0.8,1.5-0.9,2
		c-0.2,0.8,0.4,1.5,1.7,1.5c2.8,0,6.5-3.5,14.1-14.1l1.5,0.5L215.1,104.2L215.1,104.2z M201,90.2c-1.3,0-2.5,1.1-5.1,4.7
		c-2.4,3.4-4.7,6.9-6.9,10.5c-2.4,3.8-3.4,6.1-3.9,8.1c-0.5,1.8,0.3,2.9,1.6,2.8c2.3,0,5.5-2.9,9.2-8.4c3.5-5,6.3-10.3,7-13.2
		C203.5,92.2,202.5,90.2,201,90.2L201,90.2z"/>
	<path class="st0" d="M230.9,103.9l-3.4,4.3c-5.4,7.3-9.1,10.2-13.1,10.2c-3.6,0-5.4-2.6-4.4-6.5c0.4-1.7,1.4-3.7,3.6-7.6L237,64.8
		l1,0.1h2.1c0.9,0,1.7,0,3.8-0.2l-25.4,43c-0.5,0.7-1.3,2.2-2.4,4.5c-1,1.7-1.2,2.1-1.2,2.8c-0.3,1,0.1,1.6,1.2,1.6
		c1.5,0,3.4-1.3,6.2-4.2c1.7-1.9,3.4-3.9,7.3-9l0.9-1l1.4,0.5C231.3,103.3,231,103.7,230.9,103.9L230.9,103.9z"/>
	<path class="st0" d="M262.1,104.2c-8.6,11.2-11.9,14.1-16.1,14.1c-3.5,0-5.1-2-4.8-6.1c-4.1,4.5-6.1,5.8-9,5.8
		c-4.4,0-6.2-3.6-4.8-9c2.4-9.7,13.1-20.4,20.6-20.4c2.3,0,3.3,1.2,3.6,4.2l2.2-3.6c1.7,0.2,2.4,0.2,3.8,0.2c1.3,0,1.9,0,3.3-0.2
		l-1.3,2.2c-0.8,1.3-1.4,2.4-3.6,6.1c-0.9,1.5-1.7,3-2.4,4.2c-1.9,3-3.3,5.6-4.4,7.5c-1,1.7-1.8,2.9-2.2,3.5c-0.4,0.8-0.8,1.5-0.9,2
		c-0.3,0.8,0.5,1.5,1.6,1.5c2.9,0,6.5-3.5,14.1-14.1l1.5,0.5L262.1,104.2L262.1,104.2z M247.8,90.2c-1.3,0-2.6,1.1-5.1,4.7
		c-2.4,3.4-4.7,6.9-6.9,10.5c-2.3,3.8-3.4,6.1-3.9,8.1c-0.4,1.8,0.3,2.9,1.6,2.8c2.3,0,5.4-2.9,9.1-8.4c3.6-5,6.3-10.3,7-13.2
		C250.3,92.2,249.4,90.2,247.8,90.2L247.8,90.2z"/>
	<path class="st0" d="M284.3,104.8c-3.8,5.3-6.1,7.7-9.4,10.2c-2.9,2.1-6.4,3.4-9.1,3.4c-5.4,0-8.2-4.1-6.7-10
		c2.4-9.2,13.5-19.5,21.1-19.5c3.8,0,5.6,2.4,4.6,6.1c-1.2,5-6.7,6-5.9,2.8c0.6-2.8,3.7-0.9,4.2-2.9c0.6-2.5-0.5-4.4-2.6-4.4
		c-1.4,0-3.1,1-5,3.3c-4.3,5.3-10.6,16.2-11.6,19.9c-0.5,2,0.6,3.3,2.9,3.3c3.3,0,7.8-2.6,11.4-6.5c2.2-2.6,4.3-5.2,6.3-7.9l1.5,0.5
		L284.3,104.8L284.3,104.8z"/>
	<path class="st0" d="M299.1,105.7c-6.9,9.2-10.8,12.6-14.9,12.6c-3.7,0-5.9-2.8-5-6.5c0.4-1.3,0.9-2.1,3.2-6.3l9.5-16.3
		c1.5,0.2,2.2,0.2,3.4,0.2c1.3,0,2,0,3.6-0.2l-12.1,20.5l-1.3,2.5c-0.6,1.2-1.2,2.2-1.3,2.7c-0.2,0.9,0.5,1.7,1.3,1.7
		c1.8,0,4.2-1.8,7.4-5.5c2-2.2,3.5-4.1,6.9-8.9l1.5,0.5L299.1,105.7L299.1,105.7z M298,86.4c-2,0-3-0.9-2.7-2.4
		c0.5-1.8,2.7-3.3,5-3.3c1.9,0,2.9,1,2.6,2.5C302.4,85,300.3,86.4,298,86.4z"/>
	<path class="st0" d="M315.9,109.6c-4.5,6-8.4,8.7-12.4,8.7c-5.1,0-8.2-4-6.9-9.2c2.4-9.6,13.8-20.3,21.7-20.3c4,0,5.9,2.7,4.7,7.1
		c-0.7,2.7-1.8,5.2-5,10.5l-1,1.7c2,0,3.5-1.2,6.8-5.8l1.4,0.5C321.4,108.1,319.6,109.6,315.9,109.6L315.9,109.6z M312.4,105.7
		c0.8-3.3,3.7-5.9,6.3-5.9c0.3,0,0.7,0,1.1,0.1c0.9-1.5,1.2-2.4,1.4-3.5c1-3.7,0-6.1-2.5-6.1c-2.3,0-3.9,1.5-7.9,7
		c-2.2,2.8-4,5.9-6.3,9.8c-2.1,3.7-2.7,5.1-3.1,6.5c-0.6,2,0.4,3.2,2.4,3.2c3.2,0,6.7-2.7,10.4-7.5
		C312.6,108.8,312,107.5,312.4,105.7z M365.4,105c-8.3,10.9-11,13.3-15.4,13.3c-3.7,0-5.4-2-4.8-6.1c-4,4.6-6.2,5.9-9,5.9
		c-4.4,0-6.2-3.7-5-9c2.5-9.8,13.5-20.6,20.9-20.6c2.4,0,3.5,1.4,3.6,4.3l16.7-28.2c1.1,0.3,1.7,0.3,3,0.3c1.6,0,2.4,0,4-0.3
		L353.4,109l-1.8,3c-0.8,1-1.3,2.1-1.4,2.8c-0.2,0.9,0.4,1.6,1.4,1.6c2.4,0,5.3-2.8,12.9-12.7l1.1-1.4l1.5,0.5L365.4,105z M352,90.3
		c-1.8,0.1-3.1,1.4-7,7.3c-1.5,2.4-3.1,4.9-4.9,7.9c-2.2,3.9-3.3,6-4.1,8.3c-0.3,1.3,0.5,2.3,1.6,2.3c1.9,0,4.9-2.7,8.7-7.9
		c3.6-4.8,6.5-10.3,7.3-13.7C354.3,91.9,353.6,90.2,352,90.3L352,90.3z M170.2,38.5l-2.5,3.2c-4.1,5.4-6.7,7.5-9.8,7.5
		c-2.6,0-3.9-1.9-3.2-4.6c0.4-1.3,1-2.8,2.7-5.6l17.2-29.2l0.7,0.1h1.6c0.6,0,1.3,0,2.8-0.2L161,41.4c-0.4,0.5-1,1.6-1.8,3.3
		c-0.7,1.2-0.8,1.6-1,2.1c-0.1,0.6,0.2,1,0.9,1c1.1,0,2.6-0.9,4.6-3c1.4-1.4,2.5-2.9,5.4-6.7l0.6-0.7l1.1,0.3
		C170.5,38.1,170.2,38.3,170.2,38.5L170.2,38.5z M457.2,105.7c-6.9,9.2-10.7,12.6-14.9,12.6c-3.7,0-5.9-2.8-5-6.5
		c0.3-1.3,0.8-2.1,3.2-6.3l9.5-16.3c1.5,0.2,2.2,0.2,3.4,0.2c1.3,0,2,0,3.6-0.2l-12.1,20.5l-1.3,2.5c-0.6,1.2-1.1,2.2-1.3,2.7
		c-0.2,0.7,0.2,1.4,0.9,1.6c0.1,0,0.3,0.1,0.4,0.1c1.7,0,4.2-1.8,7.3-5.5c2-2.2,3.5-4.1,7-8.9l1.5,0.5L457.2,105.7L457.2,105.7z
		 M456.1,86.4c-1.9,0-3-0.9-2.6-2.4c0.4-1.8,2.8-3.3,4.9-3.3c1.8,0,2.9,1,2.6,2.5C460.5,85,458.4,86.4,456.1,86.4z M502.3,104.5
		c-4.5,6-5.4,7-7.5,9.2c-2.6,2.8-5.9,4.6-8.6,4.6c-3.5,0-5.6-2.7-4.8-5.9c0.4-1.4,1.2-3.2,2.3-4.8c1-1.4,2.3-3.5,4.2-6.2
		c3.1-4.3,4.4-6.8,4.8-8.4c0.3-1.1,0.1-1.7-0.9-2.7l-1.1,1.5l-3.2,4.8l-3.5,4.6l-1.1,1.7l-1.5-0.5l1.2-1.6c1.7-2.4,3-4.2,3.7-5.1
		l3.4-4.8l1.2-1.8c-1.4-1.2-1.9-2.4-1.6-3.9c0.6-2.2,2.9-4.3,5.1-4.3c1.5,0,2.2,0.8,1.9,2.2c-0.4,1.3-1,2.6-3.1,5.5
		c4.2,2.9,5.1,4,4.4,7c-0.5,1.7-1.4,3.6-4.1,7.9c-2,3.1-3.2,5.2-3.9,6.3l-2.2,3.4c-0.5,0.8-0.9,1.7-1,2.2c-0.2,0.8,0.3,1.4,1.1,1.4
		c1.3,0,3.2-1.2,5.1-2.8c2.3-2.2,4.3-4.6,8.4-10.3l1.1-1.4l1.5,0.5L502.3,104.5L502.3,104.5z"/>
	<path class="st0" d="M523,104.5c-4.5,6-5.3,7-7.4,9.2c-2.8,2.8-6,4.6-8.7,4.6c-3.4,0-5.6-2.7-4.8-5.9c0.4-1.4,1.3-3.2,2.3-4.8
		c1-1.4,2.4-3.5,4.2-6.2c3.1-4.3,4.4-6.8,4.9-8.4c0.2-1.1,0.1-1.7-0.9-2.7l-1.1,1.5l-3.2,4.8l-3.7,4.6l-1.1,1.7l-1.4-0.5l1-1.6
		c1.8-2.4,3.1-4.2,3.7-5.1l3.4-4.8l1.3-1.8c-1.4-1.2-2-2.4-1.6-3.9c0.5-2.2,2.9-4.3,5.1-4.3c1.5,0,2.2,0.8,1.9,2.2
		c-0.4,1.3-1.1,2.6-3.1,5.5c4.3,2.9,5.1,4,4.4,7c-0.4,1.7-1.4,3.6-4.1,7.9c-1.9,3.1-3.1,5.2-3.9,6.3l-2.1,3.4
		c-0.6,0.8-0.9,1.7-1.1,2.2c-0.1,0.8,0.4,1.4,1.1,1.4c1.3,0,3.4-1.2,5.1-2.8c2.3-2.2,4.3-4.6,8.5-10.3l1-1.4l1.5,0.5L523,104.5
		L523,104.5z"/>
	<path class="st0" d="M538.8,109.6c-4.5,6-8.3,8.7-12.3,8.7c-5.3,0-8.2-4-7-9.2c2.5-9.6,13.9-20.3,21.8-20.3c4,0,5.9,2.7,4.7,7.1
		c-0.6,2.7-1.8,5.2-5,10.5l-1,1.7c2,0,3.5-1.2,6.8-5.8l1.5,0.5C544.3,108.1,542.6,109.6,538.8,109.6L538.8,109.6z M535.4,105.7
		c0.8-3.3,3.6-5.9,6.3-5.9c0.2,0,0.7,0,1.1,0.1c0.8-1.5,1.2-2.4,1.4-3.5c0.9-3.7-0.2-6.1-2.5-6.1c-2.3,0-4,1.5-7.9,7
		c-2.2,2.8-4.1,5.9-6.4,9.8c-2.1,3.7-2.7,5.1-3,6.5c-0.5,2,0.5,3.2,2.5,3.2c3.2,0,6.7-2.7,10.3-7.5
		C535.6,108.8,534.9,107.5,535.4,105.7L535.4,105.7z M219.9,38.9c-3.6-8-14.3-0.8-14.3-0.8c-27.7-13.5-48.9,25.5-48.9,25.5
		c-10.6-9-29.6-0.2-29.6-0.2c-29.7,16.8-22.6,43.4-22.6,43.4c5.7,32.5,46.6,17.3,46.6,17.3c28-9.2,36.7-47.4,36.7-47.4
		c3.1-13.4,17.8-35.7,17.8-35.7C216,47,214.3,59,214.3,59c1.4,17.6-23,19.2-23,19.2c27.9,2.6,27.4-18.5,27.4-18.5
		c1-12.2-10.6-20.5-10.6-20.5C214.4,32.9,219.9,38.9,219.9,38.9L219.9,38.9z M176.9,77.7c0,0-14.2,41.8-38.5,46.6
		c0,0-32.6,6.9-31.1-25.5c0,0,1.4-32.5,34.6-37.7c0,0,8.3-0.7,14,4.6c-1.1,3.2-3.4,10.5-1.4,13.8c0,0,0.6-9.5,2.3-12.9
		c4.2,4.9,6.2,14,0.7,30.7c0,0-4.6,10.6-17.7,17.8c0,0,31.2-10.8,21.5-45.1c0,0-1-3.3-3.7-5.5c0,0,23.3-38.3,45.6-23.8
		C203.2,40.8,184.7,58.6,176.9,77.7L176.9,77.7z M125.7,2.1c7-3,16.9,3.5,16.9,3.5c4.1-4.1,10-5,10-5c14-1.6,11,6.9,11,6.9
		c-2.5,5.4-8.4,5.4-8.4,5.4c-6.4,1-12.1-3.6-12.1-3.6c-2.2,3.7,0.8,5,0.8,5c6.4,0,5.1,3.3,5.1,3.3c-2.6,2.9-5.1-0.7-5.1-0.7
		c-0.7-0.6-2.8-0.1-2.8-0.1c-15.1,2.6-19.9,15.8-19.9,15.8C115,49.1,131.2,49,131.2,49c9.8,0.8,13.6-4.2,13.6-4.2
		c12.1-11.6,5-17.7,5-17.7c-10.5-10-23.7,9.8-23.7,9.8C138.7,13.4,152.7,26,152.7,26c11.9,13.4-10.3,23-10.3,23
		C114.4,59.4,115,35.4,115,35.4c0.8-18.5,26.3-20.9,26.3-20.9c-1.3-1.4,0-7.5,0-7.5c-6.6-4.7-12.7-4.7-12.7-4.7
		c-9.4,0.4-3.8,7.6-3.8,7.6C119.7,3.9,125.7,2.1,125.7,2.1L125.7,2.1z M156.9,10.1c9-1.7,4.4-6.4,4.4-6.4C152.8-2.6,145,6.9,145,6.9
		C147.3,11.9,156.9,10.1,156.9,10.1z M471.8,41.4c0,0-21,12.8-39.3,42.8l-8.9,0.1c0,0,2.9-17.2,27.9-42.1l-7.3,3.2
		c0,0-19.9,1.8-28.4-1c0,0-13.1-2.6-18.3,7.9c0,0-7.5,15.8,8.2,16.5c0,0,9.4,1.9,17.5-9.9c0,0-7.7,8.3-14.8,8.5
		c0,0-13.2,2.2-11.5-10.3c0,0,3.3-11.4,12.8-10.9c0,0,7,0.2,8.4,1.1c0,0,9.7,4.1,21.9,0.9c0,0-21.4,20-28.9,37.4H403v2h6.3
		c0,0-9.1,24-26.7,35.5c0,0-6.9,5.7-24-2c0,0,9.2,9,23.8,5c0,0,22.3-2.9,39.6-39.1h8.5c0,0-9,13.2-9,23.5c0,0-1.5,22.3,21,11.1
		c0,0-25.9,12.5-1.5-34.7h4.8v-2h-2.9C442.9,84.6,447,68.3,471.8,41.4L471.8,41.4z"/>
	<path class="st0" d="M383.8,110.6c-4.4,4.8-9.5,7.4-14.3,7.4c-5.5,0-8.5-3.7-7.2-8.9c2.3-9.2,14-20.5,21.5-20.5
		c3.9,0,5.9,2.8,4.9,6.9c-1.8,7-12.2,7-16.6,7.5c-0.6,1.2-3.9,8.4-4.2,9.5c-0.7,2.8,0.1,4.2,2.6,4.2c5.1,0,10.7-4.3,17.7-13.4
		l0.8-1.2l1.5,0.4C387.7,106.4,386.1,108.2,383.8,110.6L383.8,110.6z M385.9,95.4c3.9-5.9-2.7-4.8-2.7-4.8
		c-6.5,1.9-9.5,10.3-9.5,10.3C382.8,101.8,385.9,95.4,385.9,95.4z M476.3,110.6c-4.6,4.8-9.7,7.4-14.4,7.4c-5.5,0-8.5-3.7-7.2-8.9
		c2.3-9.2,14-20.5,21.4-20.5c3.9,0,5.9,2.8,4.9,6.9c-1.8,7-12.1,7-16.5,7.5c-0.6,1.2-3.9,8.4-4.2,9.5c-0.6,2.8,0.1,4.2,2.5,4.2
		c5.2,0,10.8-4.3,17.7-13.4l0.9-1.2l1.4,0.4C480,106.4,478.6,108.2,476.3,110.6L476.3,110.6z M478.3,95.4c3.9-5.9-2.7-4.8-2.7-4.8
		c-6.4,1.9-9.5,10.3-9.5,10.3C475.2,101.8,478.3,95.4,478.3,95.4z"/>
</g>
</svg>
