<?xml version="1.0" encoding="utf-8"?>
<!-- Generator: Adobe Illustrator 25.4.1, SVG Export Plug-In . SVG Version: 6.00 Build 0)  -->
<svg version="1.1" id="Capa_1" xmlns:svgjs="http://svgjs.com/svgjs"
	 xmlns="http://www.w3.org/2000/svg" xmlns:xlink="http://www.w3.org/1999/xlink" x="0px" y="0px" viewBox="0 0 512 512"
	 style="enable-background:new 0 0 512 512;" xml:space="preserve">
<g>
	<g>
		<path d="M172.3,31.2c-3.9,0-7,3.1-7,7l0,0v18.2h-11.9V38.2c0-3.9-3.1-7-7-7s-7,3.1-7,7v50.5c0,3.9,3.1,7,7,7s7-3.1,7-7V70.5h11.9
			v18.3c0,3.9,3.1,7,7,7s7-3.1,7-7V38.2C179.3,34.4,176.2,31.2,172.3,31.2L172.3,31.2z"/>
		<path d="M220.6,31.2h-25.9c-3.9,0-7,3.1-7,7l0,0v50.5c0,3.9,3.1,7,7,7h25.9c3.9,0,7-3.1,7-7V38.2
			C227.6,34.4,224.5,31.2,220.6,31.2L220.6,31.2z M213.6,81.7h-11.9V45.2h11.9V81.7z"/>
		<path d="M269,31.2h-26c-3.9,0-7,3.1-7,7s3.1,7,7,7l0,0h6v43.5c0,3.9,3.1,7,7,7s7-3.1,7-7V45.2h6c3.9,0,7-3.1,7-7
			S272.8,31.2,269,31.2z"/>
		<path d="M317.3,45.2c3.9,0,7-3.1,7-7s-3.1-7-7-7h-25.9c-3.9,0-7,3.1-7,7l0,0v50.5c0,3.9,3.1,7,7,7h25.9c3.9,0,7-3.1,7-7
			s-3.1-7-7-7h-18.9V70.5h18.9c3.9,0,7-3.1,7-7s-3.1-7-7-7h-18.9V45.2H317.3z"/>
		<path d="M365.6,81.7h-18.9V38.2c0-3.9-3.1-7-7-7s-7,3.1-7,7v50.5c0,3.9,3.1,7,7,7h25.9c3.9,0,7-3.1,7-7S369.5,81.7,365.6,81.7z"/>
		<path d="M440.5,113H406V7c0-3.9-3.1-7-7-7H113c-3.9,0-7,3.1-7,7v106H71.5c-3.9,0-7,3.1-7,7l0,0v385c0,3.9,3.1,7,7,7h119.6h0.1
			h129.5h0.1h119.6c3.9,0,7-3.1,7-7V120C447.5,116.1,444.4,113,440.5,113L440.5,113z M120,14h272v99H120V14z M313.7,418.5V498H263
			v-79.5H313.7z M249,498h-50.8v-79.5H249V498z M433.5,498H327.7v-86.5c0-3.9-3.1-7-7-7H191.2c-3.9,0-7,3.1-7,7V498H78.5V127h355
			V498z"/>
		<path d="M185,153h-73.5c-3.9,0-7,3.1-7,7l0,0v50c0,3.9,3.1,7,7,7l0,0H185c3.9,0,7-3.1,7-7l0,0v-50C192,156.1,188.9,153,185,153
			L185,153z M178,203h-59.5v-36H178V203z"/>
		<path d="M292.7,153h-73.5c-3.9,0-7,3.1-7,7l0,0v50c0,3.9,3.1,7,7,7h73.5c3.9,0,7-3.1,7-7l0,0v-50C299.8,156.1,296.6,153,292.7,153
			C292.8,153,292.8,153,292.7,153z M285.7,203h-59.5v-36h59.5V203z"/>
		<path d="M320,160v50c0,3.9,3.1,7,7,7l0,0h73.5c3.9,0,7-3.1,7-7l0,0v-50c0-3.9-3.1-7-7-7l0,0H327C323.1,153,320,156.1,320,160
			L320,160z M334,167h59.5v36H334V167z"/>
		<path d="M185,233.7h-73.5c-3.9,0-7,3.1-7,7l0,0v50c0,3.9,3.1,7,7,7H185c3.9,0,7-3.1,7-7v-50C192,236.8,188.9,233.7,185,233.7
			L185,233.7z M178,283.7h-59.5v-36H178V283.7z"/>
		<path d="M292.7,233.7h-73.5c-3.9,0-7,3.1-7,7v50c0,3.9,3.1,7,7,7h73.5c3.9,0,7-3.1,7-7v-50C299.7,236.8,296.6,233.7,292.7,233.7
			L292.7,233.7z M285.7,283.7h-59.5v-36h59.5V283.7z"/>
		<path d="M400.5,233.7H327c-3.9,0-7,3.1-7,7l0,0v50c0,3.9,3.1,7,7,7h73.5c3.9,0,7-3.1,7-7v-50C407.5,236.8,404.4,233.7,400.5,233.7
			L400.5,233.7z M393.5,283.7H334v-36h59.5V283.7z"/>
		<path d="M185,314.4h-73.5c-3.9,0-7,3.1-7,7v50c0,3.9,3.1,7,7,7H185c3.9,0,7-3.1,7-7v-50C192,317.6,188.9,314.4,185,314.4z
			 M178,364.5h-59.5v-36H178V364.5z"/>
		<path d="M292.7,314.4h-73.5c-3.9,0-7,3.1-7,7v50c0,3.9,3.1,7,7,7h73.5c3.9,0,7-3.1,7-7v-50C299.7,317.6,296.6,314.4,292.7,314.4z
			 M285.7,364.5h-59.5v-36h59.5V364.5z"/>
		<path d="M400.5,314.4H327c-3.9,0-7,3.1-7,7v50c0,3.9,3.1,7,7,7h73.5c3.9,0,7-3.1,7-7v-50C407.5,317.6,404.4,314.4,400.5,314.4z
			 M393.5,364.5H334v-36h59.5V364.5z"/>
	</g>
</g>
</svg>
