<?xml version="1.0" encoding="utf-8"?>
<!-- Generator: Adobe Illustrator 25.4.1, SVG Export Plug-In . SVG Version: 6.00 Build 0)  -->
<svg version="1.1" id="Capa_1" xmlns="http://www.w3.org/2000/svg" xmlns:xlink="http://www.w3.org/1999/xlink" x="0px" y="0px"
	 viewBox="0 0 512 512" style="enable-background:new 0 0 512 512;" xml:space="preserve">
<g>
	<g>
		<g>
			<path d="M512,249.4c0,137.7-112.5,249.4-251.4,249.4c-44.1,0-85.4-11.3-121.5-31L0,512l45.4-133.8c-22.9-37.6-36-81.7-36-128.8
				C9.3,111.7,121.8,0,260.7,0C399.5,0,512,111.7,512,249.4z M260.6,39.8c-116.5,0-211.3,94.1-211.3,209.7
				c0,45.9,15,88.4,40.3,122.9l-26.4,77.9l81.2-25.8c33.4,21.9,73.3,34.7,116.3,34.7c116.5,0,211.3-94,211.3-209.7
				S377.2,39.8,260.6,39.8z M387.6,306.9c-1.6-2.5-5.7-4.1-11.8-7.1c-6.1-3.1-36.5-17.8-42.1-19.9c-5.7-2.1-9.8-3.1-13.9,3
				s-15.9,19.9-19.5,24s-7.2,4.6-13.3,1.6c-6.2-3.1-26-9.5-49.6-30.3c-18.3-16.2-30.7-36.2-34.3-42.3s-0.4-9.4,2.7-12.5
				c2.8-2.8,6.2-7.1,9.2-10.7c3.1-3.6,4.1-6.1,6.2-10.2c2-4.1,1-7.6-0.5-10.7c-1.5-3.1-13.8-33.1-19-45.4
				c-5.1-12.2-10.3-10.2-13.9-10.2c-3.6,0-7.7-0.5-11.8-0.5s-10.8,1.5-16.4,7.6c-5.6,6.1-21.6,20.9-21.6,51s22.1,59.2,25.1,63.2
				c3.1,4.1,42.6,67.8,105.3,92.3s62.7,16.3,73.9,15.3c11.3-1,36.5-14.8,41.6-29C389.1,321.7,389.1,309.4,387.6,306.9z"/>
		</g>
	</g>
</g>
</svg>
