<?xml version="1.0" encoding="utf-8"?>
<!-- Generator: Adobe Illustrator 25.4.1, SVG Export Plug-In . SVG Version: 6.00 Build 0)  -->
<svg version="1.1" id="Layer_1" xmlns="http://www.w3.org/2000/svg" xmlns:xlink="http://www.w3.org/1999/xlink" x="0px" y="0px"
	 viewBox="0 0 652 128" style="enable-background:new 0 0 652 128;" xml:space="preserve">
<style type="text/css">
	.st0{fill-rule:evenodd;clip-rule:evenodd;}
	.st1{fill-rule:evenodd;clip-rule:evenodd;fill:#CE3729;}
</style>
<g>
	<path class="st0" d="M99.2,68.1c-0.1,0,0,37.3,0,37.3c0,4.7-4,8.8-9.3,8.8h-5.1v1.9h42.8v-1.9h-5.1c-5.2,0-9.3-4.2-9.3-8.8V67.5
		V22.3c0-4.5,4-8.8,9.3-8.8h5.1v-1.9H84.9v1.9h5.1c5.4,0,9.3,4.2,9.3,8.8v40.5H48.5V22.3c0-4.5,4.1-8.8,9.3-8.8h5.1v-1.9H20.1v1.9
		h5.1c5.3,0,9.3,4.2,9.3,8.8v83.1c0,4.6-4,8.8-9.3,8.8h-5.1v1.9h42.8v-1.9h-5.1c-5.2,0-9.3-4.2-9.3-8.8c0,0,0.1-37.3,0-37.3
		L99.2,68.1L99.2,68.1L99.2,68.1z M201,88.8c0.4,6.1-3.4,15.4-8.7,20.2c-5.1,4.6-12.3,8.6-22,8.6c-11,0-20.4-5.9-23.9-7.2
		c-2.1-0.8-4.8-0.7-6.5,0.3c-1.9,1.2-3.1,3.1-3.5,6.6h-1.6V81h1.6c1.5,11.1,6.7,17.7,9.9,21.4c5.3,6.1,15.2,9.5,24.8,8
		c7.6-1.2,16-9.5,15.1-19.8c-0.3-3.7-1.2-9.1-8.8-14.1c-4.8-3.1-11.7-7.6-18.2-11.9c-8.2-5.4-15.6-11.3-17.7-13.7
		c-2.7-3.1-6.1-7.6-6.1-14.8c0-6.2,2.3-13.2,7.3-17.9c5-4.7,11.7-8.2,21.4-8.2c9.7,0,17,5.1,19.5,6.3c2.5,1.2,5.2,0.9,6.8,0
		c1.5-0.9,2.6-2.2,3-5.7h1.6v34.3h-1.6c-1.5-11.1-6.3-19.5-9.7-22.6c-3.4-3.1-10-7.3-19.8-5.4c-9.4,1.8-14,6.1-14.9,13.6
		c-0.6,5.7,2.4,9.3,4.2,11.4c3.7,4.4,26.9,17.6,37.4,26.7C196.2,73.3,200.4,78.9,201,88.8L201,88.8z M268.8,62.7
		c18.6,6.4,23.9,19.5,20.5,33.1c-4.1,15.9-22,19.2-27.8,20c-2.6,0.3-9.3,0.3-16,0.3c-11.8,0-26.8,0-38.8,0v-1.9h6.2
		c3.9,0,8.4-3.3,8.4-8.3V22.4c0-5-4.5-8.4-8.4-8.4h-6.2v-1.9h37.1c8.9,0,13.8,0.9,16.9,1.5c5.3,1,20.7,5.6,24.3,19.9
		C287.8,44.7,282.3,58.7,268.8,62.7L268.8,62.7z M235,59.8c5.1,1.3,20.2,1.7,26.1-2c9.2-5.8,12.4-15.2,10.7-23.4
		c-1-5-3.7-9.5-8.2-12.7c-9-6.3-21.8-5.3-28.6-3.2V59.8L235,59.8z M235,110.2c7.2,2.3,21,4,30.6-2.9c11.5-8.3,14-28.4-2.3-38.9
		c-6.5-4.2-22.9-3.9-28.3-2.7V110.2z M387.1,13.4l1.5,35.4l-2.1,0.1c-1-9-4.4-15.2-8.7-19.3c-1.2-1.2-3.5-3.6-6.9-5.7
		c-5.6-3.5-13.9-6.6-23.7-4.9c-14.8,2.6-22.4,12.4-26.2,21.8c-4.7,11.6-7.7,31.4,0.3,48.1c6.5,13.6,18.9,19.2,28.4,20.7
		c8.1,1.3,26.2,0.9,40-17.7l2.2,1.5c-10.7,15.1-24.9,24.8-41.2,24.6c-20.8-0.2-33.9-11.6-39.8-18.5c-6.3-7.2-11.1-20.8-11.2-32.7
		c-0.1-10.5,2.3-22.3,6.1-29.2c6.5-11.8,20.2-23.5,38.1-25.2c13.4-1.3,22.3,1.3,29.8,5.6c3.8,2.2,5.9,2.4,8,1.6
		c2-0.9,3.7-2.6,3.7-6.1L387.1,13.4L387.1,13.4z"/>
	<path class="st1" d="M423.1,63.9l52.2,52.2V11.7L423.1,63.9z M475.3,116.1h104.4l-52.2-52.2L475.3,116.1L475.3,116.1z M527.5,63.9
		l52.2-52.2H475.3L527.5,63.9L527.5,63.9z M579.7,11.7v104.4l52.2-52.2L579.7,11.7z"/>
</g>
</svg>
